<svg width="404" height="178" viewBox="0 0 404 178" fill="none" xmlns="http://www.w3.org/2000/svg">
<path d="M124.6 20.6055C127.46 15.8389 131.897 11.6589 137.91 8.06554C142.677 5.20554 148.214 3.77554 154.52 3.77554C158.994 3.77554 163.32 4.54554 167.5 6.08554C171.68 7.55221 175.127 9.64221 177.84 12.3555C178.794 13.3089 179.82 14.2255 180.92 15.1055C182.607 16.5722 183.597 17.4889 183.89 17.8555C187.557 21.7422 189.39 26.0322 189.39 30.7255C189.39 34.3922 188.217 38.1322 185.87 41.9455C182.79 47.0055 179.6 51.4422 176.3 55.2555C173 59.0689 169.297 62.3322 165.19 65.0455C158.224 69.6655 151.55 71.9755 145.17 71.9755C143.264 71.9755 141.357 71.7555 139.45 71.3155C133.07 69.9222 127.9 66.9522 123.94 62.4055C119.98 57.7855 118 52.5422 118 46.6755C118 42.2022 119.247 37.7289 121.74 33.2555C121.887 32.8889 122.18 32.5222 122.62 32.1555C123.134 31.7889 123.537 31.4955 123.83 31.2755L126.36 32.4855L128.78 33.6955C131.054 34.9422 132.52 35.9689 133.18 36.7755C133.914 37.5822 134.28 38.7189 134.28 40.1855C134.28 41.2122 134.17 42.6055 133.95 44.3655C133.877 45.0255 133.84 45.9789 133.84 47.2255C133.84 49.9389 134.17 53.2022 134.83 57.0155C134.977 58.1155 135.417 58.9589 136.15 59.5455C136.957 60.1322 137.947 60.4255 139.12 60.4255C139.707 60.4255 140.184 60.3889 140.55 60.3155C143.997 59.6555 146.93 58.8855 149.35 58.0055C151.844 57.1255 154.08 55.8055 156.06 54.0455C159.727 50.8922 162.917 47.8489 165.63 44.9155C168.344 41.9822 170.727 38.8289 172.78 35.4555C174.174 33.1089 174.87 30.8355 174.87 28.6355C174.87 26.8022 174.467 25.0055 173.66 23.2455C172.854 21.4855 171.68 19.5055 170.14 17.3055C167.574 13.7855 164.237 12.0255 160.13 12.0255C158.664 12.0255 157.16 12.2455 155.62 12.6855C155.107 12.8322 152.76 13.6022 148.58 14.9955C148.14 15.1422 147.664 15.2889 147.15 15.4355C146.71 15.5822 146.234 15.7289 145.72 15.8755L133.18 19.5055C131.567 20.0189 129.074 20.7155 125.7 21.5955L124.6 20.6055Z" fill="#FBED81"/>
<path d="M208.496 29.7355C210.329 30.2489 211.612 30.8722 212.346 31.6055C213.152 32.3389 213.556 33.3289 213.556 34.5755C213.556 35.1622 213.446 35.9322 213.226 36.8855C212.419 40.1855 211.979 43.4855 211.906 46.7855C211.832 50.5255 212.419 53.9722 213.666 57.1255C214.106 58.2255 214.509 59.0322 214.876 59.5455C215.316 59.9855 215.829 60.2055 216.416 60.2055C217.149 60.2055 218.102 59.5455 219.276 58.2255C221.989 54.9989 224.006 51.7722 225.326 48.5455C226.646 45.3189 227.452 41.9822 227.746 38.5355C227.966 36.2622 228.332 34.8322 228.846 34.2455C229.139 33.9522 229.616 33.7689 230.276 33.6955C230.936 33.6222 231.889 33.5855 233.136 33.5855C235.116 33.7322 236.472 33.9155 237.206 34.1355C238.012 34.3555 238.562 34.7222 238.856 35.2355C239.149 35.7489 239.296 36.5922 239.296 37.7655L239.186 42.9355C239.186 44.0355 239.149 45.6489 239.076 47.7755C238.856 54.3755 238.672 59.2889 238.526 62.5155C238.452 65.0822 237.682 68.3089 236.216 72.1955C236.069 72.4155 235.666 72.7455 235.006 73.1855C234.346 73.5522 233.759 73.7722 233.246 73.8455C233.099 73.8455 232.769 73.6255 232.256 73.1855C231.816 72.6722 231.486 72.2322 231.266 71.8655C230.752 70.6922 230.166 69.1155 229.506 67.1355L228.626 65.0455L228.406 64.3855L228.076 64.7155L226.316 65.8155C225.436 66.5489 224.482 67.1355 223.456 67.5755C221.769 68.6022 219.752 69.1155 217.406 69.1155C214.472 69.1155 211.686 68.3089 209.046 66.6955C206.406 65.0089 204.316 62.7355 202.776 59.8755C200.282 55.4755 199.036 50.3789 199.036 44.5855C199.036 41.6522 199.439 37.9489 200.246 33.4755C200.392 32.3755 201.089 31.4222 202.336 30.6155C203.436 29.8089 204.719 29.4055 206.186 29.4055C206.919 29.4055 207.689 29.5155 208.496 29.7355Z" fill="#FBED81"/>
<path d="M263.238 29.2955C263.458 30.0289 263.495 31.1655 263.348 32.7055L262.028 45.6855C262.395 45.3922 262.945 44.3655 263.678 42.6055C264.411 40.7722 265.108 39.3055 265.768 38.2055C266.428 37.0322 266.941 36.2622 267.308 35.8955C270.755 32.5955 274.641 30.6155 278.968 29.9555C283.295 29.2955 288.061 29.0022 293.268 29.0755C293.781 29.0755 294.331 29.2955 294.918 29.7355C295.578 30.1022 295.908 30.4322 295.908 30.7255C295.908 30.9455 295.688 31.3489 295.248 31.9355C294.808 32.4489 294.405 32.7789 294.038 32.9255C289.638 34.3922 285.751 36.0789 282.378 37.9855C279.078 39.8922 276.218 42.3855 273.798 45.4655C268.078 52.7255 264.778 60.2055 263.898 67.9055C263.678 69.9589 263.055 71.3522 262.028 72.0855C261.001 72.7455 259.571 73.0755 257.738 73.0755C255.685 73.0755 253.851 72.1955 252.238 70.4355C250.625 68.6755 249.818 66.7322 249.818 64.6055C249.891 56.8322 249.928 45.1722 249.928 29.6255C249.928 27.4989 250.405 26.0322 251.358 25.2255C252.311 24.3455 254.035 23.9055 256.528 23.9055C258.361 23.9055 259.901 24.4189 261.148 25.4455C262.468 26.4722 263.165 27.7555 263.238 29.2955Z" fill="#FBED81"/>
<path d="M45.6666 117.166C45.5933 116.652 45.5566 115.809 45.5566 114.636C45.5566 111.776 45.8499 108.989 46.4366 106.276C47.0233 103.562 47.8666 100.592 48.9666 97.3655C50.0666 94.3589 52.1566 91.3522 55.2366 88.3455C58.3166 85.3389 61.7633 82.8822 65.5766 80.9755C69.3899 78.9955 72.8366 78.0055 75.9166 78.0055C79.0699 78.0055 82.1499 79.1789 85.1566 81.5255C88.1633 83.7989 90.0699 86.4022 90.8766 89.3355C91.0233 90.2155 91.0966 90.8022 91.0966 91.0955C91.0966 92.1955 90.7666 93.0389 90.1066 93.6255C89.5199 94.1389 88.7133 94.3955 87.6866 94.3955C86.8799 94.3955 86.2566 94.3589 85.8166 94.2855C85.5966 94.2855 85.2666 94.1389 84.8266 93.8455C82.6999 92.6722 80.6466 92.0855 78.6666 92.0855C74.9266 92.0855 71.2233 94.0289 67.5566 97.9155C61.3233 104.442 58.2066 112.216 58.2066 121.236C58.2066 124.462 58.5366 127.579 59.1966 130.586C59.9299 133.959 61.2133 136.452 63.0466 138.066C64.9533 139.606 67.4833 140.376 70.6366 140.376C71.7366 140.376 72.9466 140.266 74.2666 140.046C78.8866 139.459 83.1399 138.066 87.0266 135.866C90.9133 133.592 95.2033 130.586 99.8966 126.846C100.997 125.966 102.94 124.132 105.727 121.346L107.927 119.036C108.88 118.082 109.687 117.422 110.347 117.056C111.08 116.616 111.74 116.396 112.327 116.396C113.28 116.396 114.453 116.872 115.847 117.826C117.387 118.926 118.157 120.319 118.157 122.006C118.157 123.179 117.753 124.279 116.947 125.306C116.653 125.819 115.847 127.029 114.527 128.936C113.207 130.769 111.923 132.419 110.677 133.886C109.43 135.352 108.183 136.599 106.937 137.626C100.19 143.566 93.1499 147.562 85.8166 149.616C82.5899 150.496 79.3633 150.936 76.1366 150.936C70.1966 150.936 64.9166 149.432 60.2966 146.426C55.7499 143.419 52.1933 139.496 49.6266 134.656C47.0599 129.742 45.7399 124.646 45.6666 119.366V117.166Z" fill="#FBED81"/>
<path d="M147.201 143.566C144.927 144.959 142.324 145.656 139.391 145.656C136.164 145.656 133.047 144.849 130.041 143.236C127.107 141.549 124.761 139.166 123.001 136.086C121.241 133.006 120.507 129.486 120.801 125.526L121.351 122.886C121.791 120.246 122.157 118.302 122.451 117.056C123.111 114.342 124.431 112.436 126.411 111.336C128.391 110.236 131.031 109.356 134.331 108.696C136.457 108.256 138.547 108.036 140.601 108.036C147.054 108.036 152.481 110.199 156.881 114.526C159.227 116.872 160.401 119.732 160.401 123.106C160.401 126.406 159.191 129.962 156.771 133.776C153.984 138.102 150.794 141.366 147.201 143.566ZM137.961 113.646C136.787 116.506 135.541 120.062 134.221 124.316L133.121 127.616L133.891 127.946C133.891 128.459 133.891 129.266 133.891 130.366C133.964 131.392 134.111 132.272 134.331 133.006C135.137 135.279 136.054 136.672 137.081 137.186C137.521 137.406 138.144 137.296 138.951 136.856C139.831 136.416 140.601 135.902 141.261 135.316C142.287 134.436 143.937 132.602 146.211 129.816C147.897 127.909 148.741 125.636 148.741 122.996C148.741 120.722 148.081 118.669 146.761 116.836C145.514 115.002 143.754 113.756 141.481 113.096C141.261 113.022 140.857 112.986 140.271 112.986C138.877 112.986 138.107 113.206 137.961 113.646Z" fill="#FBED81"/>
<path d="M188.9 116.396C188.9 119.036 189.01 120.759 189.23 121.566C189.524 122.372 190.184 122.776 191.21 122.776C192.164 122.776 193.667 122.556 195.72 122.116H198.25C202.43 122.116 204.997 123.032 205.95 124.866C206.317 125.012 206.684 125.416 207.05 126.076C207.417 126.662 207.674 127.066 207.82 127.286C207.527 127.506 207.087 127.872 206.5 128.386C205.914 128.826 205.364 129.082 204.85 129.156C203.164 129.522 200.634 129.999 197.26 130.586C196.6 130.659 195.427 130.842 193.74 131.136C191.1 131.649 189.78 133.189 189.78 135.756C189.78 136.122 189.854 136.819 190 137.846C190.88 141.806 191.614 145.289 192.2 148.296C192.787 151.229 193.264 153.686 193.63 155.666L195.61 165.346C196.344 168.866 196.71 171.579 196.71 173.486C196.71 174.879 196.38 175.906 195.72 176.566C195.06 177.299 193.777 177.666 191.87 177.666C190.257 177.666 189.047 177.262 188.24 176.456C187.434 175.649 186.847 174.366 186.48 172.606C185.82 169.232 184.684 164.172 183.07 157.426L179.55 139.166C179.404 134.912 177.314 132.786 173.28 132.786C171.96 132.786 171.044 132.566 170.53 132.126C170.09 131.759 169.687 131.356 169.32 130.916C168.954 130.402 168.77 129.926 168.77 129.486C168.77 129.119 168.99 128.716 169.43 128.276C169.944 127.762 170.42 127.469 170.86 127.396C173.5 127.029 175.26 126.296 176.14 125.196C177.094 124.096 177.607 122.372 177.68 120.026L177.9 112.986C177.974 109.906 178.084 106.752 178.23 103.526C178.377 100.299 178.634 97.4389 179 94.9455C179.294 92.8189 180.21 91.2789 181.75 90.3255C183.29 89.2989 185.417 88.7855 188.13 88.7855C189.304 88.7855 190.22 88.8222 190.88 88.8955C192.42 89.0422 194.18 89.7755 196.16 91.0955C198.14 92.3422 199.204 93.6989 199.35 95.1655C200.084 99.3455 198.544 101.619 194.73 101.986C192.237 101.472 190.77 101.766 190.33 102.866C189.89 103.966 189.597 105.322 189.45 106.936C189.45 107.889 189.377 109.246 189.23 111.006C189.01 112.766 188.9 114.562 188.9 116.396Z" fill="#FBED81"/>
<path d="M233.854 116.396C233.854 119.036 233.964 120.759 234.184 121.566C234.477 122.372 235.137 122.776 236.164 122.776C237.117 122.776 238.62 122.556 240.674 122.116H243.204C247.384 122.116 249.95 123.032 250.904 124.866C251.27 125.012 251.637 125.416 252.004 126.076C252.37 126.662 252.627 127.066 252.774 127.286C252.48 127.506 252.04 127.872 251.454 128.386C250.867 128.826 250.317 129.082 249.804 129.156C248.117 129.522 245.587 129.999 242.214 130.586C241.554 130.659 240.38 130.842 238.694 131.136C236.054 131.649 234.734 133.189 234.734 135.756C234.734 136.122 234.807 136.819 234.954 137.846C235.834 141.806 236.567 145.289 237.154 148.296C237.74 151.229 238.217 153.686 238.584 155.666L240.564 165.346C241.297 168.866 241.664 171.579 241.664 173.486C241.664 174.879 241.334 175.906 240.674 176.566C240.014 177.299 238.73 177.666 236.824 177.666C235.21 177.666 234 177.262 233.194 176.456C232.387 175.649 231.8 174.366 231.434 172.606C230.774 169.232 229.637 164.172 228.024 157.426L224.504 139.166C224.357 134.912 222.267 132.786 218.234 132.786C216.914 132.786 215.997 132.566 215.484 132.126C215.044 131.759 214.64 131.356 214.274 130.916C213.907 130.402 213.724 129.926 213.724 129.486C213.724 129.119 213.944 128.716 214.384 128.276C214.897 127.762 215.374 127.469 215.814 127.396C218.454 127.029 220.214 126.296 221.094 125.196C222.047 124.096 222.56 122.372 222.634 120.026L222.854 112.986C222.927 109.906 223.037 106.752 223.184 103.526C223.33 100.299 223.587 97.4389 223.954 94.9455C224.247 92.8189 225.164 91.2789 226.704 90.3255C228.244 89.2989 230.37 88.7855 233.084 88.7855C234.257 88.7855 235.174 88.8222 235.834 88.8955C237.374 89.0422 239.134 89.7755 241.114 91.0955C243.094 92.3422 244.157 93.6989 244.304 95.1655C245.037 99.3455 243.497 101.619 239.684 101.986C237.19 101.472 235.724 101.766 235.284 102.866C234.844 103.966 234.55 105.322 234.404 106.936C234.404 107.889 234.33 109.246 234.184 111.006C233.964 112.766 233.854 114.562 233.854 116.396Z" fill="#FBED81"/>
<path d="M281.525 133.776C280.792 134.216 279.729 134.436 278.335 134.436C277.822 134.436 277.199 134.399 276.465 134.326C275.732 134.252 275.109 134.252 274.595 134.326C275.182 136.746 276.575 138.726 278.775 140.266C280.975 141.732 283.432 142.466 286.145 142.466C288.492 142.466 290.582 141.952 292.415 140.926C295.129 139.532 297.475 137.882 299.455 135.976C300.849 134.582 302.169 133.886 303.415 133.886C304.222 133.886 304.919 134.289 305.505 135.096C306.092 136.049 306.385 137.222 306.385 138.616C306.385 140.082 306.092 141.219 305.505 142.026C303.599 144.959 301.105 146.976 298.025 148.076C295.019 149.176 291.499 149.726 287.465 149.726C283.285 149.726 279.252 148.809 275.365 146.976C271.479 145.142 268.142 142.649 265.355 139.496C262.642 136.269 260.845 132.712 259.965 128.826C259.379 126.552 259.085 124.316 259.085 122.116C259.085 118.669 260.039 115.882 261.945 113.756C263.925 111.629 267.079 109.612 271.405 107.706C275.365 106.019 279.032 105.176 282.405 105.176C284.825 105.176 287.172 105.542 289.445 106.276C296.485 108.476 300.005 111.482 300.005 115.296C300.005 117.716 298.575 120.649 295.715 124.096C294.322 125.709 292.672 127.139 290.765 128.386C288.859 129.632 286.989 130.769 285.155 131.796C283.395 132.749 282.185 133.409 281.525 133.776ZM286.145 113.426C286.072 113.059 285.779 112.766 285.265 112.546C284.825 112.252 284.569 112.069 284.495 111.996C282.515 111.849 280.499 112.436 278.445 113.756C276.392 115.002 274.669 116.616 273.275 118.596C271.955 120.576 271.295 122.482 271.295 124.316L271.405 125.196C271.479 125.489 271.845 125.856 272.505 126.296C273.239 126.736 273.679 126.882 273.825 126.736C279.032 122.849 282.955 119.732 285.595 117.386C286.035 116.946 286.255 116.139 286.255 114.966C286.255 114.232 286.219 113.719 286.145 113.426Z" fill="#FBED81"/>
<path d="M335.838 133.776C335.104 134.216 334.041 134.436 332.648 134.436C332.134 134.436 331.511 134.399 330.778 134.326C330.044 134.252 329.421 134.252 328.908 134.326C329.494 136.746 330.888 138.726 333.088 140.266C335.288 141.732 337.744 142.466 340.458 142.466C342.804 142.466 344.894 141.952 346.728 140.926C349.441 139.532 351.788 137.882 353.768 135.976C355.161 134.582 356.481 133.886 357.728 133.886C358.534 133.886 359.231 134.289 359.818 135.096C360.404 136.049 360.698 137.222 360.698 138.616C360.698 140.082 360.404 141.219 359.818 142.026C357.911 144.959 355.418 146.976 352.338 148.076C349.331 149.176 345.811 149.726 341.778 149.726C337.598 149.726 333.564 148.809 329.678 146.976C325.791 145.142 322.454 142.649 319.668 139.496C316.954 136.269 315.158 132.712 314.278 128.826C313.691 126.552 313.398 124.316 313.398 122.116C313.398 118.669 314.351 115.882 316.258 113.756C318.238 111.629 321.391 109.612 325.718 107.706C329.678 106.019 333.344 105.176 336.718 105.176C339.138 105.176 341.484 105.542 343.758 106.276C350.798 108.476 354.318 111.482 354.318 115.296C354.318 117.716 352.888 120.649 350.028 124.096C348.634 125.709 346.984 127.139 345.078 128.386C343.171 129.632 341.301 130.769 339.468 131.796C337.708 132.749 336.498 133.409 335.838 133.776ZM340.458 113.426C340.384 113.059 340.091 112.766 339.578 112.546C339.138 112.252 338.881 112.069 338.808 111.996C336.828 111.849 334.811 112.436 332.758 113.756C330.704 115.002 328.981 116.616 327.588 118.596C326.268 120.576 325.608 122.482 325.608 124.316L325.718 125.196C325.791 125.489 326.158 125.856 326.818 126.296C327.551 126.736 327.991 126.882 328.138 126.736C333.344 122.849 337.268 119.732 339.908 117.386C340.348 116.946 340.568 116.139 340.568 114.966C340.568 114.232 340.531 113.719 340.458 113.426Z" fill="#FBED81"/>
</svg>
