<svg width="29" height="27" viewBox="0 0 29 27" fill="none" xmlns="http://www.w3.org/2000/svg">
<mask id="mask0_5_802" style="mask-type:luminance" maskUnits="userSpaceOnUse" x="0" y="12" width="25" height="4">
<path d="M23.5738 14.7296C23.5738 14.6296 23.5738 14.6296 23.5738 14.7296V14.7296ZM24.5738 14.6296C24.2738 14.5296 23.9738 14.6296 23.6738 14.7296C23.8738 14.7296 24.5738 15.0296 24.5738 14.6296ZM23.6738 15.3296L23.9738 15.2296C23.7738 15.1296 23.8738 15.3296 23.6738 15.3296ZM23.6738 15.0296V14.9296L23.4738 15.0296H23.6738ZM13.9738 13.4296C13.9738 13.3296 13.9738 13.3296 13.9738 13.2296V13.4296ZM13.6738 13.7296C13.6738 13.7296 13.5738 13.7296 13.4738 13.7296C13.5738 13.8296 13.6738 13.8296 13.6738 13.7296ZM14.4738 13.4296H14.3738C14.3738 13.4296 14.3738 13.5296 14.4738 13.4296ZM19.3738 14.1296C19.4738 14.0296 19.5738 13.9296 19.6738 13.9296C19.3738 13.8296 19.4738 14.0296 19.3738 14.1296ZM11.8738 14.9296L11.7738 14.8296C11.7738 14.8296 11.7738 14.9296 11.8738 14.9296ZM13.7738 14.9296C13.7738 14.8296 13.7738 14.8296 13.7738 14.7296V14.9296ZM14.7738 13.6296L14.8738 13.5296C14.7738 13.5296 14.7738 13.6296 14.7738 13.6296ZM11.2738 14.9296C11.2738 15.0296 11.1738 15.1296 11.1738 15.1296C11.2738 15.1296 11.2738 15.0296 11.2738 14.9296ZM14.4738 14.8296C14.3738 14.8296 14.3738 14.8296 14.2738 14.9296C14.3738 14.9296 14.3738 14.9296 14.4738 14.8296Z" fill="white"/>
<path d="M5.57344 15.0298L5.97344 14.8298C5.97344 14.9298 6.17344 14.9298 6.07344 15.0298L6.17344 14.9298V15.0298C6.87344 15.2298 7.17344 14.5298 7.97344 15.0298L8.27344 14.8298C8.37344 14.8298 8.37344 15.0298 8.57344 15.1298C8.47344 14.9298 8.77344 15.1298 8.77344 14.9298C8.87344 15.0298 8.77344 15.0298 8.77344 15.1298C9.17344 15.3298 9.37344 15.0298 9.77344 15.1298C9.57344 15.0298 9.27344 14.9298 9.07344 14.8298C9.37344 14.7298 9.47344 14.9298 9.77344 14.8298L9.67344 14.9298C9.87344 15.2298 10.1734 14.8298 10.2734 15.1298C10.4734 15.1298 10.5734 14.8298 10.7734 14.8298V15.1298H10.9734V14.9298C11.0734 14.9298 11.0734 14.9298 11.0734 15.0298C11.1734 14.8298 11.3734 14.9298 11.5734 14.8298V14.9298C11.5734 14.9298 11.5734 14.9298 11.5734 14.8298C11.6734 15.0298 11.7734 14.9298 11.8734 15.0298C11.7734 15.0298 11.6734 15.1298 11.6734 15.0298C11.5734 15.2298 11.8734 15.1298 11.9734 15.1298C11.8734 15.0298 11.9734 15.0298 12.0734 15.0298C12.0734 15.0298 12.0734 15.0298 12.0734 15.1298C12.2734 15.2298 12.2734 14.8298 12.4734 15.1298V14.9298L12.6734 15.0298C12.5734 14.7298 12.8734 15.0298 12.8734 14.7298C13.0734 14.7298 12.8734 14.9298 12.9734 14.9298C13.1734 15.0298 13.3734 14.7298 13.4734 14.8298C13.5734 14.7298 13.7734 14.8298 13.8734 14.7298V14.8298C13.9734 14.8298 13.9734 14.7298 14.0734 14.7298C14.0734 14.7298 14.0734 14.7298 14.0734 14.8298C14.2734 14.7298 14.4734 14.7298 14.6734 14.7298C14.6734 14.8298 14.6734 14.9298 14.5734 14.9298C14.7734 15.0298 15.0734 14.7298 15.3734 14.8298V14.9298L15.4734 14.8298C15.4734 14.8298 15.4734 14.9298 15.4734 15.0298C15.7734 15.0298 16.0734 15.1298 16.1734 14.8298C16.0734 14.9298 16.3734 15.0298 16.1734 15.1298C16.4734 14.9298 16.7734 15.0298 17.0734 15.0298L17.1734 14.9298H17.0734C17.1734 14.9298 17.2734 14.8298 17.3734 14.8298C17.3734 14.9298 17.4734 15.0298 17.5734 15.0298C17.5734 14.8298 17.9734 15.2298 18.0734 15.0298C18.0734 15.0298 17.9734 15.0298 18.0734 15.1298C18.4734 15.1298 18.9734 14.9298 19.4734 15.1298C19.4734 14.8298 19.8734 14.9298 20.0734 14.7298C20.1734 14.9298 19.9734 14.8298 19.8734 14.9298C19.9734 14.9298 19.9734 15.1298 20.1734 15.0298V15.1298C20.2734 15.1298 20.0734 14.9298 20.3734 14.9298V15.0298L20.4734 14.8298C20.9734 14.9298 21.2734 14.8298 21.7734 15.0298C21.7734 15.0298 21.7734 14.9298 21.6734 14.9298C21.8734 14.9298 21.9734 14.7298 22.2734 14.9298V15.0298C22.6734 15.1298 22.5734 14.9298 22.9734 14.8298C22.8734 14.8298 22.6734 14.9298 22.6734 14.7298C22.6734 14.6298 22.8734 14.6298 22.9734 14.7298L22.8734 14.5298C22.8734 14.6298 22.6734 14.6298 22.5734 14.6298V14.5298C22.4734 14.6298 22.3734 14.5298 22.1734 14.6298H22.3734C22.3734 14.8298 22.0734 14.6298 21.9734 14.6298C21.9734 14.4298 22.0734 14.5298 21.8734 14.3298C21.5734 14.2298 21.6734 14.5298 21.4734 14.6298L21.5734 14.7298C21.4734 14.7298 21.4734 14.9298 21.2734 14.8298C21.2734 14.7298 21.3734 14.7298 21.3734 14.6298C21.3734 14.5298 21.2734 14.8298 21.0734 14.7298C21.1734 14.5298 21.3734 14.5298 21.5734 14.5298C21.5734 14.4298 21.5734 14.4298 21.5734 14.3298C21.0734 14.5298 20.5734 14.5298 20.0734 14.4298C20.2734 14.2298 19.9734 14.4298 19.9734 14.2298C19.9734 14.4298 19.7734 14.2298 19.6734 14.3298C19.5734 14.1298 19.8734 14.2298 19.7734 14.1298C19.5734 14.1298 19.2734 14.4298 18.8734 14.3298C18.8734 14.2298 18.9734 14.2298 18.9734 14.2298C18.7734 14.2298 18.5734 14.6298 18.3734 14.3298C18.4734 14.2298 18.5734 14.1298 18.6734 14.0298C18.5734 14.0298 18.5734 14.0298 18.5734 13.9298L18.6734 13.8298C18.3734 13.7298 18.5734 14.1298 18.3734 14.2298L18.1734 14.0298C17.8734 13.9298 17.5734 13.9298 17.4734 14.2298C17.3734 14.2298 17.1734 14.2298 17.2734 14.0298C17.3734 13.8298 17.3734 13.6298 17.6734 13.7298C17.7734 13.9298 17.4734 13.9298 17.5734 13.9298C17.6734 13.9298 17.9734 14.0298 17.9734 13.9298H17.6734C17.6734 13.7298 17.7734 13.9298 17.8734 13.8298C17.7734 13.6298 17.5734 13.8298 17.4734 13.7298C17.2734 13.7298 17.2734 13.7298 16.9734 13.8298C16.9734 14.0298 17.0734 13.9298 17.2734 14.0298C16.8734 14.0298 16.3734 14.3298 15.8734 14.0298L16.0734 13.8298C15.8734 13.8298 15.6734 13.9298 15.6734 13.7298C15.8734 13.8298 15.7734 13.6298 15.8734 13.6298C15.8734 13.6298 15.9734 13.6298 15.8734 13.5298C15.7734 13.6298 15.5734 13.7298 15.4734 13.8298C15.5734 13.7298 15.3734 13.7298 15.3734 13.6298C15.2734 13.6298 15.3734 13.7298 15.3734 13.8298C15.2734 13.8298 15.1734 13.9298 15.0734 13.8298C14.9734 13.7298 15.1734 13.7298 15.1734 13.6298L14.7734 13.8298C14.7734 13.8298 14.6734 13.9298 14.6734 13.8298C14.5734 13.7298 14.6734 13.7298 14.7734 13.7298C14.4734 13.5298 14.4734 14.0298 14.1734 13.7298L14.0734 13.8298V13.7298L13.9734 13.8298C13.7734 13.9298 13.8734 13.6298 13.7734 13.5298C13.6734 13.5298 13.6734 13.4298 13.6734 13.4298L13.4734 13.5298C13.3734 13.7298 13.0734 13.7298 13.1734 14.0298C13.0734 14.0298 13.0734 13.9298 13.0734 13.9298C12.8734 13.9298 13.0734 13.7298 12.7734 13.7298C12.7734 13.6298 12.7734 13.7298 12.8734 13.6298C12.7734 13.6298 12.7734 13.6298 12.7734 13.6298V13.5298C12.7734 13.6298 12.6734 13.6298 12.5734 13.6298L12.6734 13.4298C12.5734 13.5298 12.5734 13.5298 12.4734 13.5298L12.5734 13.4298C12.3734 13.4298 12.5734 13.7298 12.3734 13.5298L12.5734 13.6298C12.3734 13.6298 12.4734 13.9298 12.3734 14.0298C12.1734 14.2298 11.7734 13.8298 11.6734 14.2298C11.5734 14.1298 11.6734 14.0298 11.5734 13.9298C11.6734 13.9298 11.8734 13.8298 11.8734 13.6298C12.1734 13.4298 12.0734 14.1298 12.3734 13.8298C12.2734 13.6298 12.1734 13.6298 12.1734 13.7298C12.1734 13.6298 12.2734 13.5298 12.2734 13.4298C12.0734 13.5298 11.7734 13.3298 11.6734 13.3298C11.6734 13.4298 11.4734 13.5298 11.3734 13.4298C11.3734 13.5298 11.0734 13.6298 11.2734 13.8298C11.0734 13.8298 11.0734 13.5298 10.8734 13.7298C10.8734 13.5298 10.6734 13.6298 10.7734 13.4298C10.8734 13.6298 11.0734 13.3298 11.1734 13.2298L10.8734 13.1298C10.9734 13.2298 10.8734 13.3298 10.8734 13.3298L10.7734 13.1298C10.7734 13.5298 10.1734 12.8298 10.0734 13.2298C10.1734 13.2298 10.2734 13.3298 10.2734 13.1298C10.4734 13.2298 10.2734 13.4298 10.3734 13.5298C10.0734 13.6298 9.67344 13.4298 9.37344 13.6298C9.37344 13.5298 9.57344 13.5298 9.57344 13.4298C9.27344 13.3298 9.07344 13.6298 8.87344 13.8298V13.6298C8.67344 13.8298 8.77344 13.5298 8.57344 13.6298C8.57344 13.6298 8.67344 13.7298 8.57344 13.7298C8.37344 13.7298 8.47344 13.5298 8.37344 13.5298C8.17344 13.8298 8.17344 13.3298 7.97344 13.4298V13.3298C7.77344 13.4298 7.37344 13.1298 7.07344 13.1298C7.07344 13.1298 7.27344 13.1298 7.27344 13.3298H6.97344C6.97344 13.3298 6.77344 13.2298 6.87344 13.1298H6.97344L6.87344 13.0298C6.57344 13.1298 6.97344 13.3298 6.97344 13.5298C6.77344 13.4298 6.77344 13.6298 6.67344 13.6298C6.57344 13.4298 6.87344 13.4298 6.67344 13.2298C6.57344 13.1298 6.27344 13.2298 6.17344 13.4298C5.77344 13.2298 5.37344 13.5298 5.27344 13.2298C5.27344 13.2298 5.27344 13.3298 5.17344 13.3298V13.2298C4.87344 13.1298 4.97344 13.5298 4.87344 13.4298C4.87344 13.3298 4.87344 13.3298 4.87344 13.3298C4.57344 13.2298 4.47344 13.7298 4.17344 13.5298V13.4298H4.07344L4.27344 13.5298C4.17344 13.9298 3.77344 13.3298 3.57344 13.4298C3.57344 13.3298 3.77344 13.3298 3.67344 13.2298C3.47344 13.2298 3.57344 13.6298 3.37344 13.4298C3.47344 13.4298 3.37344 13.2298 3.47344 13.1298C3.37344 13.1298 3.27344 13.0298 3.17344 13.1298L3.07344 13.0298C2.97344 13.1298 2.87344 13.0298 2.77344 13.0298V12.9298C2.67344 13.3298 2.47344 12.9298 2.27344 12.9298V12.8298C2.17344 12.8298 2.07344 13.0298 1.87344 12.8298V12.7298C1.77344 12.8298 1.47344 12.6298 1.47344 12.8298C1.37344 12.8298 1.57344 12.6298 1.37344 12.6298C1.37344 12.7298 1.27344 12.7298 1.17344 12.7298C1.17344 12.7298 1.17344 12.7298 1.07344 12.7298C1.07344 12.6298 1.07344 12.6298 1.17344 12.6298C1.17344 12.6298 1.17344 12.6298 1.17344 12.7298V12.6298C0.973437 12.5298 1.07344 12.7298 0.873438 12.6298C0.873438 12.5298 0.873438 12.5298 0.873438 12.4298L0.273438 12.6298C0.273438 12.7298 0.373438 12.7298 0.373438 12.9298H0.573438C0.673438 13.1298 0.473438 13.1298 0.473438 13.1298H0.573438H0.673438C0.673438 13.5298 1.27344 13.5298 1.07344 13.7298C1.17344 13.7298 1.17344 13.6298 1.27344 13.5298C1.27344 13.5298 1.27344 13.6298 1.37344 13.6298L1.17344 13.7298C1.47344 13.7298 1.17344 13.9298 1.47344 14.0298C1.67344 13.9298 1.97344 14.4298 2.17344 14.4298C2.47344 14.4298 1.97344 14.2298 2.17344 14.1298C2.27344 14.1298 2.27344 14.2298 2.37344 14.2298V14.0298C2.57344 14.0298 2.47344 14.2298 2.47344 14.1298C2.67344 14.2298 2.47344 14.2298 2.47344 14.3298C2.47344 14.3298 2.67344 14.2298 2.67344 14.3298C2.67344 14.4298 2.47344 14.4298 2.67344 14.4298C3.07344 14.3298 3.27344 14.5298 3.67344 14.5298V14.6298C3.67344 14.6298 3.77344 14.5298 3.77344 14.6298V14.7298C3.97344 14.6298 4.27344 14.6298 4.47344 14.6298L4.27344 14.8298L4.47344 14.7298V14.9298C4.47344 14.7298 4.77344 14.8298 4.97344 14.8298V14.9298L5.07344 14.8298V14.9298C5.17344 14.9298 5.27344 14.7298 5.47344 14.8298C5.47344 14.7298 5.47344 14.9298 5.57344 15.0298ZM10.9734 14.8298C10.7734 14.7298 10.8734 14.8298 10.9734 14.8298V14.8298ZM19.5734 14.9298H19.3734C19.4734 15.0298 19.5734 14.9298 19.5734 14.9298C19.5734 15.0298 19.5734 15.0298 19.5734 14.9298ZM7.77344 14.6298C7.77344 14.4298 7.87344 14.6298 7.97344 14.5298C7.87344 14.6298 7.87344 14.8298 7.77344 14.6298ZM10.5734 14.6298C10.5734 14.7298 10.4734 14.7298 10.3734 14.8298C10.2734 14.8298 10.3734 14.7298 10.3734 14.6298H10.2734C10.2734 14.4298 10.4734 14.7298 10.5734 14.6298ZM14.1734 14.7298C14.2734 14.7298 14.3734 14.6298 14.3734 14.6298V14.5298C14.2734 14.5298 14.0734 14.5298 14.0734 14.6298C14.0734 14.5298 14.0734 14.8298 14.1734 14.7298ZM8.97344 14.3298C9.07344 14.3298 9.07344 14.0298 9.27344 14.1298L9.17344 14.2298V14.3298C9.17344 14.1298 9.07344 14.3298 8.97344 14.3298ZM15.3734 14.6298C15.4734 14.6298 15.5734 14.5298 15.5734 14.4298C15.5734 14.4298 15.5734 14.4298 15.5734 14.3298C15.5734 14.4298 15.3734 14.5298 15.3734 14.6298C15.2734 14.6298 15.2734 14.6298 15.3734 14.6298ZM15.1734 14.4298C15.0734 14.4298 15.0734 14.2298 14.9734 14.3298C14.9734 14.4298 15.0734 14.7298 14.8734 14.6298C14.9734 14.4298 14.9734 14.3298 15.0734 14.2298L15.1734 14.4298ZM14.9734 14.7298L14.7734 14.6298C14.8734 14.4298 14.8734 14.6298 14.9734 14.7298C15.0734 14.8298 15.0734 14.8298 14.9734 14.7298ZM16.6734 14.8298C16.6734 14.9298 16.6734 14.9298 16.5734 14.9298L16.6734 14.8298C16.5734 14.8298 16.4734 14.7298 16.6734 14.8298ZM15.1734 14.7298H15.3734C15.3734 14.7298 15.1734 14.6298 15.1734 14.7298ZM16.1734 14.6298C16.2734 14.6298 16.3734 14.6298 16.4734 14.6298C16.4734 14.7298 16.2734 14.7298 16.1734 14.6298ZM21.0734 14.8298L20.9734 14.7298H21.0734V14.8298ZM17.9734 14.3298C18.2734 14.5298 18.4734 14.5298 18.6734 14.5298C18.7734 14.6298 18.5734 14.7298 18.5734 14.8298C18.5734 14.3298 18.3734 14.8298 18.1734 14.6298C18.1734 14.6298 18.2734 14.6298 18.2734 14.5298C18.1734 14.5298 18.1734 14.4298 18.0734 14.5298V14.6298C18.0734 14.6298 18.0734 14.6298 18.0734 14.5298C18.0734 14.4298 18.0734 14.4298 17.9734 14.3298ZM16.0734 14.2298C16.0734 14.2298 16.1734 14.3298 16.0734 14.4298C15.9734 14.3298 15.9734 14.2298 16.0734 14.2298ZM16.0734 14.0298L15.8734 14.2298L15.9734 14.1298L15.7734 14.2298C15.7734 14.1298 15.8734 14.0298 15.9734 14.0298C15.9734 13.9298 16.0734 13.9298 16.0734 14.0298ZM12.9734 14.1298H12.8734C12.9734 14.0298 13.0734 14.0298 13.1734 14.0298C12.9734 13.7298 13.1734 14.1298 12.8734 13.9298C13.1734 13.9298 12.9734 13.7298 12.9734 13.6298C12.9734 13.8298 12.5734 13.7298 12.7734 14.1298C12.7734 14.0298 12.9734 14.4298 12.9734 14.1298ZM6.17344 13.6298C6.17344 13.4298 6.47344 13.6298 6.47344 13.7298C6.47344 13.6298 6.27344 13.6298 6.17344 13.6298ZM4.37344 13.6298C4.47344 13.6298 4.57344 13.4298 4.67344 13.6298L4.47344 13.7298C4.47344 13.6298 4.37344 13.7298 4.37344 13.6298ZM3.07344 13.5298V13.7298H3.17344L3.07344 13.5298ZM3.27344 13.2298C3.27344 13.2298 3.07344 13.2298 3.17344 13.3298L3.27344 13.2298ZM1.97344 13.4298V13.2298H1.87344L1.97344 13.4298ZM2.07344 13.5298V13.4298C2.07344 13.4298 2.17344 13.3298 2.27344 13.4298C2.27344 13.5298 2.17344 13.4298 2.17344 13.5298C2.17344 13.5298 2.27344 13.6298 2.37344 13.5298C2.27344 13.3298 2.27344 13.3298 2.27344 13.2298C2.07344 13.1298 2.07344 13.3298 2.07344 13.4298C2.07344 13.4298 2.07344 13.4298 2.07344 13.5298ZM2.77344 13.6298C2.77344 13.5298 2.77344 13.5298 2.77344 13.6298C2.57344 13.5298 2.47344 13.4298 2.57344 13.2298H2.67344C2.57344 13.2298 2.67344 13.2298 2.67344 13.3298C2.77344 13.4298 2.77344 13.3298 2.87344 13.2298C2.77344 13.3298 2.67344 13.4298 2.77344 13.6298C2.77344 13.5298 2.77344 13.5298 2.77344 13.6298C2.87344 13.5298 2.87344 13.5298 2.87344 13.6298C2.87344 13.6298 2.87344 13.5298 2.77344 13.6298C2.87344 13.6298 2.87344 13.6298 2.77344 13.6298ZM1.97344 13.6298V13.7298H1.87344L1.97344 13.6298ZM5.77344 13.7298C5.77344 13.7298 5.97344 13.7298 5.97344 13.6298L6.07344 13.8298C5.97344 13.8298 5.87344 13.9298 5.97344 13.9298C5.77344 13.8298 5.77344 13.9298 5.77344 13.7298ZM10.7734 13.9298C10.7734 14.0298 10.4734 13.8298 10.4734 14.0298C10.3734 13.8298 10.6734 13.9298 10.7734 13.9298ZM10.8734 14.2298C10.9734 14.1298 10.9734 14.0298 11.0734 14.1298H10.9734C11.0734 14.2298 11.0734 14.2298 10.8734 14.2298ZM8.07344 14.2298H8.17344L8.27344 14.1298L8.07344 14.2298ZM6.77344 14.4298C6.87344 14.3298 6.77344 14.2298 6.77344 14.2298C6.77344 14.2298 6.77344 14.2298 6.87344 14.2298C6.87344 14.2298 6.87344 14.2298 6.77344 14.2298C6.67344 14.2298 6.57344 14.2298 6.57344 14.3298C6.67344 14.2298 6.77344 14.2298 6.77344 14.4298ZM3.97344 14.4298C4.07344 14.4298 4.07344 14.3298 4.17344 14.4298C4.07344 14.4298 3.97344 14.4298 3.97344 14.4298ZM7.47344 14.5298C7.47344 14.4298 7.67344 14.4298 7.57344 14.3298H7.47344C7.57344 14.3298 7.47344 14.1298 7.67344 14.2298H7.57344C7.67344 14.3298 7.47344 14.4298 7.67344 14.4298C7.67344 14.5298 7.57344 14.6298 7.47344 14.5298ZM3.77344 14.6298C3.87344 14.6298 3.77344 14.3298 3.97344 14.5298C3.87344 14.5298 3.97344 14.7298 3.77344 14.6298Z" fill="white"/>
<path d="M5.97344 13.4298C5.97344 13.4298 5.87344 13.4298 5.77344 13.4298C5.87344 13.4298 5.97344 13.5298 5.97344 13.4298ZM22.3734 14.1298C22.4734 13.8298 22.2734 14.0298 22.1734 14.0298C22.2734 14.0298 22.3734 14.2298 22.3734 14.1298ZM21.7734 14.5298C21.7734 14.4298 21.8734 14.4298 21.9734 14.4298C21.8734 14.3298 21.7734 14.3298 21.7734 14.5298ZM22.3734 14.4298C22.2734 14.3298 22.0734 14.3298 21.9734 14.3298C22.0734 14.3298 22.1734 14.4298 22.3734 14.4298ZM19.6734 14.2298C19.7734 14.0298 19.9734 14.1298 19.9734 14.1298C19.4734 13.9298 19.9734 13.8298 20.0734 13.7298C19.7734 13.8298 19.7734 14.0298 19.6734 14.2298ZM18.7734 14.1298C18.5734 14.1298 18.5734 14.3298 18.5734 14.4298C18.7734 14.5298 18.8734 14.3298 19.0734 14.2298C18.8734 14.3298 18.7734 14.3298 18.7734 14.1298ZM17.9734 13.7298C17.9734 13.7298 18.0734 13.7298 18.0734 13.6298H17.7734C17.6734 13.6298 17.8734 13.6298 17.9734 13.7298ZM17.4734 13.9298C17.2734 13.9298 17.2734 13.6298 17.1734 13.7298L17.2734 14.1298L17.4734 13.9298ZM16.6734 13.7298L16.7734 13.3298C16.5734 13.4298 16.6734 13.7298 16.6734 13.7298ZM16.1734 13.5298L16.2734 13.4298L15.8734 13.5298H16.1734ZM8.67344 13.4298C8.67344 13.7298 9.17344 13.6298 9.27344 13.7298C9.17344 13.3298 8.97344 13.8298 8.67344 13.4298ZM6.47344 13.6298L6.87344 13.5298C6.47344 13.4298 6.77344 13.5298 6.47344 13.6298Z" fill="white"/>
</mask>
<g mask="url(#mask0_5_802)">
<path d="M0.773438 12.6298C1.07344 13.0298 1.67344 13.2298 1.97344 13.6298C2.07344 13.7298 2.17344 13.7298 2.37344 13.8298C3.17344 14.1298 3.57344 14.4298 4.17344 14.2298C4.27344 14.2298 4.67344 14.4298 4.77344 14.3298C5.07344 13.9298 5.07344 14.3298 5.37344 14.3298C5.57344 14.3298 5.77344 14.3298 5.97344 14.2298C6.57344 14.1298 7.07344 14.1298 7.67344 14.2298C8.37344 14.4298 8.77344 14.0298 9.17344 14.3298C9.27344 14.4298 9.47344 14.3298 9.57344 14.2298C9.67344 14.2298 9.87344 14.2298 9.87344 14.1298C9.97344 14.1298 10.0734 13.9298 10.1734 13.9298C10.8734 14.1298 11.4734 14.0298 12.2734 14.1298C12.4734 14.1298 12.6734 14.1298 12.8734 14.2298C13.5734 14.3298 13.7734 14.0298 14.5734 14.1298C14.7734 14.1298 15.4734 14.2298 15.6734 14.2298C16.2734 14.1298 16.4734 14.4298 16.9734 14.5298C17.1734 14.5298 17.4734 14.5298 17.6734 14.4298C17.8734 14.3298 21.3734 14.6298 21.5734 14.5298" stroke="#1D1D1B" stroke-width="3" stroke-miterlimit="10" stroke-linejoin="round" stroke-dasharray="20 20"/>
</g>
<mask id="mask1_5_802" style="mask-type:luminance" maskUnits="userSpaceOnUse" x="7" y="7" width="21" height="12">
<path d="M7.77335 18.6296C8.07335 18.6296 8.37335 18.5296 8.57335 18.3296C8.27335 18.3296 7.67335 18.2296 7.77335 18.6296ZM8.37335 17.6296L8.07335 17.8296C8.37335 17.9296 8.27335 17.7296 8.37335 17.6296ZM8.47335 18.0296L8.57335 18.1296L8.67335 17.9296L8.47335 18.0296ZM24.1733 16.2296C24.1733 16.3296 24.1733 16.4296 24.2733 16.4296L24.1733 16.2296ZM24.5733 15.4296L24.6733 15.3296C24.6733 15.3296 24.6733 15.3296 24.5733 15.4296ZM23.4734 16.3296H23.5733C23.5733 16.3296 23.5734 16.3296 23.4734 16.3296ZM15.6734 17.5296C15.5734 17.6296 15.5734 17.7296 15.4734 17.8296C15.7734 17.9296 15.6734 17.6296 15.6734 17.5296ZM25.9734 15.7296V15.6296C25.8734 15.6296 25.8734 15.7296 25.9734 15.7296ZM23.9734 13.5296C23.9734 13.6296 23.9733 13.6296 24.0733 13.6296L23.9734 13.5296ZM24.9734 15.6296C24.8734 15.7296 24.8734 15.7296 24.8734 15.8296C24.8734 15.8296 24.9734 15.7296 24.9734 15.6296ZM24.7733 15.3296C24.6733 15.3296 24.6733 15.3296 24.7733 15.3296V15.3296ZM15.6734 17.5296L15.7734 17.4296C15.6734 17.4296 15.6734 17.4296 15.6734 17.5296ZM9.47335 18.4296C9.57335 18.4296 9.57335 18.3296 9.57335 18.2296C9.57335 18.3296 9.47335 18.3296 9.47335 18.4296ZM11.5734 9.72959C11.6734 9.72959 11.6734 9.72959 11.5734 9.72959C11.5734 9.62959 11.6734 9.62959 11.5734 9.72959Z" fill="white"/>
<path d="M15.273 13.9296L15.973 13.7296C15.973 13.8296 16.273 14.0296 16.073 14.1296L16.373 13.9296V14.1296C17.473 14.7296 18.373 13.7296 19.473 14.6296V14.7296L20.073 14.5296C20.173 14.6296 20.273 14.9296 20.473 15.0296C20.373 14.7296 20.873 15.0296 20.973 14.8296C21.173 15.0296 20.973 15.0296 20.973 15.1296C21.573 15.5296 22.073 15.1296 22.773 15.5296C22.373 15.2296 22.073 15.0296 21.573 14.8296C22.073 14.7296 22.173 15.1296 22.773 15.1296L22.473 15.2296C22.773 15.7296 23.373 15.1296 23.473 15.7296C23.773 15.7296 24.073 15.3296 24.473 15.4296L24.373 15.8296L24.773 15.9296V15.6296C24.873 15.6296 24.973 15.7296 24.973 15.8296C25.173 15.5296 25.573 15.8296 25.973 15.6296L26.073 15.8296C26.073 15.8296 26.073 15.7296 26.173 15.7296C26.273 16.0296 26.573 15.9296 26.573 16.2296C26.473 16.2296 26.173 16.3296 26.173 16.2296C25.873 16.4296 26.573 16.4296 26.773 16.5296C26.573 16.3296 26.773 16.3296 26.973 16.3296V16.4296C26.973 16.4296 27.073 16.4296 27.073 16.5296L26.173 12.7296C25.973 12.8296 26.073 13.3296 25.673 12.9296L25.773 13.2296L25.473 13.1296C25.673 13.7296 25.173 13.2296 25.273 13.8296C24.973 13.9296 25.173 13.5296 25.073 13.6296C24.773 13.6296 24.473 14.2296 24.273 13.9296C24.073 14.2296 23.773 14.1296 23.673 14.3296L23.573 14.1296C23.473 14.2296 23.373 14.3296 23.273 14.3296V14.2296C22.973 14.4296 22.673 14.5296 22.273 14.6296C22.273 14.4296 22.173 14.3296 22.373 14.2296C21.973 14.0296 21.673 14.7296 21.173 14.7296V14.6296L20.773 14.5296C20.773 14.4296 20.773 14.3296 20.673 14.2296C20.173 14.3296 19.673 14.4296 19.573 14.9296C19.673 14.8296 19.273 14.7296 19.473 14.4296C19.173 14.8296 18.573 14.9296 18.073 15.1296L17.873 15.3296L17.973 15.2296C17.773 15.3296 17.673 15.4296 17.473 15.6296C17.373 15.5296 17.273 15.3296 17.073 15.3296C17.173 15.6296 16.373 15.2296 16.273 15.5296C16.173 15.4296 16.373 15.4296 16.273 15.3296C15.673 15.5296 14.873 16.1296 14.073 16.0296C14.273 16.6296 13.573 16.6296 13.273 16.9296C13.073 16.6296 13.473 16.7296 13.473 16.4296C13.273 16.5296 13.273 16.0296 12.973 16.3296C12.973 16.2296 12.973 16.2296 13.073 16.2296C12.873 16.2296 13.273 16.6296 12.873 16.6296L12.773 16.4296L12.673 16.8296C11.873 16.8296 11.373 17.1296 10.673 17.0296C10.673 17.1296 10.773 17.2296 10.773 17.2296C10.473 17.2296 10.273 17.7296 9.87305 17.5296L9.97305 17.4296C9.37305 17.3296 9.57305 17.8296 8.97305 18.0296C9.07305 18.0296 9.37305 17.8296 9.47305 18.0296C9.47305 18.2296 9.17305 18.2296 8.97305 18.1296L9.17305 18.4296C9.17305 18.2296 9.47305 18.2296 9.57305 18.0296C9.57305 18.0296 9.57305 18.1296 9.57305 18.2296C9.77305 18.1296 9.87305 18.0296 10.073 17.9296H9.77305C9.77305 17.6296 10.273 17.8296 10.373 17.7296C10.473 18.0296 10.273 18.0296 10.573 18.2296C11.173 18.2296 10.773 17.8296 11.173 17.5296L11.073 17.4296C11.173 17.3296 11.273 17.0296 11.573 17.2296C11.673 17.4296 11.473 17.4296 11.373 17.6296C11.473 17.7296 11.573 17.2296 11.773 17.4296C11.673 17.7296 11.473 17.9296 11.073 17.9296C11.173 18.0296 11.173 18.1296 11.173 18.2296C11.873 17.7296 12.573 17.4296 13.373 17.3296C13.073 17.8296 13.573 17.3296 13.573 17.7296C13.573 17.4296 13.873 17.6296 14.073 17.5296C14.273 17.8296 13.773 17.8296 13.973 18.0296C14.373 17.8296 14.673 17.2296 15.273 17.2296C15.273 17.3296 15.173 17.4296 15.173 17.4296C15.473 17.2296 15.673 16.4296 16.073 16.9296C15.973 17.1296 15.873 17.3296 15.773 17.5296C15.773 17.5296 15.873 17.5296 15.973 17.6296V17.8296C16.373 17.8296 16.073 17.3296 16.273 16.9296L16.673 17.2296C17.173 17.3296 17.573 17.0296 17.673 16.5296C17.773 16.5296 18.073 16.4296 18.073 16.7296C17.973 17.1296 17.973 17.4296 17.473 17.5296C17.273 17.2296 17.673 17.1296 17.573 17.1296C17.373 17.2296 16.973 17.1296 16.873 17.3296L17.373 17.2296C17.473 17.6296 17.173 17.3296 17.173 17.5296C17.473 17.8296 17.573 17.4296 17.873 17.5296C18.273 17.3296 18.173 17.4296 18.573 17.2296C18.473 16.8296 18.373 17.0296 18.073 16.9296C18.673 16.7296 19.273 15.9296 20.173 16.3296L19.873 16.7296C20.173 16.7296 20.473 16.3296 20.573 16.7296C20.273 16.6296 20.473 16.9296 20.373 17.0296C20.373 17.0296 20.273 17.1296 20.373 17.2296C20.573 16.9296 20.773 16.7296 20.973 16.5296C20.873 16.6296 21.173 16.7296 21.273 16.8296C21.473 16.7296 21.173 16.6296 21.173 16.5296C21.273 16.5296 21.373 16.1296 21.573 16.4296C21.773 16.6296 21.473 16.7296 21.473 16.9296L21.973 16.4296V16.5296C21.973 16.4296 22.073 16.3296 22.173 16.4296C22.273 16.5296 22.173 16.6296 22.073 16.6296C22.573 16.8296 22.473 15.9296 22.973 16.3296L23.073 16.1296L23.173 16.2296L23.273 16.0296C23.573 15.8296 23.473 16.3296 23.673 16.4296C23.773 16.4296 23.973 16.6296 23.873 16.6296L24.173 16.3296C24.173 16.0296 24.773 15.8296 24.473 15.2296C24.573 15.2296 24.673 15.3296 24.673 15.4296C24.973 15.3296 24.773 15.8296 25.173 15.6296C25.173 15.7296 25.173 15.7296 25.073 15.7296C25.173 15.7296 25.273 15.6296 25.273 15.6296C25.273 15.7296 25.373 15.7296 25.373 15.8296C25.273 15.6296 25.473 15.6296 25.573 15.6296V16.0296C25.573 15.9296 25.673 15.7296 25.873 15.7296C25.873 15.7296 25.873 15.7296 25.973 15.7296V16.0296C26.273 15.8296 25.773 15.5296 26.273 15.6296L25.773 15.5296C26.173 15.3296 25.873 14.9296 25.973 14.7296C26.173 14.4296 26.473 14.5296 26.773 14.4296V14.3296C26.573 14.3296 26.373 14.4296 26.373 14.5296C26.273 14.3296 26.373 14.2296 26.173 14.0296C26.373 14.0296 26.673 13.9296 26.673 13.6296L27.073 15.0296C26.673 15.4296 26.573 14.2296 26.273 14.8296C26.373 15.1296 26.573 15.0296 26.673 14.9296C26.773 15.1296 26.673 15.3296 26.573 15.5296C26.773 15.4296 26.973 15.4296 27.173 15.4296L26.573 13.2296C26.473 13.1296 26.273 13.1296 26.173 13.0296C26.073 13.1296 25.773 13.2296 25.673 13.1296C25.673 13.3296 25.173 13.3296 25.373 13.7296C24.973 13.7296 25.073 13.1296 24.773 13.5296C24.873 13.2296 24.473 13.2296 24.673 13.0296C24.873 13.3296 25.173 12.9296 25.373 12.8296L24.773 12.5296C24.873 12.6296 24.773 12.8296 24.673 12.8296L24.573 12.5296C24.573 13.1296 23.573 11.8296 23.373 12.5296C23.573 12.5296 23.673 12.8296 23.773 12.4296C24.073 12.7296 23.773 12.9296 23.873 13.1296C23.373 13.2296 22.573 12.7296 22.073 13.0296C22.173 12.8296 22.373 12.9296 22.373 12.6296C21.973 12.4296 21.473 12.9296 21.073 13.0296L21.173 12.7296C20.773 12.9296 20.973 12.5296 20.573 12.6296C20.573 12.6296 20.673 12.8296 20.573 12.8296C20.273 12.7296 20.473 12.5296 20.273 12.4296C19.873 12.8296 20.073 12.0296 19.473 12.2296V12.1296C19.073 12.2296 18.473 11.6296 17.973 11.5296C17.973 11.6296 18.373 11.6296 18.373 11.9296H17.773C17.773 11.8296 17.473 11.7296 17.573 11.6296C17.673 11.6296 17.773 11.7296 17.773 11.7296L17.673 11.5296C17.173 11.6296 17.773 12.0296 17.773 12.3296C17.473 12.1296 17.373 12.4296 17.173 12.4296C17.073 12.1296 17.473 12.1296 17.273 11.8296C17.073 11.6296 16.573 11.7296 16.373 12.0296C16.073 11.2296 15.273 11.6296 15.173 11.0296C15.173 11.0296 15.073 11.2296 14.973 11.1296L15.073 11.0296C14.673 10.7296 14.673 11.4296 14.473 11.2296C14.473 11.1296 14.573 11.1296 14.573 11.0296C14.073 10.7296 13.773 11.5296 13.273 11.0296C13.273 10.9296 13.273 10.9296 13.373 10.9296C13.373 10.8296 13.273 10.8296 13.173 10.9296L13.373 11.2296C13.273 11.5296 12.773 10.5296 12.273 10.5296C12.273 10.4296 12.673 10.5296 12.473 10.3296C12.173 10.2296 12.173 10.9296 11.873 10.5296C12.073 10.5296 11.973 10.1296 12.173 10.1296C11.973 10.0296 11.773 9.82959 11.773 10.0296C11.673 9.92959 11.673 9.92959 11.673 9.82959C11.473 9.92959 11.273 9.62959 11.073 9.52959V9.42959C10.773 9.92959 10.573 9.32959 10.273 9.22959L10.373 9.02959C10.173 9.12959 9.87305 9.02959 9.77305 8.82959L9.87305 8.62959C9.67305 8.72959 9.37305 8.22959 9.17305 8.52959C9.07305 8.42959 9.37305 8.22959 9.07305 8.02959C8.97305 8.12959 8.77305 8.12959 8.67305 8.02959C8.67305 8.02959 8.67305 7.92959 8.57305 7.92959C8.57305 7.82959 8.67305 7.72959 8.67305 7.82959C8.77305 7.82959 8.67305 7.82959 8.67305 7.92959L8.77305 7.82959C8.67305 7.62959 8.67305 7.92959 8.37305 7.72959C8.37305 7.52959 8.47305 7.52959 8.57305 7.42959C8.57305 7.42959 8.27305 7.42959 8.07305 7.32959H7.57305C7.57305 7.42959 7.67305 7.62959 7.47305 7.72959L7.77305 7.92959C7.87305 8.22959 7.57305 8.12959 7.37305 8.12959L7.57305 8.22959V8.32959L7.77305 8.42959C7.27305 8.52959 8.27305 9.12959 7.67305 9.12959C7.77305 9.12959 7.97305 9.12959 8.07305 9.02959C8.37305 9.02959 8.27305 9.22959 8.37305 9.32959H7.97305C8.57305 9.62959 7.87305 9.62959 8.27305 10.0296C8.77305 10.1296 8.97305 10.9296 9.27305 11.1296C9.77305 11.3296 9.07305 10.7296 9.47305 10.7296C9.77305 10.8296 9.57305 10.9296 9.77305 11.1296L9.87305 10.8296C10.173 10.9296 9.87305 11.1296 10.073 11.1296C10.273 11.4296 9.97305 11.2296 9.87305 11.4296C10.073 11.3296 10.273 11.4296 10.373 11.5296C10.373 11.6296 10.073 11.5296 10.273 11.6296C11.073 11.7296 11.273 12.2296 11.973 12.4296L11.873 12.5296C11.973 12.5296 11.973 12.4296 12.073 12.5296V12.6296C12.473 12.6296 12.973 12.7296 13.373 12.8296L13.173 12.9296L13.573 12.8296V13.1296C13.673 12.8296 14.173 13.2296 14.573 13.2296V13.4296L14.773 13.3296L14.673 13.5296C14.873 13.5296 15.173 13.3296 15.473 13.5296C15.273 13.4296 15.273 13.7296 15.273 13.9296ZM24.873 15.4296H24.973C24.973 15.5296 24.873 15.5296 24.873 15.4296H24.673C24.673 15.2296 24.773 15.4296 24.873 15.4296ZM14.573 16.2296L14.773 16.1296C14.673 16.1296 14.573 16.2296 14.573 16.1296C14.573 16.1296 14.473 16.1296 14.573 16.2296ZM24.273 13.4296L24.373 13.3296L24.473 13.5296L24.273 13.4296ZM19.373 14.1296C19.473 13.8296 19.573 14.2296 19.773 14.1296C19.673 14.1296 19.573 14.4296 19.373 14.1296ZM24.273 14.9296C24.273 15.1296 23.973 15.1296 23.973 15.2296C23.873 15.1296 23.973 15.0296 24.073 14.9296C23.973 14.9296 23.973 14.9296 23.873 14.9296C23.873 14.5296 24.073 15.1296 24.273 14.9296ZM23.973 14.0296L24.073 13.8296H23.973V14.0296ZM22.973 14.1296C22.773 14.2296 22.673 14.3296 22.773 14.5296C22.773 14.5296 22.773 14.6296 22.873 14.6296C23.073 14.5296 23.373 14.5296 23.373 14.2296C23.173 14.4296 23.073 13.8296 22.973 14.1296ZM21.573 14.0296C21.673 14.0296 21.873 13.5296 22.273 13.9296L22.073 14.0296H22.173V14.2296C22.073 13.7296 21.673 14.0296 21.573 14.0296ZM21.173 14.9296C20.973 15.0296 20.873 15.3296 20.973 15.5296C20.873 15.3296 21.173 15.0296 21.273 14.8296C21.273 14.9296 21.273 14.9296 21.173 14.9296ZM21.473 15.2296C21.573 15.2296 21.673 15.5296 21.773 15.2296C21.673 15.0296 21.573 14.6296 21.873 14.6296C21.773 15.0296 21.873 15.1296 21.573 15.4296L21.473 15.2296ZM21.673 14.4296L22.073 14.5296C22.073 14.9296 21.873 14.5296 21.673 14.4296H21.573C21.573 14.4296 21.573 14.4296 21.673 14.4296ZM19.173 15.1296L19.273 15.0296C19.273 14.9296 19.273 14.9296 19.373 14.9296L19.273 15.0296C19.273 15.1296 19.473 15.2296 19.173 15.1296ZM21.373 14.5296L21.073 14.6296C21.173 14.7296 21.373 14.7296 21.373 14.5296ZM19.873 15.2296C19.673 15.2296 19.573 15.3296 19.373 15.3296C19.473 15.1296 19.773 15.0296 19.873 15.2296ZM12.273 17.0296L12.473 17.2296L12.273 17.3296V17.0296ZM14.573 16.9296H14.673L14.773 17.0296L14.573 16.9296ZM17.173 16.6296C17.173 16.6296 17.073 16.6296 17.073 16.5296C16.773 16.4296 16.473 16.4296 16.173 16.5296C15.973 16.4296 16.273 16.1296 16.273 16.0296C16.473 16.9296 16.573 15.9296 16.873 16.1296C16.873 16.2296 16.673 16.2296 16.673 16.3296C16.773 16.4296 16.873 16.4296 16.973 16.3296C16.973 16.2296 16.973 16.2296 16.973 16.2296V16.3296C16.973 16.4296 16.973 16.4296 17.073 16.5296L17.173 16.6296ZM20.273 15.9296C20.273 15.8296 20.173 15.8296 20.273 15.6296C20.373 15.7296 20.373 15.8296 20.273 15.9296C20.273 15.9296 20.273 16.0296 20.173 16.0296C20.173 16.0296 20.273 16.0296 20.273 15.9296ZM20.273 16.4296L20.573 16.0296L20.473 16.2296L20.673 16.0296C20.773 16.2296 20.673 16.4296 20.473 16.4296C20.373 16.4296 20.373 16.4296 20.273 16.4296ZM24.973 14.6296H25.173C25.073 14.7296 24.973 14.8296 24.773 14.9296C25.273 15.4296 24.773 14.8296 25.273 14.9296C24.773 15.0296 25.173 15.3296 25.273 15.5296C25.273 15.1296 25.873 15.2296 25.473 14.6296C25.373 14.7296 24.873 14.1296 24.973 14.6296ZM16.873 11.8296C16.973 11.5296 17.373 11.9296 17.373 12.1296C17.273 11.9296 17.073 11.9296 16.873 11.8296ZM13.773 11.0296C13.973 11.1296 14.173 10.8296 14.273 11.2296H13.873C13.773 11.1296 13.673 11.2296 13.773 11.0296ZM11.473 10.2296L11.373 10.5296H11.473V10.2296ZM11.873 10.0296C11.773 10.0296 11.573 10.0296 11.673 10.1296L11.873 10.0296ZM9.57305 9.42959L9.77305 9.12959L9.57305 9.02959V9.42959ZM9.67305 9.62959C9.67305 9.62959 9.77305 9.52959 9.77305 9.42959C9.87305 9.32959 9.97305 9.42959 10.073 9.52959C10.073 9.62959 9.97305 9.52959 9.87305 9.52959C9.97305 9.52959 9.97305 9.72959 10.173 9.72959C10.073 9.52959 10.173 9.52959 10.173 9.32959C9.77305 9.02959 9.77305 9.32959 9.77305 9.52959C9.67305 9.52959 9.67305 9.62959 9.67305 9.62959ZM10.873 10.2296C10.873 10.2296 10.773 10.1296 10.773 10.0296C10.573 9.82959 10.373 9.72959 10.573 9.52959L10.773 9.62959C10.673 9.62959 10.673 9.62959 10.673 9.72959C10.773 9.92959 10.873 9.72959 11.073 9.72959C10.973 9.82959 10.773 9.82959 10.773 10.1296C10.873 10.1296 10.873 10.2296 10.973 10.2296C10.973 10.2296 11.073 10.2296 11.073 10.3296V10.4296C11.073 10.3296 10.973 10.3296 10.973 10.3296C10.973 10.2296 10.973 10.3296 10.873 10.2296ZM9.47305 9.82959C9.47305 9.82959 9.47305 9.92959 9.37305 10.0296H9.27305C9.17305 9.82959 9.37305 9.72959 9.47305 9.82959ZM16.073 11.8296C16.073 11.8296 16.473 11.9296 16.473 11.7296L16.573 12.0296C16.373 11.9296 16.273 12.1296 16.273 12.2296C16.073 12.0296 15.973 12.1296 16.073 11.8296ZM24.873 13.9296C24.773 14.0296 24.373 13.7296 24.273 14.0296C24.073 13.5296 24.673 13.7296 24.873 13.9296ZM25.073 14.3296C25.173 14.2296 25.173 13.9296 25.373 14.2296C25.273 14.3296 25.173 14.1296 25.173 14.2296C25.173 14.4296 25.173 14.4296 25.073 14.3296ZM19.973 13.5296L20.273 13.6296L20.373 13.4296L19.973 13.5296ZM17.673 13.3296H17.873L17.773 13.2296C17.773 13.1296 17.673 13.0296 17.773 13.0296C17.673 13.0296 17.373 12.9296 17.473 13.1296C17.573 13.0296 17.773 13.1296 17.773 13.3296H17.673ZM12.673 12.1296C12.773 12.1296 12.773 12.0296 12.973 12.2296C12.873 12.3296 12.673 12.2296 12.673 12.1296ZM18.873 13.8296C18.873 13.6296 19.173 13.8296 19.073 13.5296H18.873C19.073 13.6296 18.973 13.1296 19.173 13.4296L18.973 13.3296C19.173 13.4296 18.773 13.6296 19.073 13.7296C19.273 13.8296 18.973 13.9296 18.873 13.8296ZM12.273 12.4296C12.473 12.4296 12.373 12.0296 12.673 12.3296C12.473 12.3296 12.473 12.7296 12.273 12.4296Z" fill="white"/>
<path d="M12.2734 10.1298C12.2734 10.1298 12.1734 10.0298 12.0734 10.0298C12.1734 10.1298 12.2734 10.1298 12.2734 10.1298ZM25.6734 13.0298C25.6734 13.0298 25.6734 13.1298 25.7734 13.1298C25.6734 13.1298 25.6734 13.1298 25.6734 13.0298ZM9.77344 18.6298C9.77344 18.9298 9.87344 18.6298 9.97344 18.6298C9.87344 18.6298 9.77344 18.5298 9.77344 18.6298ZM9.77344 18.3298C9.87344 18.3298 9.97344 18.3298 10.1734 18.3298C10.0734 18.3298 9.87344 18.2298 9.77344 18.3298ZM12.1734 17.8298C12.1734 18.0298 11.8734 17.9298 11.8734 17.9298C12.3734 18.0298 11.8734 18.2298 11.8734 18.4298C12.1734 18.3298 12.0734 18.1298 12.1734 17.8298ZM12.7734 17.6298H12.6734C12.6734 17.6298 12.6734 17.6298 12.7734 17.6298ZM12.9734 17.7298C13.0734 17.6298 13.0734 17.4298 13.1734 17.3298C12.9734 17.2298 12.8734 17.5298 12.7734 17.6298C12.8734 17.6298 12.9734 17.5298 12.9734 17.7298ZM18.0734 17.6298C18.0734 17.6298 17.9734 17.6298 17.9734 17.7298L18.2734 17.6298C18.3734 17.6298 18.1734 17.6298 18.0734 17.6298ZM18.8734 16.9298C19.0734 16.8298 19.0734 17.1298 19.1734 17.0298L19.0734 16.7298L18.8734 16.9298ZM20.0734 17.0298V17.4298C20.1734 17.3298 20.0734 17.0298 20.0734 17.0298ZM20.8734 17.1298L20.7734 17.2298L21.0734 17.0298L20.8734 17.1298ZM21.0734 12.4298C21.0734 12.7298 21.4734 12.7298 21.6734 12.8298C21.4734 12.4298 21.2734 12.8298 21.0734 12.4298ZM12.6734 10.4298L13.0734 10.5298C12.7734 10.2298 13.0734 10.4298 12.6734 10.4298Z" fill="white"/>
</mask>
<g mask="url(#mask1_5_802)">
<path d="M8.07305 7.42957C7.97305 7.82957 8.47305 8.62957 8.97305 9.22957C9.17305 9.52957 9.67305 10.0296 10.073 10.2296C10.673 10.6296 11.073 10.7296 11.673 11.1296C12.173 11.4296 12.773 11.8296 13.373 11.7296C13.573 11.7296 14.073 11.9296 14.273 11.9296C14.773 12.0296 14.873 12.1296 15.373 12.2296C15.573 12.2296 15.773 12.2296 15.973 12.3296L17.273 12.8296C18.373 13.0296 18.673 13.3296 19.573 13.4296C19.873 13.4296 20.173 13.5296 20.473 13.6296C20.573 13.6296 20.673 13.7296 20.773 13.7296C20.973 13.8296 21.173 13.7296 21.373 13.7296C22.073 13.6296 22.673 13.6296 23.373 13.7296C23.973 13.8296 25.573 13.3296 26.173 14.2296C27.273 16.0296 23.773 15.0296 22.873 15.3296C22.373 15.5296 21.773 15.7296 21.173 15.9296C19.973 16.3296 21.973 15.6296 17.173 16.4296C16.373 16.5296 16.073 16.4296 15.173 16.8296C14.673 17.0296 14.073 17.1296 13.573 17.1296C13.573 17.2296 13.273 17.1296 13.273 17.1296C13.073 17.1296 13.273 17.4296 13.173 17.4296C12.973 17.4296 12.873 17.4296 12.673 17.4296C10.973 17.4296 9.37305 18.0296 7.87305 18.6296" stroke="#1D1D1B" stroke-width="3" stroke-miterlimit="10" stroke-linejoin="round" stroke-dasharray="42 42"/>
</g>
</svg>
