<svg width="275" height="73" viewBox="0 0 275 73" fill="none" xmlns="http://www.w3.org/2000/svg">
<mask id="mask0_5_711" style="mask-type:luminance" maskUnits="userSpaceOnUse" x="0" y="0" width="274" height="73">
<path d="M208.581 5.3713C208.253 5.14907 208.253 5.51945 208.171 5.51945C208.745 5.74168 208.663 5.29722 208.581 5.3713Z" fill="white"/>
<path d="M257.689 7.88977H257.525L258.427 8.18607L257.689 7.88977Z" fill="white"/>
<path d="M261.788 11.3713C261.788 11.0009 261.461 10.7046 260.969 10.4083C260.477 10.112 260.067 9.81573 259.657 9.37127V9.14905H259.001C259.493 9.51942 260.067 9.8898 260.559 10.2602C261.051 10.5565 261.461 10.9269 261.788 11.3713Z" fill="white"/>
<path d="M262.772 15.1491C262.854 14.9269 263.346 15.4454 262.362 14.6306C262.362 14.7047 262.362 14.7047 262.362 14.7788C262.608 14.8528 262.69 15.001 262.772 15.1491Z" fill="white"/>
<path d="M262.445 13.6675C262.035 13.2971 262.609 14.0378 262.445 13.6675V13.6675Z" fill="white"/>
<path d="M264.248 16.7047L263.92 16.4825C263.756 16.3343 263.592 16.2603 263.592 16.2603C263.592 16.4084 263.92 16.9269 263.756 16.8529C264.248 17.2973 264.248 17.1492 264.248 16.7047Z" fill="white"/>
<path d="M264.986 17.0753L264.658 16.853C264.658 16.853 264.74 17.0012 264.986 17.0753Z" fill="white"/>
<path d="M264.002 16.2603L264.658 16.7788C264.658 16.6306 264.822 16.5566 264.412 16.5566C264.576 16.4825 264.33 16.4084 264.002 16.2603Z" fill="white"/>
<path d="M263.838 15.7417C263.674 15.3714 263.346 14.9269 264.002 15.3714C263.018 14.3343 262.854 14.7788 263.838 15.7417Z" fill="white"/>
<path d="M262.445 11.149L262.117 10.6304L261.625 10.4082C261.871 10.5564 262.281 11.2971 262.445 11.149Z" fill="white"/>
<path d="M266.462 20.7047C266.626 20.7047 266.626 20.3343 266.708 20.2603L266.298 19.8899C266.462 20.1121 266.626 20.6306 266.462 20.7047Z" fill="white"/>
<path d="M266.789 20.2605L267.363 20.8531C267.035 20.2605 266.871 20.1864 266.789 20.2605Z" fill="white"/>
<path d="M265.56 16.7788L264.412 15.964L265.724 17.001L265.56 16.7788Z" fill="white"/>
<path d="M267.937 23.5197L267.527 23.2234L268.265 23.7419L267.937 23.5197Z" fill="white"/>
<path d="M268.758 25.4454C268.43 25.2232 268.512 25.9639 268.266 25.7417C268.512 26.1862 268.84 26.5565 269.167 26.8528C268.922 26.4084 268.758 25.9639 268.758 25.4454Z" fill="white"/>
<path d="M267.937 22.1863C267.855 22.4085 267.855 22.6307 267.937 22.853L268.101 22.4826L267.937 22.1863Z" fill="white"/>
<path d="M268.102 22.4824C268.184 22.7046 268.266 22.8528 268.348 23.075C268.348 23.0009 268.266 22.7787 268.102 22.4824Z" fill="white"/>
<path d="M266.544 18.853C266.954 19.1493 267.692 19.8901 267.446 18.9271C267.036 18.779 267.2 19.2975 266.544 18.853Z" fill="white"/>
<path d="M268.101 21.5196L267.937 21.1492C267.855 20.927 267.773 20.7788 267.773 20.7788C267.691 20.8529 267.691 21.001 267.445 20.8529C267.445 20.8529 267.609 21.001 267.773 21.2233L268.101 21.5196Z" fill="white"/>
<path d="M268.429 21.8901L268.102 21.5938L268.266 21.8901H268.429Z" fill="white"/>
<path d="M269.495 26.0383C269.741 26.3346 269.987 26.705 270.069 27.0754C269.987 26.6309 269.905 26.1865 269.659 25.742C269.495 25.668 269.249 25.5939 269.495 26.0383Z" fill="white"/>
<path d="M271.135 31.5939L271.217 31.5198H271.135V31.5939Z" fill="white"/>
<path d="M269.659 25.5197C269.577 25.2234 269.495 25.0012 269.249 24.853C269.413 25.0753 269.495 25.3716 269.659 25.5938C269.659 25.6679 269.741 25.6679 269.659 25.5197Z" fill="white"/>
<path d="M270.151 28.7049C270.151 28.4827 270.151 28.2605 270.151 28.1123C270.069 28.2605 270.069 28.6308 270.151 28.7049Z" fill="white"/>
<path d="M268.921 24.4824C268.839 24.5565 268.839 24.5565 268.921 24.4824V24.4824Z" fill="white"/>
<path d="M268.921 24.4826C269.003 24.6308 269.167 24.7048 269.331 24.853C269.249 24.7048 269.085 24.4826 269.003 24.3345C268.921 24.4085 268.921 24.4085 268.921 24.4826Z" fill="white"/>
<path d="M273.512 32.7049C273.348 32.7049 273.184 32.4827 273.02 32.1123C272.856 31.7419 272.856 31.2975 272.938 30.9271C272.529 30.1864 271.627 30.853 271.135 31.5938C271.299 31.5938 271.381 31.5938 271.709 32.3346C271.873 32.0382 271.791 30.4827 272.201 31.1493C272.611 32.1864 272.283 32.0382 272.119 32.5568C272.447 32.0382 272.856 33.8901 273.43 33.5938L273.102 32.6308C273.266 32.6308 273.43 32.9272 273.512 32.7049Z" fill="white"/>
<path d="M270.889 29.9641L270.807 29.6678C270.807 30.0382 270.807 30.4827 270.643 30.8531C270.889 31.3716 271.053 31.4457 271.134 31.4457L270.971 30.6308C270.971 30.3345 270.889 30.1123 270.807 29.816L270.889 29.9641Z" fill="white"/>
<path d="M270.397 28.0385C270.807 28.1866 271.135 28.9274 271.381 28.4088C271.053 27.4459 270.889 27.8162 270.561 27.2977C271.135 28.7792 270.233 26.8533 270.397 28.0385C270.315 27.7422 270.151 27.5199 270.069 27.2236C270.151 27.5199 270.151 27.7422 270.151 28.0385V27.9644C270.151 27.8903 270.151 27.8903 270.151 27.9644C270.233 27.9644 270.315 28.0385 270.397 28.0385C270.479 28.4829 270.315 28.1125 270.233 28.0385C270.233 28.0385 270.233 28.0385 270.151 28.0385C270.233 28.2607 270.397 28.4829 270.479 28.7792L270.807 29.52C270.643 29.0014 270.561 28.4829 270.397 28.0385Z" fill="white"/>
<path d="M268.512 19.3716C268.512 19.3716 268.512 19.4457 268.43 19.4457C268.594 19.5197 268.676 19.5197 268.512 19.3716Z" fill="white"/>
<path d="M268.757 20.1122C268.511 20.0381 268.347 19.8159 268.265 19.6678C268.183 19.2974 268.429 19.5937 268.511 19.5196C268.265 19.3715 267.855 18.927 268.101 19.5937L268.183 19.6678C268.429 20.2604 268.511 21.2234 268.347 21.1493C268.593 20.7789 268.757 20.4826 268.757 20.1122Z" fill="white"/>
<path d="M269.905 24.1123C269.905 24.1123 270.069 24.4086 270.233 24.7049C270.397 25.0012 270.561 25.2975 270.561 25.2975V24.5568L270.397 24.6308C270.233 23.8901 270.069 24.1864 269.905 24.1123Z" fill="white"/>
<path d="M270.97 31.8161L270.561 31.668L270.888 31.9643C271.052 32.1124 271.216 32.3346 271.216 32.3346C271.216 32.2606 271.134 32.1124 271.134 32.0383L270.97 31.8161Z" fill="white"/>
<path d="M271.217 33.5939H270.889L271.135 34.0383L271.217 33.5939Z" fill="white"/>
<path d="M6.07891 52.4831L5.75098 52.1868C5.83296 52.3349 5.99693 52.409 6.07891 52.4831Z" fill="white"/>
<path d="M8.12884 55.2239H8.29281C8.12884 55.1498 8.04686 55.1498 8.12884 55.2239Z" fill="white"/>
<path d="M192.348 67.3722C191.692 67.2241 190.872 67.0018 191.036 67.2982L191.282 67.5945C191.61 67.4463 192.02 67.3722 192.348 67.3722Z" fill="white"/>
<path d="M95.2783 68.187L95.3603 68.3352L95.8522 68.187H95.2783Z" fill="white"/>
<path d="M91.0152 69.298L90.2773 68.8535C90.5233 69.0017 90.7692 69.1498 91.0152 69.298Z" fill="white"/>
<path d="M1.24168 34.9272L0.913745 34.4087C0.831761 35.1494 1.07771 34.8531 1.24168 34.9272Z" fill="white"/>
<path d="M267.773 51.6685C267.445 51.9648 267.199 52.2611 266.953 52.6314C267.445 52.187 267.937 51.9648 267.773 51.6685Z" fill="white"/>
<path d="M9.85035 51.5201C9.68638 51.372 9.52241 51.2979 9.44043 51.372C9.68638 51.5201 9.85035 51.5942 9.85035 51.5201Z" fill="white"/>
<path d="M266.134 53.8905C266.216 53.8165 266.298 53.7424 266.38 53.7424C266.544 53.372 266.708 53.0757 266.954 52.7794C266.544 53.0016 266.298 53.4461 266.134 53.8905Z" fill="white"/>
<path d="M154.389 0.630371C154.471 0.630371 154.471 0.630371 154.553 0.704446C154.553 0.630371 154.471 0.630371 154.389 0.630371Z" fill="white"/>
<path d="M209.482 5.51939C209.318 5.51939 208.99 5.44531 208.744 5.44531C208.99 5.51939 209.236 5.51939 209.482 5.51939Z" fill="white"/>
<path d="M270.971 40.8532C270.889 40.7792 270.971 40.4829 270.971 40.8532V40.8532Z" fill="white"/>
<path d="M270.971 40.3347L271.053 40.0384C271.053 39.9644 270.971 40.0384 270.971 40.3347Z" fill="white"/>
<path d="M270.889 41.3718C270.889 41.1496 270.971 41.0014 270.971 40.7792C270.971 40.8533 270.889 40.8533 270.889 40.8533C270.889 41.0014 270.889 41.1496 270.889 41.3718Z" fill="white"/>
<path d="M17.8848 9.59354H17.9668C18.2127 9.22317 18.0487 9.29724 17.8848 9.59354Z" fill="white"/>
<path d="M159.39 72.4093C159.8 72.113 160.373 71.9649 160.947 72.113L160.373 71.2241L159.39 72.4093Z" fill="white"/>
<path d="M5.66921 45.2978C5.66921 45.6682 5.75119 46.0385 5.83318 46.483C4.84936 46.1126 3.94753 45.6682 3.12769 45.1496C2.71777 44.9274 2.47181 44.9274 2.30784 45.52C3.94753 45.4459 5.09532 46.483 6.32508 47.52C7.63683 48.5571 9.19454 49.5201 10.7522 49.3719C10.8342 49.5942 10.9982 49.8904 11.1622 50.1127C10.9162 49.8164 10.7522 49.8164 10.4243 49.5941C10.7522 50.3349 11.6541 50.4831 12.8019 50.6312C14.1136 50.7794 15.3434 51.1497 16.4912 51.7423C17.311 52.3349 17.6389 52.7794 16.5731 52.4831C16.5731 52.4831 17.311 52.7794 18.1308 53.0016L19.7705 53.5201C20.4264 53.8905 19.7705 53.8905 19.1147 53.5201L21.1643 54.335C22.2301 54.7794 23.3778 55.1498 23.3778 55.1498H23.2959C24.2797 55.2979 26.2473 55.6683 27.2311 55.8165C27.969 56.335 26.4113 55.6683 26.4113 55.8905L29.4447 56.5572C29.8546 57.0758 27.1491 56.5572 25.5094 55.9646C25.4275 56.7054 26.0833 56.8535 27.2311 57.0758C28.8708 57.3721 30.5105 57.8906 31.9862 58.6313L29.1987 57.9647C29.5267 58.8536 31.9042 59.3721 34.1178 60.4832C33.7079 60.1128 30.2645 58.0387 33.7899 58.7795C34.9376 59.298 36.2494 59.5943 37.5611 59.7425C36.8233 60.0388 38.545 60.4091 40.6766 60.9277L39.5288 61.298C42.0703 61.7425 42.3982 61.5203 44.1199 61.6684C46.5794 62.3351 46.4155 62.7055 46.4155 63.1499C50.4327 64.187 44.6938 61.9647 49.7768 63.0018C51.3345 63.4462 52.9742 63.7425 54.5319 64.0388C56.2536 64.3351 58.1392 64.4833 60.5168 64.7796C62.8124 65.3722 59.615 65.0018 60.2708 65.224L63.1403 65.2981C63.7142 65.3722 63.3043 65.4463 63.1403 65.5203C65.2719 65.7426 64.0421 65.0759 67.2395 65.5203C68.7972 65.15 72.4045 67.2241 77.0776 67.15C77.8155 67.4463 76.2578 67.3722 76.2578 67.5944C82.0787 67.8907 81.1769 67.9648 86.1779 67.9648L87.8996 68.3352L89.6213 68.7056C87.2437 68.0389 91.2609 68.0389 94.6223 67.9648C93.8025 67.6685 93.1466 67.4463 92.6547 67.2981C92.6547 67.2981 93.9664 67.3722 95.1962 67.4463L97.7377 67.5944C98.2296 67.7426 97.5738 67.8167 96.5899 67.9648C96.9999 67.9648 97.3278 67.9648 97.5737 67.9648C99.1315 68.3352 97.9837 68.4834 96.508 68.6315C96.0161 68.4834 95.5241 68.3352 95.0322 68.187C93.5565 68.3352 92.0808 68.5574 91.9988 68.8537C92.5727 68.8537 93.1466 68.8537 93.8025 68.8537C93.3925 68.9278 93.1466 68.9278 93.2286 69.0019C93.8025 69.076 94.3764 69.0019 94.9502 69.0019L95.6061 69.6686L96.098 69.4463C96.098 69.4463 97.6557 69.6686 99.2954 69.8908C100.935 70.113 102.493 70.3352 102.493 70.3352C107.74 70.1871 112.413 69.6686 120.119 69.8908C117.988 70.1871 119.382 70.5575 118.972 71.0019C117.168 70.4093 112.905 70.8538 108.97 70.4834C111.019 70.7056 110.363 70.8538 109.789 70.9278C109.789 70.9278 111.675 70.9278 113.479 70.9278C115.282 70.9278 117.168 70.9278 117.168 70.9278C116.758 71.2982 118.48 71.2982 120.283 71.5945C119.3 70.7797 125.858 71.3723 128.892 71.2241C128.974 71.5204 128.154 71.7427 124.629 71.5204C128.318 72.2612 130.04 70.8538 133.729 71.4464C133.155 71.3723 132.581 71.3723 132.007 71.5204C134.139 71.3723 138.976 71.6686 137.828 71.8908H136.926C139.796 72.039 144.223 72.113 148.076 72.039C151.847 71.9649 155.045 71.7427 155.455 71.4464C155.537 71.5204 154.717 72.2612 154.389 72.4093L156.029 72.039L159.472 71.2241C160.702 70.9278 161.932 70.6315 162.833 70.4093L164.309 70.0389C163.489 70.6315 167.343 71.8908 162.587 72.3353C164.637 72.4093 166.605 72.4093 168.654 72.1871C167.67 72.113 166.113 71.4464 167.343 71.3723C171.032 71.8908 169.884 71.6686 174.393 72.039C172.917 71.9649 174.147 71.0019 176.361 70.9278C176.115 71.076 176.935 71.8167 176.197 71.9649L178.738 71.3723C180.05 71.076 181.28 70.7797 181.28 70.7797C179.968 71.0019 181.444 71.5204 182.838 71.6686C182.182 71.5204 187.675 71.3723 189.068 71.2241H186.609C192.922 70.9278 191.774 69.5945 197.677 69.076C197.103 69.2982 196.857 70.3352 200.054 70.113C200.546 69.8167 201.612 69.15 203.006 68.4093C204.727 67.5204 206.531 66.8537 208.417 66.4092L209.646 66.5574L211.286 66.187C212.106 65.9648 212.926 65.8166 212.926 65.8166C211.614 66.6315 210.302 67.2981 208.827 67.8907C206.941 68.7056 205.055 69.3723 203.088 69.9649C205.547 69.8908 204.072 70.1871 207.351 69.7426C208.827 69.8167 205.875 70.3352 204.891 70.4093L208.991 70.0389C211.04 69.8908 213.008 69.5945 213.008 69.5945C212.516 69.3723 213.828 69.076 215.139 68.7056C216.451 68.3352 217.763 68.0389 217.353 67.8907C217.353 67.8907 215.549 68.3352 213.582 68.7056L210.958 69.076C210.22 69.2241 209.728 69.2982 209.728 69.2982C209.237 69.076 210.056 68.5574 211.614 68.0389C212.516 67.7426 213.5 67.4463 214.484 67.2241C215.713 66.9278 216.861 66.7055 218.091 66.5574C219.731 66.5574 218.419 67.5204 218.747 67.6685C219.567 67.3722 220.386 67.15 221.288 67.0018C222.19 66.7796 223.01 66.6315 223.912 66.5574L222.108 67.2241C225.387 66.8537 225.797 65.8166 229.897 65.5203C231.126 65.2981 234.488 65.3722 234.16 65.0759C231.208 65.0018 227.683 63.5203 228.011 62.8536L231.618 62.4832C233.422 62.3351 235.308 62.0388 236.209 62.0388C238.833 61.9647 235.8 63.5944 238.095 63.5203C237.849 63.3722 238.505 63.0018 238.751 62.8536C240.145 62.6314 239.161 63.2981 241.456 62.6314C240.719 62.1129 246.212 61.298 241.62 61.9647C243.506 61.224 244.326 61.3721 246.703 60.5573C245.146 60.5573 246.375 59.0758 247.769 58.261C248.261 58.335 248.753 58.4091 249.245 58.335C250.229 57.9647 251.213 57.6684 252.032 57.3721C252.852 57.0758 253.59 56.7794 254.328 56.5572C255.886 56.0387 257.361 55.4461 258.755 54.7053C259.411 54.6313 261.215 53.9646 261.297 54.409C261.379 53.9646 261.707 53.5201 262.117 53.2979C265.068 52.5572 260.395 54.409 263.182 53.9646C262.444 53.7424 264.33 52.4831 264.74 51.6683C263.92 51.7423 263.182 52.0386 262.608 52.5572C262.035 53.0016 261.543 53.5201 261.133 54.0387C260.231 53.8905 259.821 53.372 259.903 52.7794C260.067 51.8905 260.477 51.1497 261.133 50.409C262.526 49.0015 263.182 50.0386 263.182 49.7423C264.904 48.483 264.74 47.8163 264.494 47.2978C264.248 46.7793 264.248 46.2608 265.724 45.2237C267.691 44.483 268.347 45.3719 269.413 45.2978C269.003 46.483 266.954 47.0015 266.298 47.7423L267.855 46.8534C267.773 47.52 267.282 48.1126 266.626 48.4089C267.2 48.1867 267.773 47.8163 268.265 47.446C268.921 46.9274 269.495 46.3348 270.069 45.7422C271.217 44.4089 272.201 42.9274 273.266 41.8903C273.02 41.5199 272.775 40.7792 272.119 41.0755L272.037 41.7422C270.725 42.3348 271.135 40.4088 270.233 41.2236C269.905 40.3347 269.003 39.2977 269.823 38.0384L271.381 37.8162C270.971 37.8162 270.315 38.631 270.725 39.0014C270.233 38.4829 273.02 37.0754 271.053 36.4828L269.987 37.3717C269.577 36.9273 269.085 36.4087 268.593 35.8902C268.101 35.5198 267.773 34.9272 267.855 34.3346C266.462 34.8532 268.101 34.5569 266.462 35.3717C267.445 35.0013 267.609 35.7421 267.609 36.3347C267.609 36.9273 267.527 37.5939 268.675 37.0013C266.626 37.7421 267.691 38.3347 265.724 39.3718C266.216 39.3718 266.79 39.0014 266.298 39.9644C266.462 40.0384 266.544 40.1125 266.626 40.1866C266.708 40.2607 266.708 40.2607 266.626 40.1866C266.872 39.9644 267.2 39.8162 267.527 39.7421C268.593 40.2607 267.855 41.6681 268.265 42.1866C267.691 42.7051 267.855 41.9644 267.118 42.1866L267.527 42.9274C266.38 42.9274 264.904 44.1866 264.986 42.9274L264.658 43.4459C264.576 43.6681 264.412 43.8163 264.248 43.9644C263.264 44.4089 262.526 45.0756 262.117 45.9645C261.379 46.4089 261.953 47.3719 261.625 46.8534C261.625 46.8534 261.543 46.9274 261.461 47.1497C261.379 47.3719 261.215 47.5941 261.051 47.7423L260.313 48.6312H260.067C259.083 49.446 258.181 50.3349 257.197 51.2238C255.64 52.3349 253.918 53.1498 252.032 53.5942C251.623 53.8905 251.295 54.1127 250.803 54.4831C250.065 54.8535 249.245 55.2239 248.425 55.4461H247.277C246.294 55.8905 245.31 56.2609 244.326 56.5572C243.178 56.9276 242.194 57.2239 242.276 57.4461C240.391 57.4461 238.505 58.1128 236.373 58.7795L233.176 59.8165C232.11 60.1128 231.126 60.4091 230.225 60.5573L230.88 60.9277C229.733 61.224 228.585 61.4462 227.519 61.8166C226.453 62.1869 225.224 62.4832 223.83 62.8536L224.568 63.1499C222.928 63.5944 221.288 63.9648 219.567 64.1129L216.287 64.4833C215.139 64.6314 213.992 64.7796 212.926 64.9277C213.664 64.7055 214.402 64.5574 215.139 64.5574C213.664 64.5574 212.188 64.7055 210.712 64.9277C209.319 65.15 208.007 65.3722 206.695 65.6685C204.072 66.2611 201.284 66.6315 198.579 66.7055C197.595 66.9278 196.529 67.0018 195.463 67.0018C195.545 67.0018 195.627 67.0018 195.791 66.9278C195.627 66.9278 195.463 66.9278 195.299 67.0018C194.643 67.0018 193.987 67.0018 193.332 67.0018C193.905 67.0018 194.561 67.0759 194.971 67.0759C193.987 67.15 192.512 67.3722 191.118 67.5204L190.216 67.2241L189.888 67.2981C188.331 67.2981 188.822 67.5945 189.806 67.8167C189.15 67.8907 188.576 68.0389 188.003 68.187C186.363 67.6685 184.149 68.7056 182.1 68.113C180.706 68.4093 179.312 68.5574 177.919 68.7056C176.033 68.9278 174.229 69.15 173.983 69.4463C173.901 69.3723 173.409 69.3723 174.229 69.2982C172.59 69.2241 170.868 69.2982 169.228 69.5204L168.326 69.076C168.326 69.076 167.424 69.2982 166.523 69.4463L164.719 69.8167C162.341 69.5945 161.358 69.4463 163.571 69.0019C158.16 69.6686 159.144 69.2982 154.471 69.8908L154.717 69.5945C152.995 69.5945 150.29 70.0389 149.306 69.7426C147.42 69.4463 142.747 69.3723 137.336 69.2241C131.925 69.076 125.858 68.7797 121.185 68.2611C122.497 69.2982 117.004 67.5944 116.184 68.2611C115.774 68.0389 114.545 67.8167 116.184 67.7426C111.183 67.6685 109.216 66.9278 105.526 67.2241C105.116 67.0018 106.756 67.0018 106.428 66.8537C105.772 66.9278 105.034 66.8537 104.378 66.7796C103.969 66.6315 105.198 66.6315 106.018 66.6315C101.181 66.2611 100.115 66.8537 99.2134 67.4463C97.4098 66.9278 95.4422 66.7796 93.5565 67.0759C92.9006 66.7796 91.7529 66.4092 94.7863 66.7055C93.1466 66.4833 84.9482 65.2981 84.2103 65.7426C83.3085 65.5203 82.4066 65.4463 81.4228 65.4463C77.8155 64.9277 77.4876 64.8537 73.9622 64.3351L74.8641 64.5574C72.6505 64.8537 71.7487 64.2611 68.7972 63.8166L68.9612 63.7425C63.2223 62.261 65.8458 63.4462 60.5168 61.8907L60.2708 62.261C59.287 62.5573 58.1392 62.187 56.7455 61.6684C55.1878 61.0017 53.5481 60.5573 51.8264 60.261L52.6463 60.7054C51.6625 60.6314 50.6787 60.1869 50.0228 59.5202C49.5309 58.9276 48.875 58.4832 48.1371 58.1128C47.8912 57.9647 48.957 58.1869 49.6129 58.261C46.0875 56.7795 47.9732 58.5573 44.4478 57.7424C44.3659 57.3721 46.5794 57.4461 44.5298 56.7795C44.2019 56.5572 42.2343 56.2609 40.1027 55.8905C37.9711 55.5202 35.7575 54.9276 35.0196 54.335C35.1016 54.7053 35.2656 55.0016 33.5439 54.6313C31.2483 53.9646 30.1826 52.1127 26.9852 51.8164C26.9032 51.6683 26.9852 51.5942 27.0671 51.5942C25.2635 51.0757 22.2301 49.7423 20.6724 49.446C21.3282 49.1497 21.0823 48.7793 20.5084 48.3349C19.7705 47.8163 18.9507 47.3719 18.1308 47.0015C16.3272 46.1126 14.8515 45.1496 16.6551 45.0015C16.4912 44.9274 16.4092 44.7793 16.2452 44.7052C16.0812 44.483 15.8353 44.2607 15.5893 43.9644L14.9334 43.2237C14.8515 43.1496 14.6875 43.0014 14.6055 42.8533H15.0154C14.4415 41.4459 13.2938 41.0014 12.3099 40.4829C12.4739 40.1125 12.8838 40.4088 13.1298 40.4088C13.1298 39.8903 13.1298 39.4458 13.1298 39.1495C13.2118 38.8532 13.1298 38.5569 13.0478 38.2606C12.8838 37.9643 12.7199 37.668 12.4739 37.4458C12.228 37.1495 11.982 36.7791 11.5721 36.3347L12.8019 36.1865C12.6379 36.0384 12.7199 35.8161 12.8838 35.4458C13.1298 35.0754 13.5397 34.705 13.8677 34.1865C14.1956 33.742 14.7695 33.2235 15.0974 32.6309C15.2614 32.4087 15.4254 32.1124 15.5073 31.8161C15.6713 31.5938 15.7533 31.2975 15.8353 31.0012C15.9173 31.0012 16.1632 31.0753 16.1632 31.2975C16.3272 30.1123 18.4588 28.779 20.3444 27.7419C22.1481 26.6308 23.6238 25.7419 22.2301 25.0752L22.394 24.853C22.558 24.6308 22.64 24.4826 22.804 24.3345L23.5418 23.5937C20.0985 25.3715 22.312 23.0011 20.3444 23.6678C21.4102 22.927 24.7716 22.0381 23.3778 22.927L22.9679 23.0011C24.2797 23.6678 27.887 20.927 29.1168 21.2974C33.052 19.5196 37.1512 18.0381 41.3324 16.8529C45.8416 15.5195 50.6787 14.4084 55.4338 13.2972L54.368 13.2232L53.1382 12.7787C53.1382 12.7787 53.958 12.5565 54.8599 12.4083L56.5815 12.038C57.7293 11.9639 58.5492 12.112 56.0896 12.6306C57.8933 12.6306 59.615 11.5194 59.533 11.3713C64.78 10.6305 58.7951 12.3343 60.2708 12.038L62.2385 11.5935H61.6646C62.8943 11.075 62.5664 10.7787 65.7638 10.2602C67.8954 10.0379 67.3215 10.4083 68.1413 10.2602C68.2233 10.2602 68.4693 10.2602 69.3711 10.0379C69.3711 10.0379 70.5189 9.81571 71.6667 9.66756L74.0442 9.29718L71.5847 9.22311C73.3064 8.70458 76.0118 8.55643 73.1424 8.40828C75.274 8.48235 79.7831 7.88975 84.2103 7.37122C88.6375 6.8527 92.9006 6.33417 94.0484 6.33417C97.2458 5.66749 100.607 5.29712 103.887 5.14896C102.821 5.14896 101.837 4.70451 105.28 4.48229C104.788 5.59342 111.839 4.48229 114.954 5.07489C112.249 4.70451 124.547 4.48229 120.365 3.96376C123.235 3.88968 120.693 4.33414 122.989 4.48229C129.63 3.81561 138.074 4.26006 146.436 4.03784C146.6 3.88968 145.125 3.66746 146.928 3.44523L151.438 4.11191C153.077 4.03784 152.995 3.29708 156.029 3.81561C155.619 3.66746 154.963 3.51931 156.111 3.44523C164.391 3.81561 172.917 3.88968 181.526 4.11191C189.97 4.26006 198.415 4.77859 206.777 5.81564C204.645 5.44527 206.203 5.51934 207.925 5.59342C206.859 5.44527 208.171 5.22304 208.007 5.07489L214.73 5.96379C216.287 5.51934 222.272 6.40825 223.338 5.96379L221.042 5.88972C224.404 5.51934 217.681 4.33414 218.501 3.66746C214.812 4.11191 210.138 2.18595 204.154 2.85263C203.006 2.6304 205.301 2.70448 204.727 2.48225C202.596 2.70448 200.464 2.70448 198.333 2.40818L198.743 2.3341C189.806 2.0378 186.199 1.51927 176.115 1.00075L176.771 1.37112C175.541 1.29705 174.393 1.22297 173.163 1.00075C170.54 1.51927 179.23 1.22297 176.771 1.7415C174.065 1.1489 161.522 1.66743 159.636 0.852597C156.275 0.852597 160.538 1.29705 157.258 1.22297L156.357 1.00075L155.455 1.29705C153.241 1.22297 152.175 0.926672 152.093 0.704446C152.667 0.704446 153.651 0.630371 154.225 0.630371C151.356 0.33407 146.109 0.704446 145.125 0.630371L148.404 0.778522C139.222 1.00075 127.908 0.926672 119.218 1.88965L119.956 2.0378C113.397 2.70448 114.463 2.11188 107.248 2.70448L107.494 2.6304C105.772 2.92671 104.051 3.14893 102.247 3.29708C103.887 2.92671 98.4756 3.22301 100.689 2.77855C93.8025 3.74153 97.3278 3.29708 93.3106 4.40821L92.0808 4.18599C90.5231 4.70451 88.9654 5.07489 87.3257 5.22304C89.9492 4.63044 84.6202 5.07489 87.4897 4.40821C84.5382 4.48229 81.6688 4.77859 78.7993 5.44527C76.9137 5.88972 74.8641 6.11194 72.8964 5.96379C70.7648 7.07492 79.7011 5.44527 78.1434 5.88972C80.0291 5.88972 76.1758 6.77862 73.8803 7.07492C72.4865 7.149 71.0928 7.22307 69.699 7.149C67.4855 7.149 65.1899 7.29715 63.0583 7.7416C63.6322 7.66753 63.5502 7.59345 64.1241 7.51937C61.7466 7.59345 60.4348 8.3342 57.4014 8.55643C56.8275 9.22311 54.122 9.14903 54.7779 9.74163L59.451 8.6305C58.2212 9.00088 57.2374 9.44533 55.9257 9.88978C54.204 10.4824 52.4003 10.9268 50.5967 11.1491C51.1706 10.7787 51.8264 10.4824 52.4823 10.2602C50.8426 10.4083 50.1868 10.9268 48.5471 11.075C48.1371 10.7787 49.4489 10.4083 51.2525 10.0379C52.9742 9.66756 54.6139 9.22311 56.2536 8.70458C54.286 8.77866 51.4165 10.2602 51.7445 9.37126C51.4165 9.96386 50.1048 10.1861 48.5471 10.4824C47.0713 10.7787 45.2677 11.1491 44.2019 11.8157L43.71 11.5194C43.0541 11.8898 42.3162 12.1861 41.5784 12.4083L42.3162 11.5935C40.4306 12.6306 36.3314 12.7046 34.3638 13.6676C39.5288 12.112 36.4953 13.6676 39.2008 13.2232C34.0358 15.5195 33.298 13.5935 27.0671 16.038C27.723 15.6677 31.0024 15.001 29.9366 15.5936C28.4609 16.038 26.9032 16.4084 25.3455 16.7047C21.4102 18.4084 26.9032 16.7047 25.7554 17.5195C23.2139 17.8158 24.2797 18.4825 23.0499 19.2233L22.0661 19.001C17.311 20.8529 23.0499 19.964 18.7047 21.5937C18.7047 21.4455 18.7047 21.2233 18.7047 21.0752C18.7047 20.8529 18.7867 20.5566 18.7867 20.5566L18.0489 21.0752C17.8029 21.2233 17.5569 21.3715 17.393 21.5937L16.5731 21.1492C15.6713 22.4085 14.6875 22.6307 12.8019 23.6678C13.9496 23.5196 14.5235 24.1122 13.2118 25.0752C11.6541 25.6678 12.6379 24.5567 11.0802 25.9641C10.8342 25.5937 10.2603 25.0752 12.146 24.6308C11.9 24.5567 11.9 24.2604 11.6541 24.1122C9.76843 24.7048 9.11255 25.8901 8.45668 26.4086C8.78462 26.1864 9.03057 26.0382 9.44049 25.8901C9.44049 25.8901 9.19454 26.4086 8.94858 27.0012C8.78462 27.5197 8.70263 28.1123 8.70263 28.1123C7.96477 28.4086 7.88279 28.1123 7.8008 27.816C7.47286 28.2605 7.71882 28.5568 7.22691 29.2234C6.40707 29.0012 5.42325 28.9271 5.91516 28.0382C5.75119 28.4086 5.58722 28.7049 5.42325 29.0753C5.25928 29.5938 5.09532 30.1123 5.09532 30.1123C4.60341 30.1864 3.12769 31.0753 2.96372 30.779C2.30784 31.2975 2.38983 32.0383 2.30784 32.8531C2.38983 33.4457 2.5538 34.2606 1.89792 35.0013C2.14388 35.1495 2.30784 35.3717 2.30784 35.5939C1.81594 37.0013 0.586172 38.3347 2.38983 40.0384L0.996094 41.0755C1.89792 42.4088 2.63578 39.6681 4.19349 41.8903C5.58722 43.3718 3.0457 42.557 2.88174 43.1496C3.53761 43.4459 4.60341 43.8904 5.50524 44.483C5.91516 44.7052 6.2431 45.0756 6.57103 45.4459C6.89897 45.7422 7.06294 46.1126 7.14493 46.483C6.57103 46.1867 6.07913 45.7422 5.66921 45.2978ZM33.7079 58.7795C32.8061 58.6313 30.9204 58.335 30.8384 58.0387C31.8222 57.8906 32.888 58.1869 33.7079 58.7795ZM100.853 69.2241C99.8693 69.2241 98.9675 69.15 97.9837 68.8537C98.9675 68.9278 99.9513 69.0019 100.853 69.2241ZM264.412 45.0756C263.51 45.6682 263.838 45.4459 264.412 45.0756V45.0756ZM265.888 43.8163C265.806 43.6681 265.642 43.6681 265.478 43.7422C265.724 43.8163 265.56 44.1126 265.15 44.483C265.56 44.4089 265.888 44.2607 265.888 43.8163ZM68.3053 10.1861L67.4855 10.2602C68.9612 9.81571 68.6332 10.0379 68.3053 10.1861Z" fill="white"/>
<path d="M92.163 69.15C92.081 69.0759 92.081 69.0018 92.081 68.9277C91.999 68.9277 91.917 69.0018 92.163 69.15Z" fill="white"/>
<path d="M1.32417 35.0013C1.32417 34.9272 1.32417 34.9272 1.24219 34.9272L1.32417 35.0013Z" fill="white"/>
<path d="M262.444 64.0391C262.28 64.1131 262.034 64.1872 261.87 64.2613C261.87 64.2613 262.034 64.2613 262.444 64.0391Z" fill="white"/>
<path d="M271.053 36.9272L271.135 37.668C271.135 37.4458 271.135 37.2235 271.299 37.0013C271.217 37.0013 271.053 37.1495 271.053 36.9272Z" fill="white"/>
<path d="M272.61 29.2976C272.528 29.2235 272.528 29.0754 272.446 28.9272L272.282 29.0013C272.446 29.5199 272.692 29.8161 272.61 29.2976Z" fill="white"/>
<path d="M272.365 36.0384C272.693 35.9643 272.529 35.4458 272.447 34.9272V35.0013C271.955 34.9272 272.201 35.4458 272.365 36.0384Z" fill="white"/>
<path d="M272.446 34.705C272.446 34.5569 272.446 34.3347 272.446 34.1865C272.2 34.1865 272.364 34.4087 272.446 34.705Z" fill="white"/>
<path d="M271.053 42.1866C271.217 41.9644 270.643 41.9644 270.807 41.8162C270.479 41.4459 270.971 43.594 271.053 42.1866Z" fill="white"/>
<path d="M273.43 35.5939L273.021 35.8161L273.348 36.1124L273.43 35.5939Z" fill="white"/>
<path d="M272.938 40.4089C272.938 40.4089 273.02 40.1866 273.02 39.9644L273.102 39.52C273.02 39.52 273.02 39.4459 273.02 39.2977C272.938 39.8163 272.774 40.4089 272.938 40.4089Z" fill="white"/>
<path d="M273.02 39.1496C273.102 38.9273 273.02 38.631 273.02 38.4088C272.938 38.7051 272.938 38.9273 273.02 39.1496Z" fill="white"/>
<path d="M273.513 37.0015L273.431 37.2978V37.9644L273.513 37.0015Z" fill="white"/>
<path d="M269.987 50.6311L269.659 51.5941C269.741 51.7423 269.905 51.52 270.069 51.1497C270.069 50.8534 270.233 50.5571 269.987 50.6311Z" fill="white"/>
<path d="M272.283 47.8906C272.119 48.1129 272.037 48.1129 271.873 48.261L272.365 48.4091L272.283 47.8906Z" fill="white"/>
<path d="M271.216 51.0018C271.298 51.15 270.888 52.4833 271.462 51.2981C271.38 51.15 271.708 50.187 271.216 51.0018Z" fill="white"/>
<path d="M260.149 64.0386L260.395 63.8905L259.903 63.2979L260.149 64.0386Z" fill="white"/>
<path d="M195.546 71.2242C196.939 71.076 195.71 70.7056 197.021 70.6315C197.267 70.4093 195.955 70.7056 196.283 70.4834C195.464 70.8538 194.972 70.8538 195.546 71.2242Z" fill="white"/>
<path d="M196.119 70.4833C196.283 70.4093 196.365 70.3352 196.529 70.2611C196.365 70.3352 196.201 70.4093 196.119 70.4833Z" fill="white"/>
<path d="M223.502 6.4083L224.322 6.70461L223.83 6.33423L223.502 6.4083Z" fill="white"/>
<path d="M257.279 6.18604L257.361 6.70456L257.935 6.40826C257.771 6.33419 257.443 6.33419 257.279 6.18604Z" fill="white"/>
<path d="M12.8836 61.9648L13.0476 61.8907C13.0476 61.7425 12.8836 61.5944 12.5557 61.2981L12.8836 61.9648Z" fill="white"/>
<path d="M5.0957 51.8163L5.17769 52.0385L5.34166 51.52L5.0957 51.8163Z" fill="white"/>
<path d="M0.832031 42.4829C0.914016 42.8533 1.07798 43.2977 1.15997 43.7422C0.832031 42.8533 1.40592 42.2607 0.832031 42.4829Z" fill="white"/>
</mask>
<g mask="url(#mask0_5_711)">
<path d="M225.142 5.14898C223.502 5.22306 221.862 5.22306 220.223 5.00083C211.86 4.11193 206.531 4.85268 199.153 3.96378C194.152 3.37117 186.199 3.2971 181.198 2.77857C167.425 1.22299 153.733 2.26004 139.878 2.55635C133.483 2.7045 127.416 3.74155 121.021 3.5934C104.789 3.22302 88.2277 6.03789 72.2407 8.55645C48.3012 12.4084 15.0156 20.4826 6.98109 33.1494C6.4072 38.4829 6.24323 39.0014 8.62078 42.9274C11.3263 47.3719 13.1299 47.6682 14.8516 48.409C22.7221 52.0387 30.1007 57.298 38.873 58.4091C42.8903 58.9277 46.9075 60.7795 50.9247 61.3721C61.4188 62.9277 71.9128 66.4093 82.3248 66.4833C86.0961 66.4833 88.3096 66.2611 91.917 67.2241C95.1144 68.113 98.2298 67.0759 101.427 67.8908C104.051 68.5574 106.838 67.7426 109.544 67.7426C113.889 67.7426 120.448 69.7426 124.793 69.9649C137.09 70.4834 140.206 71.2242 149.716 70.1871C160.784 69.0019 172.508 69.5204 183.494 68.3352C188.905 67.7426 194.234 67.2241 199.644 66.6315C213.992 65.0759 228.749 63.4462 241.702 57.7424C244.244 56.6313 247.359 55.298 249.819 56.5572C251.131 55.9646 252.606 55.8165 254 55.298C260.149 53.0757 266.79 46.1126 268.757 44.0385C270.397 39.9644 270.151 35.668 270.479 30.2605C270.807 24.1863 267.856 18.4085 264.986 12.8528C263.264 9.5935 260.887 7.37124 257.198 6.11196C254.82 5.29713 252.524 4.26008 249.983 4.03785C246.54 3.66748 245.802 4.26008 241.621 4.4823C238.095 4.70453 233.504 3.74155 229.979 4.4823C228.339 4.77861 226.781 5.00083 225.142 5.14898Z" stroke="#202020" stroke-width="10.9101" stroke-miterlimit="10" stroke-dasharray="545.51 545.51"/>
</g>
</svg>
