<svg width="19" height="12" viewBox="0 0 19 12" fill="none" xmlns="http://www.w3.org/2000/svg">
<path d="M14.207 7.49499C14.207 7.46899 14.219 7.48199 14.207 7.49499V7.49499Z" fill="#202020"/>
<path d="M5.96995 6.96986C5.96785 6.96588 5.96543 6.96208 5.96272 6.9585C5.92968 6.97089 5.89973 6.98122 5.87598 6.98741L5.96995 6.96986Z" fill="#202020"/>
<path d="M5.1431 6.00875V5.98975C5.1261 6.00275 5.1081 6.00875 5.1431 6.00875Z" fill="#202020"/>
<path d="M8.89258 6.61182C8.90704 6.64176 8.92149 6.65003 8.93492 6.65003C8.91844 6.64018 8.90406 6.6272 8.89258 6.61182Z" fill="#202020"/>
<path d="M15.5996 5.76221V5.77221C15.6081 5.76864 15.6168 5.76564 15.6256 5.76321L15.5996 5.76221Z" fill="#202020"/>
<path d="M15.6329 5.79487C15.5916 5.82482 15.5957 5.75563 15.5978 5.73291C15.5706 5.74149 15.547 5.75877 15.5306 5.7821C15.5141 5.80542 15.5058 5.8335 15.5069 5.862C15.5544 5.89091 15.5885 5.79487 15.6329 5.79487Z" fill="#202020"/>
<path d="M18.7256 2.78564L18.7328 2.81869C18.7321 2.80738 18.7296 2.79624 18.7256 2.78564Z" fill="#202020"/>
<path d="M10.5771 7.92643L10.5881 7.91943C10.5881 7.91943 10.5881 7.92043 10.5771 7.92643Z" fill="#202020"/>
<path d="M18.1328 3.21631L18.1968 3.28137C18.1791 3.25641 18.1575 3.23444 18.1328 3.21631Z" fill="#202020"/>
<path d="M5.87691 6.979L5.8418 6.9852C5.8537 6.98449 5.86548 6.98241 5.87691 6.979Z" fill="#202020"/>
<path d="M4.2832 5.15863C4.3019 5.14486 4.31889 5.12891 4.33381 5.11112V5.10596L4.2832 5.15863Z" fill="#202020"/>
<path d="M2.08375 1.71442C2.088 1.70227 2.09145 1.68985 2.09408 1.67725L2.03418 1.72269C2.04256 1.72485 2.0513 1.72523 2.05984 1.72381C2.06838 1.72238 2.07652 1.71919 2.08375 1.71442Z" fill="#202020"/>
<path d="M3.40679 3.81592C3.39727 3.81734 3.38792 3.81976 3.37891 3.82315C3.39369 3.93769 3.43164 4.04802 3.49044 4.14742L3.58545 4.09888L3.40679 3.81592Z" fill="#202020"/>
<path d="M4.30762 1.98451L4.2374 2.16007C3.78094 1.78313 3.7954 1.54561 3.33894 1.23993L3.39678 1.24819C3.39678 1.18726 2.94548 1.26781 2.97646 0.577963H2.99505C2.9744 0.559375 2.93722 0.569702 2.95374 0.518066L2.92276 0.644057C2.83415 0.612177 2.74728 0.575637 2.66252 0.53459L0.750977 1.30706C0.785056 1.31738 0.820168 1.32978 0.854247 1.34423C0.858419 1.34895 0.861538 1.35451 0.863398 1.36053C0.865257 1.36655 0.865815 1.37289 0.865034 1.37914C0.864252 1.3854 0.86215 1.39141 0.858866 1.39679C0.855581 1.40216 0.851191 1.40678 0.845986 1.41033C0.845986 1.41033 0.962682 1.4506 1.08661 1.49398C1.21053 1.53735 1.33652 1.5704 1.33652 1.5704L1.37577 1.62306L1.4212 1.6778C1.61845 1.68606 1.65666 1.53528 2.01501 1.70568C1.9262 1.57453 2.26286 1.68606 2.24221 1.62306C2.26737 1.64708 2.29429 1.66917 2.32276 1.68916C2.61543 1.7306 2.91287 1.72467 3.20366 1.6716C3.04071 1.63 2.88092 1.57685 2.72552 1.51256C2.54142 1.44632 2.3725 1.34377 2.22878 1.21101C2.48386 1.2957 2.30727 1.21101 2.28042 1.16971L2.24427 1.19036C2.10382 1.12943 2.16062 1.06747 2.10382 1.03132C2.09923 1.03661 2.09541 1.04252 2.09246 1.04888L2.10899 1.04372C2.10692 1.04973 2.10322 1.05504 2.09829 1.05905C2.09336 1.06307 2.08741 1.06562 2.08111 1.06643C2.07078 1.07986 2.05425 1.08812 2.01708 1.07263H2.03154C1.95948 1.05948 1.88983 1.03545 1.82499 1.00137L1.88076 0.953869C1.78472 0.98072 1.66389 0.89707 1.58644 0.794832L1.51312 0.69879V0.824781C1.51312 0.955935 1.48213 1.10568 1.51312 1.14905C1.46355 1.25852 1.6959 1.31738 1.71966 1.43098C1.82293 1.59518 1.65356 1.54458 1.6422 1.64475C1.67215 1.75835 1.73308 1.59621 1.77439 1.63442L1.75064 1.78623C1.67835 1.72117 1.65563 1.77281 1.63084 1.79449C1.70623 1.89777 1.67938 2.10431 1.89212 2.08778C1.9262 2.24889 1.85494 2.26851 1.89935 2.32944C1.91484 2.30052 1.90968 2.25405 1.94685 2.24269C1.91587 2.31911 1.99126 2.26334 1.98816 2.23649C2.14513 2.29742 2.05116 2.76111 2.27009 2.7229L2.23291 2.73323C2.40124 2.71154 2.51897 2.63925 2.65529 2.67436L2.62534 2.73116L2.74514 2.77144C2.73274 2.8241 2.67491 2.81584 2.65632 2.82101C2.81536 2.89639 2.86287 3.0513 2.94651 3.17109L3.2398 2.9346C3.2398 3.0575 3.20986 3.28573 3.36166 3.26714L3.28111 3.36421C3.20882 3.63168 3.52586 3.46748 3.52173 3.56559L3.46803 3.705L3.37612 3.60793C3.39199 3.69971 3.3874 3.79386 3.3627 3.88366C3.36329 3.88009 3.36486 3.87676 3.36723 3.87403C3.36959 3.87129 3.37267 3.86927 3.37612 3.86817L3.4071 3.86921C3.45283 3.86511 3.49889 3.87144 3.54182 3.88772C3.58475 3.904 3.62343 3.9298 3.65495 3.96318C3.73034 4.06645 3.91416 4.10776 3.9121 4.30707L4.10108 4.29984L4.1269 4.44133L4.00711 4.47747C3.90384 4.36284 3.64256 4.16766 3.49075 4.02205L3.43292 4.03547C3.51967 4.12119 3.67044 4.20277 3.71588 4.2637C3.71308 4.28411 3.70586 4.30366 3.69471 4.32099C3.68357 4.33831 3.66878 4.353 3.65137 4.36401C3.63396 4.37503 3.61436 4.38211 3.59393 4.38476C3.5735 4.38741 3.55274 4.38557 3.53309 4.37936L3.70452 4.39692C3.91736 4.55757 4.08435 4.77122 4.18886 5.01654L4.22191 4.97214C4.31795 5.02068 4.41296 5.06818 4.33344 5.11465C4.41296 5.18407 4.4773 5.26916 4.52243 5.36458C4.56756 5.46 4.59253 5.56371 4.59575 5.66922L4.76202 5.65063C4.79403 5.6909 4.64429 5.8138 4.85909 5.76939L5.00677 5.83135C5.05221 5.88609 5.16581 5.89125 5.14928 5.9749V5.99142H5.16064C5.22467 6.12671 5.28353 5.95011 5.34756 6.10812C5.29489 6.18247 5.57476 6.09779 5.61297 6.17215L5.48491 6.30123C5.5004 6.45407 5.7214 6.4045 5.91039 6.57593C5.93001 6.6792 5.80712 6.77525 5.60058 6.77112C5.72121 6.75882 5.84286 6.78065 5.9517 6.83411C5.89386 6.87439 5.86701 6.86922 5.77614 6.87026C5.78646 6.98592 5.90316 6.90124 5.97338 6.96733C6.1183 6.93176 6.26633 6.91031 6.41538 6.9033L6.43087 6.86406C6.58371 6.90743 6.70454 6.96733 6.72623 7.0706L6.65291 7.09126L6.78613 7.16355L6.70248 7.19969L6.86874 7.31122V7.28644C6.91212 7.31122 7.05256 7.38971 7.06805 7.462L7.01642 7.47749C7.03811 7.68403 7.3851 7.7336 7.60816 7.90193L7.4801 7.91432C7.45222 8.00933 7.65463 7.87611 7.68665 7.96389L7.56789 8.0114C7.80438 8.0114 7.63088 8.10331 7.62055 8.16837L7.7579 8.09092L7.8209 8.18386C7.8746 8.28713 7.68355 8.31192 7.58338 8.32844L7.77856 8.34393L7.6505 8.40693C7.86944 8.39144 7.67735 8.46063 7.85704 8.5102C7.8116 8.53602 7.75377 8.52775 7.76617 8.56183L8.12245 8.61657L7.93966 8.57216L8.15859 8.50607C8.41367 8.52775 8.26909 8.62173 8.39818 8.65788L8.28768 8.64135C8.31481 8.6502 8.33991 8.66434 8.36154 8.68295C8.38316 8.70157 8.40088 8.72428 8.41367 8.74979C8.42811 8.79697 8.44713 8.84263 8.47047 8.8861C8.47047 8.84066 8.47047 8.7756 8.57374 8.82827C8.6419 8.86958 8.53863 8.88507 8.57374 8.94084C8.64867 8.91906 8.72864 8.92218 8.80164 8.94975C8.87464 8.97731 8.93673 9.02781 8.97857 9.09368C8.96319 9.10412 8.94543 9.11051 8.92693 9.11227C8.9765 9.12569 9.01987 9.11846 9.05085 9.18146L8.91454 9.23929H9.12108C9.16652 9.32294 9.34414 9.33223 9.26979 9.39316L9.20783 9.38077L9.76033 9.84962L9.72005 9.95289C9.83984 9.84962 10.0299 10.2627 10.0701 10.0562C10.161 10.2555 10.5183 10.3081 10.4213 10.5013C10.8343 10.8317 11.0151 10.7326 11.4798 11.1921L11.4963 11.1828C11.6677 11.3088 11.9631 10.7698 12.1738 10.5137C12.529 9.85892 12.7108 9.44583 13.0454 8.90573C13.1665 8.86054 13.2735 8.7839 13.3552 8.68369C13.4234 8.60526 13.4791 8.51679 13.5204 8.42138C13.5331 8.35522 13.5608 8.29285 13.6015 8.23913C13.6421 8.1854 13.6946 8.14176 13.7548 8.11157L13.6722 8.03102C13.9676 7.95667 13.8881 7.71191 14.2206 7.58902C14.2074 7.5603 14.2034 7.52818 14.2092 7.49711C14.1681 7.50916 14.1244 7.50916 14.0832 7.49711C14.1803 7.462 14.1979 7.34737 14.3456 7.39384V7.41036C14.4932 7.45787 14.4024 7.24513 14.5831 7.22551L14.392 7.21208L14.4953 7.1274L14.5056 7.16045C14.4974 6.66475 15.18 6.62757 15.2006 6.16698C15.3308 6.27025 15.1769 6.06371 15.3741 6.11741C15.7067 6.09469 15.4898 5.93152 15.5001 5.83651C15.4892 5.83349 15.479 5.82822 15.4702 5.82102L15.6271 5.68677C15.7913 5.83755 15.5239 5.53187 15.655 5.66509C16.1796 5.37489 16.4543 4.873 16.9645 4.50948H16.885C17.0048 4.41448 17.0636 4.2668 17.2454 4.22446C17.4272 4.18212 17.2795 4.00965 17.3012 3.97248C17.2898 3.85578 17.58 3.85062 17.5294 3.88263C17.5976 3.78556 17.4819 3.63168 17.7132 3.54287C17.9569 3.57385 17.8991 3.14631 18.1315 3.22583L18.1139 3.21757C18.4537 3.12152 18.3607 2.8809 18.7046 2.76937C18.7124 2.77531 18.7193 2.78226 18.7253 2.79003L18.4805 2.21687L17.6378 2.04131L16.6784 2.1136L16.2468 2.54424L15.8337 2.97591L15.338 3.26507L14.8454 3.55939C14.8454 3.55939 14.4158 3.97248 14.0089 4.38556C13.602 4.79864 13.2137 5.22722 13.2137 5.22722L13.2715 5.39658C12.6447 5.63824 12.6054 6.16182 12.0633 6.4613L12.2109 6.51294C12.1314 6.61621 12.0416 6.58523 11.993 6.60382C11.7948 6.83927 11.613 7.08093 11.4364 7.32671L11.1762 7.69023L11.0481 7.87095C11.0182 7.91226 11.0244 7.9071 11.0213 7.91432L11.014 7.93291C10.9769 8.02792 10.8818 8.16631 10.8075 8.12396L10.8013 8.11777C10.7662 7.98248 10.7424 8.02792 10.7404 7.91123C10.7053 8.08472 10.603 8.00211 10.5741 7.95873L10.5886 7.9515H10.5431C10.554 7.94447 10.5654 7.93826 10.5772 7.93291C10.5544 7.94019 10.5298 7.94019 10.507 7.93291H10.4977L10.4636 7.89677C10.4398 7.87508 10.4171 7.85133 10.3944 7.82758C10.3066 7.73257 10.2385 7.62104 10.1672 7.53429H10.1941C9.03934 6.70819 7.96131 5.77983 6.97305 4.76043C6.73346 4.23788 5.86288 3.81344 5.54481 3.22996C5.59541 3.09364 4.45737 2.063 4.30762 1.98451Z" fill="#202020"/>
<path d="M0.847486 2.44924L0.837159 2.43994C0.79172 2.50707 0.824766 2.49674 0.847486 2.44924Z" fill="#202020"/>
<path d="M2.96177 3.16643V3.1499L2.89258 3.2635L2.96177 3.16643Z" fill="#202020"/>
<path d="M1.56641 3.1665C1.60462 3.32038 1.62321 3.31831 1.64076 3.2832C1.63013 3.23691 1.60387 3.1957 1.56641 3.1665Z" fill="#202020"/>
<path d="M2.29974 3.16535C2.39372 3.20459 2.36377 3.14366 2.32556 3.07447C2.26862 3.06092 2.21243 3.04437 2.15723 3.0249C2.20783 3.06518 2.24914 3.12714 2.29974 3.16535Z" fill="#202020"/>
<path d="M2.2824 1.93923L2.32578 1.88553C2.28034 1.88243 2.27414 1.90618 2.2824 1.93923Z" fill="#202020"/>
</svg>
