<svg width="55" height="6" viewBox="0 0 55 6" fill="none" xmlns="http://www.w3.org/2000/svg">
<path d="M46.8131 3.28975C46.8203 3.30253 46.8246 3.31673 46.8256 3.33134C46.8208 3.32565 46.8172 3.31901 46.815 3.31185C46.8129 3.30469 46.8122 3.29717 46.8131 3.28975Z" fill="#202020"/>
<path d="M40.7444 3.3235L40.8142 3.34612C40.7636 3.34084 40.7509 3.33328 40.7444 3.3235Z" fill="#202020"/>
<path d="M50.4532 3.33266C50.4532 3.33266 50.453 3.32667 50.4446 3.32295L50.7012 3.32426L50.4532 3.33266Z" fill="#202020"/>
<path d="M35.1174 3.25948L35.1989 3.26271C35.1717 3.26513 35.1443 3.26405 35.1174 3.25948Z" fill="#202020"/>
<path d="M40.6803 3.08778C40.6485 3.06981 40.6129 3.05905 40.5762 3.05633C40.6276 3.05359 40.667 3.05925 40.6803 3.08778Z" fill="#202020"/>
<path d="M52.3853 2.67842L52.2844 2.73881C52.2854 2.70979 52.3206 2.68561 52.3853 2.67842Z" fill="#202020"/>
<path d="M53.6436 1.52518C53.6488 1.52427 53.6542 1.52408 53.6595 1.52462C53.6597 1.52762 53.6526 1.52687 53.6436 1.52518Z" fill="#202020"/>
<path d="M54.2174 2.36223C54.198 2.39283 54.1766 2.42226 54.1536 2.45035C54.1748 2.41065 54.1884 2.35822 54.2174 2.36223Z" fill="#202020"/>
<path d="M54.1213 2.47683L54.153 2.4377C54.1398 2.46217 54.1315 2.48247 54.1213 2.47683Z" fill="#202020"/>
<path d="M1.30901 3.47881C1.20686 3.47618 1.10638 3.45303 1.01392 3.41084L1.30901 3.47881Z" fill="#202020"/>
<path d="M26.6569 3.19199L26.6788 3.21624C26.6584 3.20794 26.6552 3.20005 26.6569 3.19199Z" fill="#202020"/>
<path d="M1.15889 3.08711L1.08423 3.10264C1.1079 3.09299 1.13322 3.08773 1.15889 3.08711Z" fill="#202020"/>
<path d="M50.462 2.56853C50.3568 2.50713 50.1395 2.56746 50.1426 2.51138C50.2544 2.52559 50.4138 2.4872 50.462 2.56853Z" fill="#202020"/>
<path d="M24.8731 1.64814L24.803 1.64552C24.8264 1.6443 24.8499 1.64518 24.8731 1.64814Z" fill="#202020"/>
<path d="M1.15918 3.08913L1.24509 3.07123C1.23786 3.08221 1.22961 3.09253 1.22044 3.10205C1.20103 3.09407 1.18025 3.08969 1.15918 3.08913Z" fill="#202020"/>
<path d="M17.3623 3.3349L17.5 3.35223C17.4534 3.36085 17.4051 3.35477 17.3623 3.3349Z" fill="#202020"/>
<path d="M1.01527 3.42766L0.846924 3.38838C0.904661 3.39374 0.961332 3.40697 1.01527 3.42766Z" fill="#202020"/>
<path d="M12.3264 3.36734C12.348 3.36661 12.3696 3.36588 12.3905 3.37316C12.369 3.37513 12.3472 3.37315 12.3264 3.36734Z" fill="#202020"/>
<path d="M41.0166 3.0704C41.0331 3.06984 41.0545 3.06312 41.0729 3.05949C41.0796 3.07326 41.0758 3.08239 41.0166 3.0704Z" fill="#202020"/>
<path d="M37.7731 2.04878C37.6811 2.05212 37.5907 2.02485 37.5168 1.9715C37.6084 1.97138 37.6978 1.99833 37.7731 2.04878Z" fill="#202020"/>
<path d="M37.1584 1.99355L37.1883 1.9875C37.1787 1.99103 37.1686 1.99306 37.1584 1.99355Z" fill="#202020"/>
<path d="M40.9175 2.00125C40.9178 2.00323 40.9179 2.00525 40.9177 2.00725L40.9175 2.00125Z" fill="#202020"/>
<path d="M40.1799 1.97237C40.1579 1.98469 40.1337 1.99297 40.1086 1.99677C40.1304 1.98398 40.1547 1.97567 40.1799 1.97237Z" fill="#202020"/>
<path d="M28.3109 1.42174C29.0146 1.44888 29.926 1.54995 30.6229 1.53034C30.8105 1.60966 31.013 1.65012 31.2176 1.64913L31.2412 1.53039L31.426 1.5701C31.502 1.53454 31.284 1.54693 31.4174 1.50243L31.4871 1.57703C31.502 1.53454 31.9633 1.5539 31.6531 1.46446L32.3747 1.474C32.5342 1.46859 32.4668 1.57083 32.6432 1.54786C32.6791 1.51366 32.5805 1.523 32.5944 1.48055C33.1232 1.40066 33.2038 1.72079 33.6967 1.6741L33.6549 1.65753C33.7385 1.69068 33.8982 1.68927 33.8999 1.7062C33.8361 1.82531 33.812 1.64021 33.6609 1.7083C33.6727 1.80786 33.8474 1.76596 33.8378 1.84225C33.953 1.80736 34.021 1.86603 34.1212 1.87363C34.2932 1.81283 34.5391 1.85947 34.6683 1.78413C34.7737 1.85876 34.8965 1.90711 35.0257 1.92495C35.1559 1.84857 34.9962 1.84898 35.1724 1.82003L35.2003 1.87905C35.3444 1.87417 35.3221 1.85594 35.317 1.82812C35.4716 1.82888 35.4446 1.91076 35.6382 1.87722L35.533 1.81781C35.6658 1.8373 35.8004 1.84246 35.9344 1.8332C35.9332 1.79925 35.8497 1.80008 35.7913 1.80806C35.9005 1.72339 35.9762 1.84977 36.0346 1.8418C36.018 1.86735 35.8792 1.87605 35.9463 1.93475C36.049 1.92627 36.1554 2.01862 36.2271 1.95122L36.122 1.89281C36.3299 1.94274 36.2278 1.96819 36.4683 1.95105C36.4557 1.94648 36.4614 1.93229 36.4568 1.91945C36.6059 1.99736 36.8025 1.93373 37.0241 1.93322L36.9822 1.91665C37.0716 1.93861 37.1199 1.99195 37.1682 1.98831C37.0416 2.01959 37.0762 2.03741 37.0638 2.0918C37.2314 1.99817 37.3174 2.20916 37.5906 2.15792C37.5894 2.12398 37.522 2.08228 37.4459 2.11584C37.3548 2.01897 37.3434 1.9294 37.1777 1.88004C37.2817 1.9055 37.4018 1.92143 37.3776 1.87927L37.4088 1.97217C37.4718 1.97603 37.521 1.96837 37.5685 1.97275C37.5943 2.03185 37.441 2.06603 37.5857 2.10711C37.7487 2.14057 37.6741 2.01416 37.6993 2.05628C37.9234 2.09767 37.7904 2.15315 38.0111 2.13168C37.9892 2.12343 37.9474 2.10685 37.9291 2.11547C38.0845 2.08122 38.3103 2.14054 38.3579 2.03098C38.3353 2.00575 38.331 1.97191 38.2726 1.97989L38.2732 1.99686C38.1042 1.91163 38.4152 2.02204 38.3632 1.92085C38.3499 1.98027 38.5711 1.97278 38.6677 1.96451L38.6361 2.03155C38.9601 2.24447 38.6209 1.89612 38.9416 1.93124C39.1495 1.98217 38.8639 1.94787 38.9884 1.99962C39.1166 1.96475 39.2505 1.95377 39.3829 1.96727C39.4397 1.94136 39.556 1.90843 39.5666 1.8321C39.6894 1.86593 39.9418 1.8074 40.0116 1.884C39.7993 1.94217 39.8024 1.79813 39.5543 1.89149L39.622 1.96717C39.7905 1.98508 39.9602 1.99169 40.1297 1.98695C40.1054 2.00077 40.0948 2.02012 40.1098 2.0366C40.2874 2.09209 40.4719 2.12384 40.6583 2.13097C40.6909 2.0639 40.5531 2.07156 40.4498 2.06307C40.6036 2.01288 40.6095 2.06365 40.847 2.04961C40.8603 1.99019 40.6873 2.04903 40.6615 1.98993L40.9231 2.01605C40.9225 2.01208 40.9224 2.00807 40.9227 2.00407C40.9592 2.10279 41.1223 1.99731 41.2824 2.03486C41.662 2.046 41.7174 2.18206 41.9266 2.26893C41.9834 2.24401 42.001 2.21943 41.9774 2.19324C41.8831 2.23442 41.9002 2.19585 41.8685 2.17294C41.9968 2.18758 42.1507 2.08441 42.0802 2.04182C42.2875 2.07678 42.0057 2.09232 42.1296 2.12711L42.409 2.12964C42.3747 2.17978 42.276 2.18712 42.4197 2.22923C42.5324 2.24184 42.6459 2.24568 42.7592 2.24072C42.7366 2.2155 42.8111 2.165 42.6915 2.16405C42.7321 2.15208 42.7749 2.14909 42.8169 2.15527C42.8588 2.16146 42.8988 2.17668 42.9339 2.19982C42.7592 2.24072 43.2182 2.25316 43.0869 2.32758L43.2616 2.28667C43.2215 2.28803 43.2181 2.25216 43.1576 2.26021C43.2085 2.18452 43.2997 2.28638 43.365 2.29617C43.4264 2.28309 43.586 2.28168 43.5994 2.25224C43.6352 2.26369 43.6731 2.26709 43.7104 2.26218C43.7478 2.25728 43.7834 2.24421 43.8148 2.22396C43.8958 2.2422 43.8166 2.27487 43.8433 2.29996L44.1216 2.30252C44.1376 2.26 44.1632 2.14219 44.1224 2.12458C44.227 2.16801 44.1569 2.25235 44.3166 2.25294C44.2269 2.16701 44.5289 2.19577 44.3984 2.09324C44.5588 2.04419 44.7299 2.03839 44.8935 2.07647C44.9804 2.14549 44.738 2.10772 44.7445 2.17547C45.1468 2.21482 45.1649 2.40212 45.4629 2.38103L45.3862 2.39662C45.482 2.40879 45.5738 2.44191 45.6545 2.49349C45.6061 2.40817 45.8693 2.27631 46.1723 2.30603C46.1965 2.34918 46.0008 2.3798 46.0486 2.44815L46.2492 2.46834C46.2645 2.46283 46.2423 2.44759 46.2161 2.43548C46.3957 2.47238 46.5547 2.33905 46.6037 2.43934L46.7901 2.32408L46.7167 2.37354C46.7409 2.4157 46.9425 2.43586 46.9834 2.45347C47.0476 2.47657 47.1161 2.48599 47.1844 2.48109C47.2527 2.47619 47.3191 2.45709 47.3791 2.42507C47.3421 2.45831 47.2499 2.5294 47.4125 2.55288C47.4148 2.41686 47.7543 2.51631 47.7516 2.44144C47.8167 2.44623 47.9349 2.40924 47.94 2.46504L47.9318 2.38036C47.9433 2.49892 48.1825 2.50381 48.3649 2.53261C48.3282 2.37093 48.5656 2.5538 48.6512 2.41197C48.6819 2.52188 48.9747 2.46898 49.0039 2.56295C49.1444 2.57418 49.1335 2.47259 49.1705 2.43936L49.2349 2.48315C49.3974 2.4433 49.5636 2.41926 49.731 2.41137L49.8738 2.51349L49.9301 2.4726C49.9526 2.49782 50.0739 2.5177 49.9967 2.5503L50.076 2.54762C50.0798 2.65244 50.1864 2.58086 50.3428 2.63254C50.3804 2.61727 50.3712 2.59159 50.3408 2.57563C50.4192 2.57797 50.3873 2.52308 50.4315 2.4896C50.3746 2.51451 50.7097 2.69008 50.4946 2.72735C50.4786 2.76987 50.6005 2.80573 50.6803 2.79103L50.7306 2.69936L50.8199 2.80329C50.9411 2.82217 50.9947 2.76538 51.0934 2.75804C50.99 2.74755 50.8804 2.56535 51.1354 2.5807C51.041 2.5612 50.9499 2.5286 50.8651 2.48391C50.9186 2.48209 50.9461 2.47416 50.8632 2.431C51.0644 2.46916 50.9292 2.49173 51.1289 2.51295C51.1207 2.42827 51.1775 2.40336 51.3529 2.38242L51.221 2.43887C51.2266 2.44908 51.2351 2.45748 51.2456 2.46302C51.1953 2.46972 51.1814 2.48319 51.1701 2.51455C51.2093 2.51323 51.3989 2.62875 51.4332 2.57861C51.2315 2.70239 51.7815 2.69376 51.6462 2.7713C51.6687 2.79653 51.8082 2.8068 51.8232 2.76531C51.6579 2.69594 51.9507 2.67303 51.9208 2.61307C51.9825 2.63897 51.7889 2.67151 51.8715 2.7057C51.9527 2.70545 52.0321 2.68227 52.1 2.63899L52.0592 2.62238L52.2125 2.5882C52.2377 2.63032 52.0635 2.65621 52.2045 2.68142C52.242 2.66416 52.383 2.68837 52.3787 2.65453C52.3117 2.59583 52.3615 2.51918 52.2414 2.50326C52.3447 2.51175 52.6543 2.52325 52.5283 2.60149L52.6466 2.59748C52.5727 2.63297 52.3637 2.69502 52.6022 2.70793L52.6016 2.69096L52.7677 2.7543L52.8393 2.7099C52.84 2.73086 52.8644 2.75103 52.9252 2.74897C52.9407 2.72345 52.9991 2.71248 52.9927 2.67871C53.1731 2.6806 53.1447 2.72254 53.1714 2.74663C53.2591 2.75065 53.2862 2.73174 53.2433 2.68322C53.3335 2.67017 53.4903 2.67485 53.5164 2.6C53.644 2.59568 53.5051 2.62837 53.6028 2.65305C53.5994 2.55921 53.6666 2.50695 53.7295 2.42186C53.8017 2.33864 53.8526 2.23997 53.8778 2.13397C54.0205 2.2061 53.8996 2.08125 54.0279 2.03693C54.0082 2.06358 53.9732 2.00679 53.9412 1.97689C53.9092 1.94699 53.8821 1.93891 53.8719 2.02722C53.874 1.9909 53.8727 1.95448 53.868 1.9184C53.8186 1.89208 53.8172 1.93811 53.8072 1.97543C53.7972 2.01275 53.7735 2.04254 53.7144 2.00356C53.7128 1.95864 53.741 1.91071 53.7504 1.85741C53.7606 1.83006 53.7605 1.80008 53.7501 1.77279C53.7397 1.7455 53.7196 1.72269 53.6935 1.70841C53.642 1.79611 53.6502 1.62092 53.5906 1.71189C53.5797 1.75225 53.61 1.76321 53.6223 1.79178L53.5945 1.79272C53.5192 1.7333 53.5227 1.71519 53.5483 1.68134C53.5738 1.64749 53.6212 1.6179 53.5841 1.55919C53.4486 1.48881 53.425 1.57657 53.4005 1.61138C53.3412 1.60638 53.2856 1.58139 53.2434 1.54074C53.3288 1.6258 53.4736 1.55393 53.4475 1.48585C53.318 1.5532 53.1643 1.40548 53.1159 1.34815C53.4349 1.33734 53.3155 1.39936 53.6325 1.38762C53.6466 1.43512 53.5887 1.48906 53.7319 1.54518C53.6886 1.45869 53.777 1.50767 53.8113 1.5165C53.744 1.53578 53.8742 1.60333 53.8772 1.6592C53.9468 1.67584 53.9334 1.50137 54.0579 1.64009L54.0038 1.6849L53.9467 1.72782C53.9927 1.77724 54.0298 1.66203 54.0587 1.80499C54.0913 1.70993 54.187 1.79264 54.1004 1.58967C54.151 1.62229 54.1905 1.66865 54.2141 1.72297C54.2377 1.77728 54.2443 1.83713 54.233 1.89504C54.2053 1.99019 54.1697 2.08299 54.1265 2.17252C54.1362 2.1542 54.1547 2.15358 54.1654 2.13522C54.1348 2.18543 54.1131 2.24021 54.1011 2.29732C54.1059 2.4301 54.1837 2.21456 54.2159 2.25146L54.194 2.35915L54.1575 2.46034C54.1577 2.46633 54.1578 2.46833 54.165 2.46908C54.1265 2.51636 54.0856 2.55273 54.1096 2.5899C54.1688 2.57051 54.2256 2.54479 54.2789 2.5132C54.2225 2.5813 54.155 2.63998 54.0791 2.68689C54.1369 2.69093 54.0122 2.88907 54.1459 2.76759L54.1083 2.81284C54.0835 2.83867 54.0464 2.86692 54.0083 2.89719C53.9589 2.93367 53.9063 2.96589 53.8511 2.99348L53.8716 3.07874C53.7765 3.09896 53.7689 3.08722 53.8619 3.03709C53.7597 3.08021 53.6476 3.09642 53.5369 3.08408C53.4194 3.08307 53.3306 3.07708 53.379 3.1614C53.077 3.10366 52.9966 3.13137 52.6663 3.08559C52.9174 3.16404 52.3792 3.18427 52.6454 3.22124C52.4891 3.25752 52.4569 3.16565 52.3337 3.14983C52.2185 3.18472 52.269 3.26897 52.3938 3.30173L52.247 3.26072L52.2476 3.27769L52.1211 3.227C51.9856 3.26957 52.0912 3.31198 51.9524 3.31968L51.9239 3.24368L51.8285 3.28489C51.8644 3.25169 51.7823 3.23348 51.6821 3.22488L51.6827 3.24185L51.5604 3.223C51.6807 3.2729 51.4486 3.23579 51.5021 3.29095C51.4031 3.29096 51.3043 3.28328 51.2065 3.26798L51.2408 3.21784C50.9957 3.16317 51.2281 3.29423 51.028 3.29002L51.0424 3.23155C50.7519 3.31836 50.5572 3.14804 50.344 3.20824C50.4642 3.22715 50.4316 3.29423 50.4299 3.27729C50.2044 3.26605 49.9809 3.23038 49.7635 3.17092C49.6923 3.2543 49.6745 3.27389 49.4789 3.3085C49.3384 3.29727 49.3174 3.28799 49.2703 3.23661C49.1332 3.26424 48.8785 3.2029 48.8694 3.26518C48.8387 3.21424 48.7459 3.26936 48.6722 3.22488L48.6556 3.24944L48.6699 3.19098C48.4239 3.31326 48.2637 3.09779 48.015 3.20316L48.0569 3.22074L47.9528 3.19328C47.9362 3.21883 47.9771 3.23644 47.9814 3.27027L47.5029 3.26049L47.5983 3.22028C47.4949 3.20979 47.4319 3.14995 47.3156 3.18188C47.5045 3.27543 47.1568 3.17926 47.1242 3.24633L47.2283 3.2738C47.0888 3.26353 47.0888 3.26353 47.1011 3.20414C46.9197 3.1763 46.9729 3.30843 46.8077 3.24206L46.9273 3.24401C46.9632 3.21081 46.8789 3.15869 46.7995 3.15738C46.7803 3.16603 46.7234 3.18994 46.7835 3.1999C46.6414 3.17173 46.4247 3.19406 46.363 3.16817C46.2853 3.18379 46.3095 3.22695 46.3503 3.24456C46.0461 3.1809 46.2114 3.24927 45.9062 3.18764L45.9074 3.22158L45.8028 3.17715L45.6506 3.24328L45.7058 3.20142C45.6136 3.18121 45.519 3.17398 45.4247 3.17996L45.4709 3.23137C45.1882 3.19297 45.1406 3.30253 44.8729 3.22264C44.8547 3.23125 44.8955 3.24886 44.9174 3.25712C44.6689 3.16558 44.7266 3.33854 44.4776 3.23403C44.4927 3.25151 44.4646 3.27146 44.4743 3.28612L44.3607 3.24899L44.3631 3.31687L44.2719 3.21401L44.2001 3.28141L44.1566 3.2479C44.0313 3.37309 43.8607 3.27092 43.692 3.3636L43.7229 3.27959C43.3041 3.09387 42.7568 3.3473 42.2494 3.24954L42.257 3.31725L42.0478 3.23138C41.9342 3.28121 42.1138 3.29111 42.0779 3.32431C41.8537 3.27993 41.9866 3.22146 41.7249 3.19434C41.5904 3.23588 41.7701 3.24578 41.8308 3.27171C41.5747 3.21828 41.3122 3.19925 41.0508 3.21517C41.0504 3.20619 41.0366 3.19366 41.0499 3.19022C40.8642 3.17091 40.6773 3.16455 40.4907 3.17117C40.4918 3.20212 40.5394 3.20851 40.584 3.21599C40.5153 3.2296 40.4441 3.22547 40.3775 3.204L40.4446 3.2637C40.3056 3.2684 40.0408 3.2114 40.0092 3.27844C40.0258 3.25289 40.0199 3.20212 39.9034 3.20206C39.836 3.3043 39.579 3.15008 39.3881 3.20053C39.4107 3.22575 39.5512 3.23499 39.511 3.23535C39.4179 3.24527 39.3241 3.22412 39.245 3.17539L39.2703 3.21751L38.8247 3.14864C38.7573 3.25088 38.4033 3.12194 38.4328 3.1979C38.2731 3.19732 38.5674 3.15636 38.3658 3.1392C38.3117 3.18102 38.1835 3.11339 38.1911 3.1811L38.212 3.18939L38.0716 3.18115L38.1596 3.24914C38.0384 3.23225 37.9504 3.16427 37.9486 3.11435C37.8334 3.14924 37.6704 3.11478 37.6169 3.17456L37.6598 3.1911C37.3371 3.15805 37.1229 3.36222 36.8703 3.24383C36.851 3.25248 36.8537 3.26938 36.8928 3.26906L36.6929 3.26883L36.7401 3.31921L36.4115 3.23539L36.4127 3.26933C36.1945 3.27672 35.8536 3.25428 35.5738 3.23777L35.6156 3.25435C35.3106 3.19572 35.3198 3.28036 35.0998 3.23884C35.1056 3.24626 35.1138 3.25161 35.1231 3.25404L34.9168 3.24904L34.9613 3.28251C34.8133 3.20756 34.5337 3.37096 34.6264 3.31085C34.5417 3.27773 34.397 3.23666 34.3728 3.1945C34.1531 3.18695 34.3187 3.23731 34.1826 3.26391C34.0241 3.26928 33.9961 3.20626 33.7807 3.23354L33.7819 3.26749C33.6786 3.25999 33.619 3.23502 33.4786 3.22779L33.5204 3.24436C33.292 3.17013 33.2342 3.33901 33.0557 3.18913C32.9598 3.21537 32.7776 3.19056 32.7862 3.25923C32.5011 3.21092 32.2798 3.18743 31.9963 3.15605C31.9508 3.26654 31.9352 3.14813 31.7633 3.20992L31.7766 3.1505C31.3764 3.13807 30.9157 3.27962 30.4747 3.25257L30.4624 3.31196L30.3745 3.24597C29.8993 3.27006 29.2846 3.28289 28.9055 3.28374C28.7426 3.22442 28.5694 3.19634 28.3955 3.20106L28.4164 3.20935C28.058 3.16495 27.6959 3.15512 27.3355 3.17999C27.3591 3.20518 27.3215 3.22245 27.3634 3.23902C27.2744 3.17307 27.1437 3.23447 27.0634 3.23619L27.1576 3.19201C27.1063 3.1722 27.0505 3.16552 26.9958 3.17263C26.941 3.17973 26.889 3.20038 26.8448 3.2326L26.6756 3.16836C26.6645 3.17474 26.6473 3.18332 26.6456 3.19337L26.63 3.16291L26.5411 3.24089C26.4993 3.22431 26.276 3.20389 26.2063 3.12828C26.1897 3.15383 26.0328 3.17414 26.1549 3.189L25.5374 3.20991L25.6333 3.18168C25.6445 3.12233 25.4599 3.0876 25.3649 3.1128C25.4903 3.16053 25.3762 3.19738 25.3222 3.2412C25.2386 3.20904 25.3945 3.18877 25.35 3.15629C25.2271 3.1142 25.0952 3.10285 24.9665 3.1233L25.0292 3.14717C24.8862 3.12502 24.8261 3.22901 24.6806 3.22395C24.5542 3.17625 24.461 3.22139 24.4862 3.11858C24.303 3.0978 24.4165 3.18791 24.3571 3.19792C24.2959 3.17733 24.2307 3.16985 24.1662 3.17601C24.1017 3.18216 24.0393 3.2018 23.9833 3.23357C23.8821 3.08407 23.4917 3.28821 23.4542 3.16253L23.3053 3.23355C23.2981 3.19845 23.2784 3.1669 23.2498 3.14433C23.2211 3.12176 23.1853 3.1096 23.1484 3.10992C23.0343 3.14677 23.0622 3.2058 23.0273 3.23997L22.9486 3.11469C22.2899 3.24895 21.4182 3.16653 20.6971 3.28492C20.3299 3.24055 19.9602 3.21969 19.5902 3.22246L19.632 3.23803L19.2583 3.27668L19.5292 3.21553C19.4558 3.19605 19.3804 3.18452 19.3043 3.18116C18.8211 3.26472 18.329 3.28878 17.8396 3.25277C17.5089 3.11304 17.6238 3.38402 17.3089 3.28274C17.3362 3.29581 17.3462 3.31646 17.3704 3.32964C17.0796 3.2989 16.7912 3.25025 16.5068 3.18397C16.549 3.32647 16.2863 3.18344 16.3189 3.2583L16.2889 3.20034C16.214 3.23687 16.0373 3.25285 16.0636 3.29394L15.9127 3.22409L15.9014 3.28444C15.7038 3.29113 15.282 3.25145 15.1762 3.37498C14.5508 3.31559 13.9211 3.31416 13.2955 3.37071C13.1641 3.32912 13.0256 3.31276 12.8878 3.32255L12.74 3.39753C12.5972 3.37937 12.4426 3.29365 12.3114 3.34208C12.3121 3.34616 12.314 3.34996 12.3169 3.35305C12.3197 3.35614 12.3234 3.35838 12.3275 3.35952C12.1869 3.37478 12.0445 3.36399 11.908 3.32775C11.7495 3.33312 11.6007 3.37715 11.6463 3.44157C11.6276 3.32426 11.3102 3.46695 11.3102 3.46695L10.005 3.53415C9.20997 3.57508 8.12774 3.62473 6.984 3.65448C5.03649 3.7896 3.07974 3.7259 1.14595 3.46441C1.07597 3.40981 0.889392 3.37915 0.95686 3.30689C0.81305 3.29077 0.754008 3.39673 0.722077 3.33983C0.915118 3.29231 0.6549 3.19118 0.841609 3.11089L0.718669 3.10206C0.691466 3.062 0.887049 3.14233 0.853479 3.0685L0.892352 3.17514C0.961907 3.16813 1.02695 3.13844 1.07686 3.09092C1.17202 3.12968 1.237 3.27441 1.4559 3.20103L1.39496 3.1971C1.5761 3.19096 1.50253 3.12248 1.53894 3.10326L1.4988 3.10462L1.6491 3.04355C1.5352 3.08539 1.33859 3.00509 1.44169 3.0066C1.65564 2.96737 1.38708 3.03544 1.54601 3.04205C1.64892 3.03856 1.61614 2.9867 1.60978 2.95293L1.78988 2.94683C1.78187 2.89612 1.6705 2.95087 1.74181 2.89948L1.97113 2.94369C2.00766 2.81351 2.22028 2.99522 2.31882 2.86994C2.15414 2.84653 2.33168 2.82652 2.30345 2.78649L2.7038 2.77293C2.74123 2.75367 2.59948 2.73748 2.65836 2.74149C2.73219 2.703 2.78397 2.76722 2.82407 2.76486C2.85677 2.72877 3.12253 2.75475 3.10812 2.66928C3.3777 2.60117 3.22723 2.7722 3.47755 2.71274C3.50861 2.65971 3.27132 2.70873 3.3867 2.65085L3.64975 2.65893C3.63427 2.63413 3.61132 2.61452 3.584 2.60276C3.55667 2.591 3.52629 2.58764 3.49694 2.59314C4.05891 2.41873 4.6394 2.30652 5.22736 2.25865C5.31673 2.19365 5.16002 2.21995 5.09374 2.18221C5.56695 2.24614 5.74959 2.02406 6.15015 2.01648L6.15919 2.06716C6.77129 1.95319 7.39223 1.88969 8.01538 1.87734L7.94151 1.91482C8.04906 1.95116 8.16108 1.97358 8.27467 1.9815C8.28918 1.95502 8.19566 1.87623 8.37961 1.89099C8.34218 1.91025 8.26567 1.93183 8.28918 1.95502C9.1396 1.82805 9.99688 1.74894 10.8567 1.71812C12.0627 1.72725 13.3665 1.59412 14.5509 1.60598C14.3706 1.60509 14.4523 1.72926 14.5851 1.69777C14.9523 1.47943 15.231 1.72087 15.6109 1.56907C16.2594 1.52437 16.9105 1.53006 17.558 1.58607L17.5693 1.52572C17.6641 1.49752 17.6913 1.53858 17.7914 1.54318L17.7908 1.52621C18.0279 1.50019 18.3164 1.55739 18.4524 1.52679L18.462 1.59444C18.6033 1.59864 18.5343 1.54101 18.6799 1.57806L18.6787 1.54412L18.8488 1.60532C18.8301 1.48701 19.2471 1.59183 19.3615 1.53598C19.6286 1.57487 19.899 1.58881 20.1688 1.5776C20.2192 1.51692 20.5592 1.5144 20.7754 1.48209C21.1973 1.49378 21.8006 1.50933 22.3376 1.48315L22.329 1.5594L22.4693 1.56365C22.4687 1.54667 22.4859 1.53809 22.4681 1.5297C22.5762 1.44208 22.7915 1.55573 22.9039 1.50094C22.8333 1.57031 22.8013 1.51242 22.7261 1.51396C22.611 1.55085 22.7219 1.62406 22.8771 1.58581L22.8765 1.56884L22.981 1.60928C22.9923 1.54993 23.0881 1.52169 23.1004 1.4623C23.5162 1.5127 23.9345 1.54157 24.3534 1.5488C24.3036 1.48252 24.6961 1.56518 24.5992 1.44952C24.8852 1.49281 24.5531 1.54304 24.6838 1.62457C24.7631 1.62188 24.8477 1.654 24.8616 1.61155C24.8235 1.58385 24.9261 1.5414 24.8587 1.53068L25.0496 1.53921C25.0679 1.5306 25.0261 1.51402 25.0042 1.50677C25.394 1.57253 25.6938 1.42943 26.0436 1.49854C26.0698 1.54064 25.9049 1.50924 25.9311 1.55233C26.2826 1.64038 26.2376 1.47798 26.5695 1.5397L26.5015 1.48203C26.5492 1.51222 26.6032 1.53182 26.6595 1.53941C26.7159 1.547 26.7733 1.54241 26.8277 1.52596C26.8582 1.45796 26.6794 1.47001 26.5956 1.43387C26.715 1.42982 27.0177 1.45055 26.9261 1.51163C27.0691 1.53477 27.1216 1.47402 27.1982 1.45544C27.1988 1.47241 27.0648 1.50093 27.1484 1.53209C27.3918 1.50133 27.6372 1.48801 27.8827 1.49222C27.8821 1.47525 27.8966 1.44977 27.8808 1.44131C28.0683 1.5539 28.0474 1.40168 28.3109 1.42174Z" fill="#202020"/>
<path d="M41.0273 2.00171L40.8937 2.01223C40.893 1.99227 40.8921 1.96831 40.8274 1.94551L41.0273 2.00171Z" fill="#202020"/>
<path d="M36.4567 1.92941C36.44 1.92234 36.4241 1.91349 36.4094 1.90303C36.4415 1.90794 36.4523 1.92157 36.4567 1.92941Z" fill="#202020"/>
<path d="M35.3423 1.77608C35.4461 1.79855 35.3531 1.82069 35.2993 1.8425C35.2976 1.82457 35.304 1.80236 35.3423 1.77608Z" fill="#202020"/>
<path d="M39.5208 2.39948C39.4978 2.39026 39.4839 2.37774 39.4884 2.3586C39.5189 2.37556 39.5255 2.38832 39.5208 2.39948Z" fill="#202020"/>
<path d="M49.3771 2.53931L49.3374 2.55165C49.3492 2.54398 49.363 2.5397 49.3771 2.53931Z" fill="#202020"/>
<path d="M48.8252 2.63597C48.7877 2.63445 48.7505 2.62866 48.7144 2.61873C48.7522 2.61561 48.7903 2.62153 48.8252 2.63597Z" fill="#202020"/>
<path d="M41.871 2.17866C41.8342 2.17649 41.7984 2.16569 41.7668 2.14721C41.8042 2.14645 41.8407 2.15749 41.871 2.17866Z" fill="#202020"/>
<path d="M48.6018 2.60578L48.4639 2.61045C48.4632 2.60449 48.4629 2.59848 48.4633 2.59248L48.6018 2.60578Z" fill="#202020"/>
<path d="M49.5501 2.53844C49.4924 2.53745 49.4347 2.53941 49.3772 2.5443C49.4325 2.52369 49.4934 2.52162 49.5501 2.53844Z" fill="#202020"/>
<path d="M43.1332 2.54602L43.1188 2.54651C43.0131 2.50011 43.0797 2.51885 43.1332 2.54602Z" fill="#202020"/>
<path d="M48.0071 2.47789L47.9886 2.47852L47.9495 2.45186L48.0071 2.47789Z" fill="#202020"/>
<path d="M50.1421 2.52539C50.1184 2.52405 50.0953 2.51767 50.0745 2.50669L50.1527 2.50404C50.1474 2.51019 50.1437 2.51753 50.1421 2.52539Z" fill="#202020"/>
<path d="M45.201 2.46486C45.2394 2.50054 45.2526 2.52309 45.2532 2.54106C45.2077 2.5376 45.1793 2.52157 45.201 2.46486Z" fill="#202020"/>
</svg>
