<svg width="154" height="141" viewBox="0 0 154 141" fill="none" xmlns="http://www.w3.org/2000/svg">
<path d="M105.562 124.099C105.562 123.933 105.727 123.685 105.975 123.602C105.975 123.52 105.892 123.354 105.81 123.189C104.983 123.354 105.81 123.85 105.396 124.099C105.396 124.099 105.479 124.099 105.562 124.099ZM101.675 125.091C101.84 125.008 102.005 125.008 102.088 125.008L101.923 124.678C101.675 124.76 101.592 124.843 101.675 125.091ZM12.6869 100.611C13.4312 100.694 12.6042 101.355 12.6869 100.611ZM5.90526 86.7998C6.23607 86.7171 6.15337 86.9652 6.31877 87.0479C6.40148 86.9652 6.40148 86.8825 6.40148 86.7998C6.23607 86.7171 6.07067 86.5517 5.90526 86.3863C5.90526 86.5517 5.90526 86.6344 5.90526 86.7998ZM0.198799 71.2518C0.116097 71.2518 0.0333944 71.3345 0.0333944 71.4172C0.116097 71.3345 0.198799 71.3345 0.198799 71.2518ZM10.1231 25.0212C10.0404 25.1039 9.95768 25.1866 9.87497 25.352C9.95768 25.2693 10.0404 25.1866 10.2058 25.1866C10.2058 25.1039 10.1231 25.1039 10.1231 25.0212ZM108.456 -0.285734C108.456 -0.285734 108.373 -0.368437 108.291 -0.451139C108.291 -0.451139 108.291 -0.368436 108.291 -0.285734H108.456ZM118.132 3.84938C118.05 3.93209 117.967 4.01479 117.884 4.09749C117.967 4.09749 117.967 4.18019 117.967 4.18019C118.132 4.3456 118.298 4.3456 118.463 4.2629C118.38 4.18019 118.38 4.01479 118.298 3.93209L118.132 3.84938ZM151.048 81.5896C151.627 81.4242 151.792 80.928 152.206 80.6799C152.123 79.6047 151.792 78.695 152.785 78.1161C152.454 77.868 152.454 77.041 153.033 76.9583C152.702 76.8756 152.371 76.8756 151.958 76.9583C151.792 77.4545 151.544 77.9507 151.213 78.3642C151.461 79.2739 151.213 80.928 150.552 81.5069C150.8 81.9204 150.634 82.3339 150.8 82.6647C151.213 82.4166 151.213 82.0858 151.048 81.5896ZM144.763 93.0025C144.514 92.589 144.597 92.7544 144.432 92.4236C145.093 92.0928 145.59 91.4312 145.59 90.6868C145.011 91.3485 144.018 91.6793 143.687 92.6717H143.274C143.274 93.1679 143.026 93.5814 142.695 93.9122C142.778 93.9122 142.943 93.9122 143.026 93.9122C143.605 93.6641 144.184 93.3333 144.514 92.8371C144.514 93.0025 144.514 93.0852 144.763 93.0025ZM122.433 115.911C122.267 115.58 122.846 115.498 122.764 115.167C122.516 115.332 122.35 115.415 122.185 115.58C122.267 115.828 122.35 115.994 122.433 115.911ZM118.629 117.317C119.207 117.069 119.786 116.738 120.2 116.407C120.035 116.407 119.869 116.325 119.786 116.242C119.704 116.655 119.125 116.738 118.629 116.903C118.629 117.069 118.629 117.152 118.629 117.317ZM114.824 119.881C114.907 120.129 114.742 120.212 114.907 120.377C115.238 120.294 115.238 119.798 114.824 119.881ZM113.17 120.542C113.088 120.873 113.915 120.708 113.584 120.46L113.17 120.542ZM94.5622 126.249C94.7276 126.166 94.893 126.166 94.7276 125.918C94.5622 126.001 94.3968 126.001 94.3968 126.166C94.4795 126.166 94.5622 126.166 94.5622 126.249ZM70.165 127.737C70.0823 128.151 70.8266 127.903 70.5785 127.655L70.165 127.737ZM69.7515 127.572C69.5034 127.489 69.1726 127.407 68.9244 127.159C67.7666 127.159 66.7742 126.828 65.7818 126.249C65.9472 127.076 65.2028 127.241 64.7066 127.903C65.7818 128.068 66.6915 127.572 67.5185 128.399C67.7666 128.151 67.2704 127.82 67.7666 127.737C68.2628 127.655 68.8417 127.737 69.1726 128.151C69.2553 128.151 69.4207 128.068 69.5034 128.068C69.6688 128.068 69.8342 127.986 69.9169 127.903C69.8342 127.82 69.8342 127.655 69.7515 127.572ZM23.5209 102.844C23.5209 102.679 23.4382 102.596 23.5209 102.513C23.1901 102.596 22.7765 102.596 22.2803 102.513C22.0322 101.934 21.536 101.521 20.8744 101.273C21.0398 100.694 20.1301 100.363 19.7166 99.9495C19.6339 99.7841 19.7993 99.7014 19.6339 99.4533C19.0549 99.6187 19.2203 99.1225 18.9722 98.8744C18.7241 98.6263 18.3106 98.5436 18.1452 98.2955C17.9798 98.1301 17.9798 97.882 17.8971 97.7166C17.649 97.3857 17.2355 97.2203 17.1528 96.9722C17.0701 96.8895 17.5663 96.9722 17.0701 96.8895C16.9047 96.8068 16.5739 96.3933 16.3258 95.8971C16.3258 96.0625 16.3258 96.2279 16.4085 96.3106C15.9949 96.3106 15.9949 96.7241 15.3333 96.5587C15.3333 96.6414 15.3333 96.8068 15.2506 96.8895C15.8295 97.9647 16.7393 98.7917 17.649 99.536L18.0625 100.528C18.7241 100.942 19.0549 101.852 19.6339 102.679C19.7993 102.844 20.2128 102.431 20.3782 102.679C20.4609 103.01 20.5436 103.423 20.4609 103.754C20.709 103.754 20.7917 103.919 20.8744 104.167C21.7014 104.002 22.0322 104.829 22.4457 105.491C22.9419 104.664 23.2728 103.754 23.5209 102.844ZM13.4312 92.7544C13.6793 93.0852 13.8447 93.4987 13.9274 93.9949C14.4236 93.7468 14.0101 93.2506 14.0101 92.7544C13.5139 92.2582 13.1831 91.5966 13.0177 90.8523C12.5214 91.1004 12.6042 90.356 12.2733 90.356C12.6869 91.4312 12.356 92.8371 13.1004 93.416C13.4312 93.0852 12.6042 92.8371 13.4312 92.7544ZM10.4539 88.4539L10.9501 88.3712C10.8674 88.2885 10.8674 88.2058 10.7847 88.1231L10.3712 88.2058L10.4539 88.4539ZM3.92041 39.6595H3.8377V39.4114H3.5896V39.6595H3.92041ZM4.66473 60.7486L4.16851 60.914L4.25121 61.1621L4.74743 60.9967L4.66473 60.7486ZM3.42419 65.2972C3.42419 65.3799 3.34149 65.4626 3.42419 65.5453C3.50689 65.9588 3.34149 66.3724 3.755 66.5378C3.6723 66.6205 3.50689 66.7032 3.42419 66.7859C3.5896 67.5302 4.08581 68.1918 4.74743 68.6053C4.91283 68.4399 5.07824 68.3572 5.40905 68.6053C5.40905 68.5226 5.40905 68.3572 5.40905 68.2745C5.16094 67.6129 4.74743 66.7032 5.32634 66.1243C4.66473 66.1243 4.91283 65.3799 4.91283 65.0491C4.58202 64.9664 3.8377 65.2972 3.42419 65.2972ZM6.64958 75.7177C6.89769 75.635 7.06309 75.635 6.89769 75.3869L6.64958 75.4696C6.64958 75.5523 6.64958 75.635 6.64958 75.7177ZM19.2203 21.2996C19.3857 22.3747 17.9798 22.2093 17.8144 23.119C20.0474 22.8709 20.2955 20.8034 21.7841 19.7282C21.9495 19.7282 22.0322 19.7282 22.1976 19.7282C21.9495 19.6455 21.8668 19.4801 21.8668 19.232C21.536 19.3974 21.3706 19.3147 21.2879 19.232C21.1225 19.4801 20.8744 19.6455 20.5436 19.7282C20.4609 20.2244 20.2955 20.3072 20.2955 20.7207C19.7166 20.7207 19.5511 21.0515 19.2203 21.2996ZM60.4061 0.872098C60.4888 -0.451139 58.8348 0.954801 60.4061 0.872098ZM77.0293 -2.436C77.0293 -2.35329 77.0293 -2.27059 77.112 -2.18789C77.2774 -2.18789 77.3601 -2.35329 77.3601 -2.5187C77.2774 -2.5187 77.112 -2.436 77.0293 -2.436ZM80.3374 -3.26302C80.0066 -3.18032 79.7585 -3.01491 79.9239 -2.76681C80.172 -2.84951 80.172 -3.01491 80.3374 -3.26302ZM81.9914 -2.76681C82.0741 -2.6841 82.1568 -2.5187 82.4876 -2.5187C83.0666 -2.5187 83.7282 -2.6014 84.3898 -2.6014C83.9763 -3.09761 84.3071 -3.51113 84.3898 -4.00734C84.1417 -3.75923 83.8109 -3.59383 83.3974 -3.59383C83.1493 -3.92464 84.059 -3.67653 83.8109 -4.00734L82.8184 -3.67653C83.4801 -3.01491 82.3222 -3.18032 81.9914 -2.76681ZM96.6297 3.51857C96.6297 3.60128 96.6297 3.68398 96.7124 3.76668L96.9605 3.68398L96.8778 3.43587L96.6297 3.51857ZM110.937 1.78182C110.855 1.69912 110.689 1.61642 110.606 1.53372C110.606 1.61642 110.524 1.78182 110.524 1.86453C110.689 1.86453 110.855 1.86453 110.937 1.78182ZM150.138 42.0579C149.725 42.1406 149.89 41.5617 149.394 41.5617C149.311 41.7271 149.228 41.8925 149.146 42.0579C149.394 42.2233 150.304 42.2233 150.138 42.0579ZM149.725 44.3735C149.146 44.787 149.725 45.7795 150.386 45.7795C150.221 44.8698 149.973 44.0427 149.559 43.2157C149.394 43.4638 149.311 43.7119 149.146 43.96C149.228 44.2081 149.559 44.2081 149.725 44.3735ZM149.559 42.4714C149.559 42.5541 149.228 42.9676 149.559 42.9676C149.559 42.9676 149.89 42.4714 149.559 42.4714ZM147.078 40.8173H147.326V40.5692H147.078V40.8173ZM86.2919 123.437C85.9611 123.685 85.5476 123.85 85.0514 123.933C85.2995 124.016 84.9687 124.181 84.886 124.429C85.1341 124.347 85.4649 124.347 85.713 124.347C85.8784 124.099 86.1265 123.85 86.3746 123.768L86.2919 123.437ZM73.8866 124.429C75.5406 124.347 77.2774 123.933 79.0141 124.099C79.1795 124.016 79.0141 123.602 79.2622 123.602C80.5855 123.768 81.0817 123.189 82.2395 123.106C82.2395 123.023 82.2395 123.023 82.1568 122.941C80.5855 123.189 79.0968 123.354 77.5255 123.685C77.3601 123.768 77.5255 123.933 77.3601 124.016C76.2023 123.354 75.3752 124.429 74.1347 124.099C74.1347 124.264 74.052 124.347 73.8866 124.429ZM28.4003 101.438C28.5657 101.438 28.5657 101.355 28.5657 101.273C28.6484 101.19 28.5657 101.19 28.5657 101.107H28.483C28.4003 101.273 28.3176 101.355 28.2349 101.438C28.3176 101.438 28.3176 101.438 28.4003 101.438ZM10.0404 86.2209C10.0404 86.0555 10.0404 85.9728 10.0404 85.8074C9.95768 85.8074 9.87497 85.8074 9.79227 85.9728C9.79227 86.1382 9.95768 86.2209 10.0404 86.2209ZM35.0992 9.72125C35.0165 9.63855 34.7684 9.55584 34.7684 9.80395C34.8511 9.88665 35.0165 9.96936 35.1819 9.96936C35.1819 9.88665 35.0992 9.80395 35.0992 9.72125ZM35.1819 8.81152V8.64612H34.7684C34.603 8.97693 34.5203 9.30774 35.0165 9.30774C35.0165 9.14233 35.0992 8.97693 35.1819 8.81152ZM35.8435 10.631C34.8511 10.7137 33.9414 10.631 33.197 10.4656C33.1143 11.0445 33.2797 11.6234 33.4451 12.1196C33.0316 12.4504 32.7008 12.8639 32.37 13.2775C32.37 13.3602 32.37 13.3602 32.37 13.3602C32.4527 13.4429 32.4527 13.4429 32.5354 13.4429C33.2797 13.3602 34.2722 13.112 35.3473 13.0293C35.6781 12.6158 36.0916 12.1196 36.5051 11.6234C36.7532 11.2926 37.4976 10.9618 37.663 10.5483C37.2495 10.5483 36.6705 10.631 36.257 10.631C36.1743 10.631 36.1743 10.7137 36.1743 10.7137C36.0089 10.7137 35.9262 10.631 35.8435 10.631ZM45.0235 10.5483C45.1062 10.5483 45.1062 10.4656 45.1889 10.4656C45.1062 10.4656 45.0235 10.4656 45.0235 10.5483ZM147.822 70.1767C148.071 70.094 148.153 69.8459 148.071 69.5978C147.905 69.6805 147.822 69.9286 147.822 70.1767ZM117.884 101.686C117.884 101.604 117.802 101.604 117.802 101.521C117.719 101.604 117.553 101.686 117.471 101.769C117.636 101.852 117.719 101.769 117.884 101.686ZM114.328 108.468C114.08 108.054 114.907 108.137 114.659 107.889C114.08 107.972 114.245 108.137 113.666 108.137C113.832 108.468 113.997 108.633 114.328 108.468ZM113.501 107.806C113.749 107.641 114.08 107.558 113.915 107.31C113.666 107.31 113.336 107.393 113.501 107.806ZM102.253 115.498C101.592 115.663 100.848 115.911 100.351 116.159C100.765 116.242 100.848 116.49 100.93 116.903C101.096 116.738 101.344 116.573 101.178 116.242C101.757 116.242 101.84 115.746 102.253 115.498ZM29.0619 98.6263C29.2273 98.4609 29.4754 98.4609 29.7235 98.5436C29.5581 98.2128 29.3927 97.9647 29.2273 97.6338C28.7311 97.7166 28.5657 98.0474 28.4003 98.4609C28.6484 98.4609 28.8965 98.5436 29.0619 98.6263ZM25.6711 93.0852L25.5884 92.8371L25.0922 93.0025V93.0852L25.1749 93.2506L25.6711 93.0852ZM7.47661 52.4784C7.47661 52.6438 7.55931 52.7265 7.72471 52.8919C7.97282 52.313 8.30363 51.8994 8.71714 51.4032C8.63444 51.0724 8.63444 50.7416 8.46903 50.4108C7.55931 50.907 8.22093 52.2303 7.47661 52.4784ZM23.6863 19.8109C23.6036 19.8109 23.5209 19.8109 23.4382 19.8109V20.1417H23.6863V19.8109ZM48.6624 15.5104C48.7451 15.6758 48.9932 15.8412 49.324 15.9239C49.5721 15.7585 49.8202 15.5931 50.0683 15.4277C49.6548 15.4277 49.1586 15.5104 48.6624 15.5104ZM86.5401 8.56342C86.5401 8.39801 86.7055 8.39801 86.7055 8.1499H86.4573C86.4573 8.31531 86.2919 8.31531 86.2919 8.48072L86.3746 8.56342H86.5401ZM106.471 7.73639C106.306 7.8191 106.058 7.8191 105.81 7.8191C105.975 7.9018 106.141 7.9845 106.389 8.0672C106.471 8.0672 106.554 8.0672 106.637 8.0672L106.471 7.73639ZM108.043 12.4504C107.877 12.7812 108.125 12.6158 108.043 12.9466C108.622 13.0293 108.622 12.3677 108.043 12.4504ZM113.666 15.7585C113.501 16.0066 113.501 16.0893 113.749 16.172C113.749 16.0066 113.832 15.8412 113.915 15.7585H113.666ZM131.447 43.3811C131.53 43.4638 131.53 43.4638 131.447 43.3811C131.778 43.133 132.192 42.8849 132.523 42.5541C132.274 42.2233 132.44 42.0579 132.605 41.8098C132.357 41.9752 132.026 41.9752 131.778 42.0579C132.026 42.6368 131.613 42.9676 131.447 43.3811ZM140.71 71.0864C140.379 70.921 140.545 71.0864 140.214 71.2518C140.214 71.748 140.958 71.4999 140.71 71.0864ZM139.056 77.041L138.973 76.9583C138.891 76.8756 138.808 76.8756 138.643 76.8756C138.643 76.8756 138.643 76.9583 138.643 77.041C138.725 76.9583 138.891 76.9583 139.056 77.041ZM115.32 100.777C115.817 100.28 116.313 99.7014 116.809 99.2879C116.644 99.2879 116.644 99.2052 116.644 99.0398C117.057 98.8744 117.471 98.6263 117.884 98.2955C117.636 98.2955 117.471 98.2955 117.223 98.2955C116.809 98.709 116.23 98.9571 115.734 98.9571C115.734 98.9571 115.817 98.9571 115.817 99.0398C115.155 99.4533 115.072 100.115 114.742 100.611C114.99 100.611 115.155 100.694 115.32 100.777ZM89.1038 115.249C88.8557 115.498 89.6 115.58 89.5173 115.415C89.4346 115.332 89.4346 115.249 89.1038 115.249ZM84.886 115.58C84.8033 115.167 85.2168 115.249 85.4649 115.084C84.9687 115.001 84.3071 115.167 83.8936 115.415C83.9763 115.498 84.059 115.58 84.059 115.663C84.3898 115.498 84.6379 115.498 84.886 115.58ZM80.9163 116.903C81.0817 116.821 81.3298 116.738 81.4125 116.655C81.1644 116.407 80.9163 116.159 80.7509 115.828C80.4201 115.994 80.2547 116.49 79.6758 116.242C79.6758 116.655 79.9239 116.903 80.2547 117.069C80.5028 116.986 80.6682 116.986 80.9163 116.903ZM79.0968 120.129L79.4276 119.963V119.881C79.1795 119.633 78.9314 119.963 79.0968 120.129ZM61.812 120.46C61.8948 121.039 60.985 120.625 61.812 120.46ZM54.3688 113.678C54.5342 113.513 54.1207 112.934 54.1207 113.265L54.3688 113.678ZM9.95768 66.5378C9.95768 66.6205 9.95768 66.7032 9.95768 66.7859C10.0404 67.034 10.2058 67.1167 10.5366 67.034C10.6193 66.6205 10.3712 66.4551 9.95768 66.5378ZM11.4463 44.0427L11.529 44.2908L11.7771 44.2081L11.6944 43.96L11.4463 44.0427ZM12.0252 60.7486C12.0252 61.1621 12.0252 61.4929 11.9425 61.8237C12.6042 61.8237 12.356 61.0794 12.0252 60.7486ZM10.7847 75.8004C10.7847 75.8831 10.7847 75.8831 10.7847 75.9658C10.7847 76.0485 10.7847 76.1312 10.8674 76.2139C10.8674 76.0485 10.7847 75.9658 10.7847 75.8004ZM25.423 22.4574C25.6711 22.4574 25.5057 22.5401 25.423 22.7882C25.5057 22.8709 25.6711 22.8709 25.7538 22.8709C25.7538 22.5401 25.5057 22.1266 25.423 22.4574ZM59.1656 16.4201C59.0829 16.0893 58.8348 15.5931 58.9175 15.4277C58.504 15.4277 58.5867 15.7585 58.1731 15.7585C57.7596 15.4277 57.5942 15.5931 56.9326 15.8412C56.9326 15.5931 56.7672 15.6758 56.6018 15.5931C56.6845 15.9239 56.6845 16.3374 56.6018 16.6682L56.6845 16.751C57.5942 16.0893 58.0077 16.8337 59.1656 16.4201ZM121.11 33.5395C121.606 33.6222 121.854 33.2087 121.358 33.126C121.358 33.3741 121.192 33.3741 121.11 33.5395ZM135.748 52.1476C135.417 52.0649 135.169 51.8994 135.004 51.8994C135.169 51.5686 135.583 51.4032 135.583 51.0724C135.004 51.1551 134.921 51.734 134.342 51.8994C134.507 52.1476 134.507 52.4784 134.342 52.8092C134.59 53.2227 134.921 53.6362 135.334 53.967C135.5 53.8016 135.5 53.5535 135.831 53.5535C135.583 53.14 135.583 52.6438 135.748 52.1476ZM94.5622 115.498C94.4795 115.332 94.3968 115.084 94.1487 115.249C94.2314 115.415 94.3968 115.498 94.5622 115.498ZM70.4958 119.054C70.3304 118.723 70.0823 118.475 69.8342 118.309C69.5861 118.392 69.2553 118.392 69.0072 118.392C68.8417 118.888 69.4207 119.219 69.6688 119.55C69.5034 118.806 69.9169 118.971 70.4958 119.054ZM63.5488 115.58C64.2931 115.663 63.4661 116.325 63.5488 115.58ZM16.5739 68.688C16.9047 68.688 16.9874 68.5226 16.822 68.1918C16.5739 68.2745 16.4912 68.4399 16.5739 68.688ZM17.5663 58.5156C17.7317 59.0118 17.649 59.26 17.1528 59.4254C16.9047 59.8389 16.9047 60.4178 16.9874 60.914C17.4009 60.7486 17.9798 60.5005 18.2279 60.087C18.2279 60.0043 18.1452 59.9216 18.0625 59.8389C18.476 59.5081 18.1452 59.4254 18.0625 58.9291C18.1452 58.8464 18.1452 58.7637 18.2279 58.681C18.1452 58.5983 17.9798 58.5156 17.8971 58.4329C17.7317 58.5156 17.649 58.5156 17.5663 58.5156ZM18.8895 67.6956C18.9722 67.6129 18.9722 67.5302 18.8895 67.4475H18.8068L18.8895 67.6956ZM24.596 36.8476C24.6787 37.3438 24.6787 37.84 24.596 38.3363C25.0095 38.0882 25.3403 37.7573 25.6711 37.4265C25.1749 36.9303 25.9192 36.5168 25.7538 36.0206C25.5884 36.0206 25.423 36.1033 25.2576 36.1033C25.0922 36.5168 24.7614 36.5995 24.596 36.8476ZM30.3025 22.292C30.6333 22.292 30.8814 22.292 31.2949 22.2093C31.3776 22.2093 31.3776 22.1266 31.4603 22.1266C31.4603 22.1266 31.4603 22.0439 31.4603 21.9612C31.1295 21.9612 31.1295 21.7131 30.7987 21.465C30.716 21.7958 30.3852 21.7958 30.2198 21.8785C30.0543 22.1266 29.9716 22.3747 29.9716 22.6228H30.0543C30.0543 22.5401 30.2198 22.3747 30.3025 22.292ZM39.1516 27.6677C39.1516 27.585 39.2343 27.5023 39.1516 27.2541C39.0689 27.4196 39.0689 27.585 38.9862 27.6677H39.1516ZM40.9711 27.4196C40.8884 27.5023 40.9711 27.585 41.0538 27.585C41.1365 27.5023 41.1365 27.5023 41.2192 27.4196C41.1365 27.4196 41.0538 27.4196 40.9711 27.4196ZM108.043 18.9839C108.125 19.232 107.96 19.6455 108.291 19.4801C108.373 19.3147 108.208 19.0666 108.043 18.9839ZM115.486 25.9309C115.155 25.5174 114.659 25.352 114.08 25.352C113.915 25.8482 113.749 26.2617 113.584 26.7579C113.997 26.9233 114.08 26.7579 114.742 26.6752C114.824 26.7579 114.824 26.8406 114.907 26.8406C115.072 26.5925 115.238 26.179 115.486 25.9309ZM118.794 32.4644C119.207 32.3817 119.125 32.6298 119.538 32.6298C119.538 32.299 119.538 31.8855 119.373 31.7201C118.794 31.472 119.042 32.299 118.794 32.4644ZM130.372 81.9204C130.455 81.8377 130.538 81.755 130.538 81.6723C130.29 81.5896 129.959 81.5896 129.793 81.8377C129.959 81.8377 130.207 81.8377 130.372 81.9204C130.372 81.8377 130.372 81.8377 130.372 81.9204ZM125.245 95.1528C125.245 94.9047 125.741 94.9047 125.493 94.5739C124.997 94.4912 124.831 95.0701 125.245 95.1528ZM116.148 96.5587C116.313 96.5587 116.478 96.5587 116.561 96.6414C116.561 96.476 116.561 96.3933 116.478 96.3106C116.396 96.3106 116.23 96.3106 116.148 96.3106C116.148 96.3933 116.148 96.476 116.148 96.5587ZM114.493 96.9722C114.576 96.9722 114.659 96.9722 114.659 96.9722C114.824 96.7241 114.99 96.3933 115.155 96.1452C114.824 96.2279 114.328 96.3933 114.493 96.9722ZM94.5622 84.1534C94.6449 84.4842 94.8103 84.6496 95.1411 84.4842C95.2238 84.0707 94.893 84.2361 94.5622 84.1534ZM94.1487 85.4766C94.3968 85.642 94.893 85.4766 94.7276 85.1458H94.6449C94.4795 85.0631 94.2314 85.2285 94.1487 85.4766ZM58.504 92.0101C58.9175 92.1755 58.9175 91.4312 58.504 91.5966V92.0101ZM52.7148 89.8598C52.7975 90.1079 52.5494 90.7696 52.9629 90.6041C53.1283 90.356 53.3764 90.0252 53.4591 89.6944C53.1283 89.529 52.7975 89.4463 52.3013 89.529C52.4667 89.6117 52.6321 89.7771 52.7148 89.8598ZM48.9105 88.3712C48.8278 88.2885 48.8278 88.2058 48.8278 88.1231L48.5797 88.2058L48.6624 88.4539L48.9105 88.3712ZM37.2495 95.0701H37.0013V95.3182H37.2495V95.0701ZM30.6333 88.6193C30.6333 88.8674 30.3852 88.8674 30.3025 89.0328C30.4679 89.2809 30.8814 89.1982 31.3776 89.1982V88.7847C30.7987 88.9501 31.1295 88.702 30.6333 88.6193ZM29.8889 87.1307C29.7235 86.9652 29.3927 86.9652 29.31 87.2961C29.3927 87.4615 29.8889 87.4615 29.8889 87.1307ZM23.0246 72.2442C23.6863 71.6653 22.6938 71.8307 23.0246 72.2442ZM36.8359 20.638L36.9186 20.8861L37.1667 20.8034L37.084 20.5553L36.8359 20.638ZM47.0083 28.6601C46.9256 28.6601 46.8429 28.6601 46.7602 28.7428C46.5948 28.8255 46.5121 28.9909 46.5948 29.1563C46.6775 29.1563 46.7602 29.0736 46.8429 29.0736C46.9256 28.9082 47.0083 28.9082 47.0083 28.6601ZM60.9023 26.3444C60.8196 26.179 60.985 25.7655 60.5715 25.9309C60.5715 26.0963 60.4061 26.179 60.3234 26.3444C60.4888 26.3444 60.6542 26.3444 60.9023 26.3444ZM77.112 23.8634C77.0293 23.9461 76.9466 24.0288 76.7812 24.1115C77.1947 24.2769 77.5255 24.3596 78.0217 24.4423C77.6082 24.2769 77.3601 24.1115 77.112 23.8634ZM116.23 31.6374C116.147 30.6449 117.057 29.8179 116.23 29.3217C116.147 29.3217 116.147 29.239 116.065 29.239C116.644 29.9833 115.072 31.1412 116.23 31.6374ZM120.448 50.3281C120.613 50.9897 120.035 51.2378 120.035 51.734C120.365 51.734 120.696 51.5686 121.027 51.4859C121.11 51.0724 121.192 50.6589 121.44 50.3281C121.027 50.2454 120.696 50.2454 120.448 50.3281ZM119.29 82.0858C119.29 82.0858 119.29 82.0858 119.207 82.1685C119.207 82.4166 119.125 82.582 119.042 82.8301C119.29 82.582 119.207 82.3339 119.29 82.0858ZM111.93 70.2594C111.93 70.4248 112.095 70.5902 112.178 70.8383C112.426 70.5075 112.922 70.2594 112.343 70.0113C112.178 70.0113 112.012 70.1767 111.93 70.2594ZM76.6985 106.4C76.5331 106.235 76.3677 105.987 76.2023 105.739C75.7887 105.739 75.3752 105.739 74.879 105.739C75.1271 106.235 75.5406 106.814 75.6233 107.145C75.9541 106.979 76.285 106.731 76.6985 106.4ZM61.3985 101.934C61.4812 101.852 61.3985 101.604 61.2331 101.604C60.9023 101.604 61.1504 102.1 61.3985 101.934ZM22.0322 59.1773C22.1149 59.3427 21.6187 59.6735 22.0322 59.5908C22.0322 59.5081 22.0322 59.4254 22.1149 59.4254C22.2803 59.5081 22.363 59.6735 22.6111 59.5908C22.6111 59.5081 22.6111 59.4254 22.6111 59.3427C22.6938 59.3427 22.6938 59.26 22.6938 59.26C22.6111 59.1773 22.363 59.0946 22.0322 59.1773ZM23.8517 55.9519C23.8517 55.9519 23.769 56.0346 23.769 56.1173C23.8517 56.1173 23.8517 56.1173 23.9344 56.1173C23.9344 56.0346 23.8517 56.0346 23.8517 55.9519ZM32.9489 21.7958C32.9489 21.8785 32.9489 22.0439 32.9489 22.2093C33.0316 22.1266 33.1143 22.1266 33.197 22.0439C33.2797 21.8785 33.197 21.7958 32.9489 21.7958ZM34.5203 23.119L34.603 23.3671L35.0992 23.2017L35.0165 22.9536L34.5203 23.119ZM57.925 28.412C58.0904 28.1639 57.8423 28.1639 57.6769 27.8331C57.098 27.8331 57.4288 28.6601 57.925 28.412ZM56.7672 29.5698C56.8499 29.5698 56.8499 29.5698 56.8499 29.4044C56.7672 29.4044 56.7672 29.4044 56.6845 29.4044C56.6018 29.4871 56.7672 29.4871 56.7672 29.5698ZM64.045 29.1563C63.8796 29.1563 63.7142 29.239 63.5488 29.3217C63.5488 29.4044 63.4661 29.4871 63.3834 29.4871C63.6315 29.5698 63.9623 29.7352 64.2104 29.9006C64.3758 29.6525 64.6239 29.5698 64.872 29.6525C64.9547 29.4871 65.2028 29.4044 65.2028 29.239C65.0374 29.1563 64.872 29.0736 64.7066 29.0736C64.5412 29.239 64.3758 29.4044 64.045 29.4044C64.045 29.3217 64.045 29.239 64.045 29.1563ZM75.2098 26.179C75.0444 26.179 74.879 26.2617 74.7136 26.2617C75.0444 26.6752 75.2098 27.1714 75.2098 27.6677C75.706 27.5023 75.706 27.6677 76.285 27.6677C76.285 26.9233 77.4428 27.1714 77.939 26.9233L78.0217 26.7579C76.9466 26.7579 75.8714 26.8406 75.2098 26.179ZM97.4568 28.3293V28.1639H97.2087V28.3293C97.2914 28.3293 97.3741 28.3293 97.4568 28.3293ZM101.344 23.2017C101.344 23.119 101.178 23.119 101.013 23.0363C100.93 23.119 100.848 23.2844 100.848 23.3671C100.848 23.4498 100.93 23.4498 100.93 23.5325C100.93 23.2017 101.096 23.2017 101.344 23.2017ZM110.441 26.179C110.689 25.9309 110.855 25.6001 110.855 25.2693C109.779 25.1039 109.614 25.6001 108.952 25.7655C109.449 26.0136 109.945 26.179 110.441 26.179ZM115.817 31.7201C115.817 31.6374 115.734 31.6374 115.651 31.5547C115.734 31.6374 115.734 31.6374 115.817 31.7201ZM126.154 77.1237C126.733 77.2064 127.23 77.7026 127.974 77.4545C127.809 76.462 127.147 76.5447 126.733 75.8831C126.32 76.2139 126.32 76.7102 126.154 77.1237ZM128.387 75.2215C128.305 75.3042 128.305 75.3869 128.305 75.5523C128.305 75.5523 128.387 75.5523 128.47 75.5523C128.387 75.4696 128.387 75.4696 128.387 75.4696C128.387 75.3869 128.387 75.3042 128.387 75.2215ZM125.162 79.6047L125.079 79.3566L124.831 79.4393L124.914 79.6874L125.162 79.6047ZM125.824 89.4463L125.576 89.529L125.658 89.7771L125.906 89.6944L125.824 89.4463ZM107.877 86.6344C108.043 86.5517 108.208 86.469 108.373 86.3863C108.291 86.3863 108.291 86.3036 108.291 86.2209C108.208 86.3036 108.208 86.469 107.877 86.469C107.877 86.5517 107.877 86.5517 107.877 86.6344ZM106.719 86.469C106.719 86.469 106.719 86.3863 106.637 86.3036C106.554 86.3036 106.471 86.3863 106.389 86.3863L106.471 86.5517L106.719 86.469ZM75.706 104.746C75.8714 105.325 74.879 104.829 75.706 104.746ZM41.3019 66.0416C41.2192 66.1243 41.0538 66.2897 40.9711 66.3724C41.1365 66.3724 41.3846 66.207 41.3019 66.0416ZM35.43 84.3188C35.6781 84.4842 35.9262 84.6496 36.257 84.815C36.6705 84.3188 36.5051 83.5745 37.084 82.9955C36.7532 82.9955 36.5051 82.9955 36.257 83.0782C36.0089 83.4917 35.7608 83.9053 35.43 84.3188ZM26.829 44.2081C26.6636 44.6216 27.0771 44.4562 27.4079 44.4562V44.0427C27.1598 44.0427 27.0771 44.2081 26.829 44.2081ZM31.1295 39.3287C31.2122 39.246 31.2949 39.3287 31.543 39.3287C31.4603 39.3287 31.2949 39.246 31.1295 39.3287ZM32.7835 25.6001C32.7835 25.5174 32.7835 25.5174 32.7835 25.6001ZM31.543 73.8156L31.6257 74.0637L31.8738 73.981L31.7911 73.7329L31.543 73.8156ZM38.7381 40.1557C38.8208 40.1557 38.9035 40.1557 38.9035 40.1557C38.9862 39.9903 39.0689 39.9076 39.0689 39.7422C38.9035 39.8249 38.8208 39.9903 38.7381 40.1557ZM33.9414 45.6141L34.0241 45.8622L34.2722 45.7795L34.1895 45.5314L33.9414 45.6141ZM35.5954 56.2H35.8435V55.9519H35.5954V56.2ZM34.2722 74.4772C34.5203 74.6426 34.8511 74.5599 35.0992 74.5599C35.1819 74.3945 35.2646 74.1464 35.2646 73.981C34.9338 73.8983 34.2722 73.8983 34.2722 74.4772ZM38.7381 46.1103L38.4073 46.193V46.2757H38.7381V46.1103ZM33.6105 55.7038C33.5278 55.7865 33.4451 55.8692 33.5278 55.9519C33.6105 55.9519 33.776 56.0346 33.8587 56.1173C33.9414 55.9519 33.8587 55.7038 33.6105 55.7038ZM38.0765 57.6059C38.49 57.3578 39.0689 57.1924 39.6478 56.9443C39.5651 56.7789 39.5651 56.6962 39.6478 56.5308L38.8208 56.7789C38.7381 57.1097 38.4073 57.4405 38.0765 57.6059ZM40.2267 54.3805C40.2267 54.794 40.9711 54.5459 40.6402 54.2978L40.2267 54.3805ZM39.7305 39.4941C39.7305 39.4114 39.7305 39.4114 39.7305 39.3287C39.5651 39.4114 39.3997 39.5768 39.2343 39.6595C39.3997 39.6595 39.5651 39.5768 39.7305 39.4941ZM37.9938 66.1243C38.0765 66.207 38.0765 66.2897 38.0765 66.3724H38.1592L37.9938 66.1243ZM48.4143 69.6805C48.497 69.7632 48.497 69.8459 48.6624 69.9286C48.6624 69.9286 48.5797 69.6805 48.4143 69.6805ZM46.5121 45.8622C46.7602 45.6968 46.9256 45.4487 47.0083 45.1179C46.8429 45.0352 46.7602 44.8697 46.5948 44.787C46.0986 44.9525 45.6024 45.2006 45.1889 45.5314C45.0235 45.8622 44.6927 46.193 44.6927 46.7719C44.3619 46.9373 44.2792 47.1854 43.8656 47.2681C43.8656 47.7643 43.5348 48.2605 43.0386 48.426C43.0386 48.7568 42.9559 49.0876 42.7078 49.3357C43.2867 49.3357 43.8656 49.3357 44.4446 49.3357C44.61 49.1703 44.6927 49.0049 44.8581 48.8395C45.2716 47.9297 46.264 47.1027 46.5121 45.8622ZM33.3624 36.5168C33.6105 36.5168 33.776 36.5168 33.9414 36.4341C34.1895 36.1033 34.5203 35.8552 35.0165 35.6898C35.0165 35.6071 35.0165 35.6071 35.0165 35.5244C34.1895 35.5244 33.2797 35.7725 33.3624 36.5168ZM33.8587 27.9158C34.1068 28.3293 33.3624 28.2466 33.6105 28.6601C33.8587 28.5774 34.1068 28.5774 34.2722 28.6601C34.3549 28.3293 34.5203 27.9158 34.7684 27.6677C34.5203 27.8331 34.1895 27.9158 33.8587 27.9158ZM30.6333 72.575C30.3025 72.9885 30.0543 73.4021 29.8062 73.8983C30.0543 73.981 30.3025 74.0637 30.5506 74.2291C30.7987 73.981 30.9641 73.7329 31.1295 73.4021C31.6257 73.3194 32.1219 73.0713 32.4527 72.6577C32.5354 72.4923 32.5354 72.3269 32.6181 72.1615C32.6181 71.9961 32.37 71.9134 31.9565 71.9134C31.4603 71.9961 30.9641 72.2442 30.6333 72.575ZM31.9565 78.5296C31.8738 78.7777 31.7084 79.0258 31.6257 79.3566C31.7911 79.3566 31.8738 79.3566 32.0392 79.3566C32.37 79.4393 32.5354 79.9355 33.1143 79.6874C33.3624 78.9431 32.4527 78.7777 31.9565 78.5296ZM37.2495 77.1237C37.1668 77.041 37.1667 77.041 37.1667 77.041C37.0013 76.9583 36.7532 76.9583 36.5051 76.9583C36.4224 77.041 36.4224 77.2064 36.4224 77.3718C36.8359 77.4545 36.7532 76.9583 37.2495 77.1237ZM90.5098 29.8179C90.5098 29.9006 90.4271 30.066 90.3444 30.2314C90.7579 30.1487 91.4195 30.066 91.1714 29.7352L90.7579 29.9006C90.6752 29.9006 90.5925 29.9006 90.5098 29.8179ZM109.366 35.8552C109.449 36.4341 108.456 36.0206 109.366 35.8552ZM99.3589 51.8167C98.9454 50.7416 99.9378 50.2454 100.848 50.5762C100.93 50.4935 100.93 50.4935 100.93 50.4935C100.517 50.2454 100.103 49.9973 99.5243 49.9146C98.8627 50.3281 98.1184 50.7416 98.1184 51.4859C98.6146 51.5686 98.78 51.9821 99.3589 51.8167ZM64.3758 62.7335C64.4585 62.6508 64.4585 62.4854 64.4585 62.4026C64.3758 62.2372 64.2104 62.0718 64.1277 61.9064C63.9623 61.9064 63.7969 61.9064 63.6315 61.9891C63.9623 62.2372 64.1277 62.4854 64.3758 62.7335ZM55.2786 60.087C55.6094 59.3427 56.6018 59.1773 56.9326 58.681C56.8499 58.4329 56.7672 58.1848 56.6845 58.0194C56.4364 58.1021 56.271 58.3502 56.271 58.5983C55.444 58.9292 54.6996 59.26 54.6169 59.9216C54.7823 59.8389 55.0305 60.1697 55.2786 60.087ZM93.3216 38.0882C93.4043 38.2536 92.9081 38.5017 93.3216 38.419C93.3216 38.3363 93.3216 38.2536 93.4043 38.2536C93.5697 38.419 93.7352 38.5844 94.1487 38.3363C94.066 38.0055 93.6525 38.0882 93.3216 38.0882ZM98.4492 43.5465C98.3665 43.7119 98.3665 43.7946 98.4492 43.8773C98.6146 43.96 98.8627 43.96 99.0281 44.0427C99.0281 43.7119 98.78 43.6292 98.4492 43.5465ZM101.426 76.8756C101.426 76.9583 101.344 77.041 101.261 77.1237C101.509 77.1237 101.757 77.1237 101.675 76.8756H101.426ZM103.081 52.5611L102.832 52.6438L102.915 52.8919L103.163 52.8092L103.081 52.5611ZM102.75 47.3508C102.75 47.2681 102.75 47.1854 102.75 47.1027C102.667 47.1854 102.667 47.2681 102.667 47.3508H102.75ZM102.502 41.7271C102.336 41.8925 102.336 42.2233 102.419 42.4714C102.502 42.3887 102.584 42.306 102.667 42.1406C102.667 41.9752 102.667 41.8098 102.502 41.7271ZM100.848 40.8173C101.096 40.7346 101.426 40.8173 101.344 40.7346C101.178 40.5692 100.765 40.073 100.682 40.3211C100.93 40.3211 100.848 40.6519 100.848 40.8173ZM99.4416 36.5995C99.4416 36.5995 99.5243 36.5995 99.5243 36.6822C99.5243 36.5995 99.5243 36.5995 99.4416 36.5168V36.5995ZM94.5622 45.8622C94.7276 46.0276 95.0584 46.0276 95.3065 46.0276L95.3892 45.9449C95.2238 45.6968 95.0584 45.5314 95.0584 45.366C94.9757 45.366 94.893 45.366 94.8103 45.366C94.893 45.6141 94.4795 45.5314 94.5622 45.8622ZM81.3298 63.0643C81.3298 62.9816 81.3298 62.8162 81.1644 62.5681C80.999 62.4853 80.9163 62.1545 80.7509 62.1545C80.3374 62.0718 79.7585 62.1545 79.3449 62.3199V62.4026C79.0141 62.9816 78.8487 63.6432 79.0141 64.2221C79.4276 64.1394 79.8412 64.2221 80.3374 64.3875C80.5855 64.1394 80.6682 63.8086 80.5028 63.5605C81.0817 63.6432 80.7509 62.9816 81.3298 63.0643ZM66.5261 30.9758C66.6088 31.2239 66.7742 31.3066 67.0223 31.2239C67.0223 31.0585 66.9396 30.8931 66.8569 30.8104C66.6915 30.8104 66.6915 30.7276 66.5261 30.9758ZM74.4655 41.3135C73.9693 41.3963 73.4731 41.1481 73.3077 40.7346C73.0596 40.7346 72.8115 40.7346 72.5634 40.7346C72.8115 41.3963 73.0596 41.9752 73.8039 42.2233C73.9693 41.8925 74.4655 41.8098 74.4655 41.3135ZM76.8639 38.5017H76.6158C76.6158 38.7498 76.6985 38.7498 76.8639 38.7498V38.5017ZM75.706 44.5389C75.8714 44.4562 76.0369 44.3735 75.8714 44.2081C75.706 44.2908 75.5406 44.2908 75.5406 44.4562C75.6233 44.4562 75.706 44.4562 75.706 44.5389ZM72.8942 47.5989C72.7288 47.6816 72.6461 47.7643 72.5634 47.6816C72.2325 48.3432 71.819 49.0049 71.2401 49.5838C71.5709 49.6665 71.9017 49.7492 72.3152 49.8319C72.3152 49.7492 72.3979 49.5838 72.3979 49.4184C73.4731 49.1703 73.4731 48.0951 74.1347 47.5162C74.2174 47.4335 74.2174 47.3508 74.2174 47.2681C74.3001 46.9373 73.9693 46.6065 73.6385 46.6065H73.3904L73.3077 46.7719C73.3904 47.1027 73.1423 47.3508 72.8942 47.5989ZM74.1347 52.6438C74.2174 52.6438 74.3001 52.6438 74.4655 52.4784C74.3001 52.5611 74.2174 52.4784 74.1347 52.4784C74.1347 52.5611 74.1347 52.5611 74.1347 52.6438ZM70.4131 60.4178C70.4958 60.4178 70.4958 60.4178 70.4958 60.5005C70.4958 60.4178 70.4958 60.4178 70.4958 60.4178H70.4131ZM66.4434 53.14C66.278 53.2227 66.1953 53.3054 66.0299 53.4708C66.1126 53.4708 66.1953 53.5535 66.278 53.5535C66.3607 53.3881 66.3607 53.3054 66.4434 53.14ZM68.3455 53.8843C68.1801 54.0497 68.1801 54.2151 68.1801 54.3805C68.3455 54.3805 68.4282 54.2978 68.5936 54.2978C68.5936 54.1324 68.6763 54.0497 68.759 53.8843C68.6763 53.8016 68.5109 53.8016 68.3455 53.8843ZM76.0369 44.9525C76.0369 44.9525 76.1196 44.8697 76.1196 44.7043L75.9541 44.8697C75.9541 44.9524 76.0369 44.9525 76.0369 44.9525ZM72.2325 40.7346C72.1498 40.7346 72.0671 40.7346 71.9844 40.7346V40.8173L72.2325 40.7346ZM66.3607 39.7422C66.278 39.6595 66.0299 39.6595 65.9472 39.7422C66.1126 39.8249 66.1953 39.8249 66.3607 39.9076C66.3607 39.9076 66.3607 39.8249 66.3607 39.7422ZM66.6915 43.0503C66.5261 43.2157 66.3607 43.3811 66.1126 43.4638C66.3607 43.8773 66.6915 44.1254 67.1877 44.2081C67.105 44.787 67.4358 45.1179 68.0147 45.1179C68.3455 44.9525 68.2628 44.4562 69.0899 44.6216C69.1726 43.4638 67.4358 43.6292 67.0223 42.8022C66.8569 42.8849 66.7742 42.9676 66.6915 43.0503ZM63.3007 45.2833C63.1353 45.4487 63.0526 45.5314 62.8872 45.6141C62.8872 45.4487 62.7218 45.2833 62.7218 45.5314C62.6391 45.5314 62.5564 45.6141 62.6391 45.6968C62.9699 45.7795 63.1353 46.2757 63.6315 46.6065C63.7142 46.6065 63.7142 46.6892 63.7969 46.7719C63.9623 46.8546 64.045 46.9373 64.2104 46.9373C64.2104 46.5238 64.3758 46.0276 63.9623 46.0276C63.9623 46.2757 63.7969 46.3584 63.5488 46.2757C63.3007 45.9449 63.3007 45.6141 63.3007 45.2833ZM73.3077 90.8523C73.5558 91.0177 73.8039 91.1004 73.8866 91.1831C74.1347 90.8523 75.0444 91.0177 74.9617 90.4387C74.7963 90.356 74.6309 90.1906 74.5482 90.0252C74.052 90.1079 73.4731 90.0252 73.1423 89.6944C73.0596 89.8598 72.9769 90.0252 72.8942 90.2733C72.9769 90.356 73.0596 90.4387 73.1423 90.5214C73.225 90.6042 73.225 90.7696 73.3077 90.8523ZM90.9233 41.9752C91.4195 41.9752 91.7503 41.6444 91.9157 41.1481C91.6676 41.479 91.3368 41.7271 90.9233 41.9752ZM85.713 40.073C85.7957 40.073 85.8784 40.073 86.0438 40.073C86.1265 39.9903 86.2092 39.9076 86.2919 39.8249C86.0438 39.9076 85.8784 39.9903 85.713 40.073ZM88.5249 72.9885L88.2768 73.0713V73.154L88.5249 72.9885ZM88.2768 36.3514C88.1941 36.7649 89.1038 36.8476 89.1038 36.5168C88.6903 36.5995 88.6903 36.2687 88.2768 36.3514ZM82.7357 46.2757L82.653 46.3584C82.653 46.4411 82.653 46.5238 82.653 46.6065C82.653 46.4411 82.7357 46.3584 82.7357 46.2757ZM68.9244 33.7049C69.0072 33.6222 69.0899 33.6222 69.1726 33.4568C68.8417 33.2087 68.3455 33.2087 67.932 33.4568C68.2628 33.5395 68.5936 33.6222 68.9244 33.7049ZM66.8569 31.6374L66.5261 31.7201C66.6915 31.7201 66.7742 31.7201 66.8569 31.6374ZM54.1207 57.2751V57.3578C54.2034 57.3578 54.2034 57.2751 54.2861 57.2751H54.1207ZM55.0305 57.9367C55.0305 58.0194 55.0305 58.1021 55.0305 58.2675L55.2786 58.1848L55.1959 57.9367H55.0305ZM58.7521 72.2442C58.3385 72.2442 58.3386 72.4923 58.0077 72.575C58.0904 72.9058 58.3385 73.154 58.6694 73.2367C58.8348 72.9885 59.0002 72.8231 59.0829 72.575C58.9175 72.575 58.7521 72.4096 58.7521 72.2442ZM60.6542 58.1848C61.3158 58.4329 61.3985 59.0946 61.812 59.5908C62.3083 59.5908 62.1429 59.1773 62.3083 59.0119C62.0602 58.5983 61.4812 58.5983 61.2331 57.854C61.0677 58.0194 60.5715 57.9367 60.6542 58.1848ZM94.066 47.847C94.066 47.9297 94.1487 48.0951 94.1487 48.1778C94.4795 48.1778 94.3968 47.7643 94.1487 47.6816C94.1487 47.7643 94.066 47.7643 94.066 47.847ZM101.013 81.5896C101.013 81.755 101.178 81.8377 101.261 81.9204C101.675 81.8377 101.592 80.7626 102.336 80.5145C102.336 80.5145 102.336 80.4318 102.336 80.3491C102.336 80.4318 102.253 80.4318 102.253 80.4318C101.344 80.3491 101.261 81.1761 101.013 81.5896ZM105.231 63.0643C105.313 63.0643 105.313 63.0643 105.313 62.9816C105.231 62.9816 105.231 63.0643 105.231 63.0643ZM106.637 75.9658C106.719 75.9658 106.802 75.9658 106.885 75.9658C107.05 75.8831 107.298 75.8004 107.464 75.7177C107.546 75.7177 107.629 75.7177 107.712 75.7177V75.635C107.629 75.5523 106.637 75.7177 106.637 75.9658ZM108.291 73.8983C108.373 74.0637 108.373 74.3945 108.622 74.3945C108.622 74.2291 109.118 73.6502 108.787 73.6502C108.787 73.8156 108.456 73.8156 108.291 73.8983ZM97.6222 36.0206C97.4568 36.186 97.2914 36.2687 97.1259 36.3514C97.4568 36.5168 97.8703 36.5995 98.2838 36.5168C98.1184 36.186 97.7049 36.3514 97.6222 36.0206ZM95.0584 38.7498C94.9757 38.6671 94.893 38.5844 94.8103 38.5844C94.6449 38.6671 94.4795 38.8325 94.3968 38.9979C94.5622 39.0806 94.893 39.1633 95.0584 38.7498ZM85.2168 36.8476C85.2168 36.7649 85.2168 36.7649 85.1341 36.7649L85.2168 36.8476ZM61.3158 42.8022C61.1504 42.8849 60.985 42.9676 60.8196 43.133C60.7369 43.4638 60.6542 43.7119 60.5715 44.0427C60.7369 44.2081 60.9023 44.3735 61.0677 44.6216C61.3985 44.3735 61.6466 44.0427 61.812 43.7119C61.8948 43.6292 61.8947 43.6292 61.9775 43.6292C61.812 43.2984 61.5639 43.0503 61.3158 42.8022ZM54.1207 48.6741C54.1207 48.6741 54.1207 48.5914 54.1207 48.426C54.038 48.3432 53.7072 48.5086 53.7072 48.5914C53.7072 48.6741 53.7072 48.6741 53.7072 48.6741C53.7899 48.6741 53.9553 48.6741 54.1207 48.6741ZM55.7748 68.688C55.8575 69.0188 56.0229 69.2669 56.1056 69.4323C56.5191 69.4323 57.098 69.4323 57.5115 69.5978C57.5942 69.3496 58.0077 69.2669 58.1731 69.0188C57.5115 68.0264 56.7672 68.3572 55.7748 68.688ZM56.7672 77.2064C56.5191 77.2891 55.6094 77.1237 56.0229 77.7026C56.3537 77.3718 56.8499 77.7026 56.7672 77.2064ZM58.9175 80.928C58.7521 81.3415 58.504 81.6723 58.4213 82.1685C59.0829 82.2512 58.9175 81.5069 59.4964 81.4242C59.4137 81.3415 59.331 81.2588 59.331 81.1761C59.1656 81.0934 59.0002 81.0107 58.9175 80.928ZM70.9093 103.588C70.8266 103.506 70.7439 103.506 70.6612 103.506L70.5785 103.588C70.6612 103.588 70.8266 103.588 70.9093 103.588ZM76.7812 99.2879C77.112 99.2879 77.4428 99.2879 77.939 99.2052C77.939 98.9571 77.939 98.709 77.8563 98.4609C77.7736 98.4609 77.6909 98.3782 77.6082 98.3782C77.1947 98.709 76.9466 98.9571 76.7812 99.2879ZM102.336 93.1679C102.419 93.2506 102.419 93.3333 102.502 93.4987C102.419 93.416 102.419 93.2506 102.336 93.1679ZM114.08 45.1179C114.163 45.1179 114.245 45.1179 114.245 45.2006C114.245 45.0352 114.245 44.9525 114.245 44.787C114.163 44.787 114.08 44.787 113.997 44.787C114.08 44.8697 114.163 45.0352 114.08 45.1179ZM117.471 61.9891H117.057C117.057 62.3199 116.809 62.2372 117.057 62.4853C117.388 62.4853 117.471 62.3199 117.471 61.9891ZM115.155 75.3042C115.569 75.4696 115.569 74.7253 115.155 74.8907V75.3042ZM117.636 76.5447C117.636 76.3793 117.719 76.2139 117.802 75.8831C117.802 75.7177 117.719 75.5523 117.636 75.4696C117.471 75.2215 117.305 74.9734 117.057 74.6426C116.644 75.3869 116.478 76.3793 115.651 76.7929C115.734 76.8756 115.817 76.9583 115.899 77.041C116.396 76.5447 116.644 76.7102 117.388 76.7929C117.471 76.7102 117.553 76.6275 117.636 76.5447ZM111.433 44.3735C111.351 44.0427 111.516 43.8773 111.599 43.7946C111.268 43.7119 111.02 43.6292 110.772 43.4638C110.772 43.7119 110.689 43.96 110.606 44.2081C110.772 44.2908 111.02 44.3735 111.433 44.3735ZM94.3968 27.9158V27.6677C94.1487 27.3369 93.5697 27.4196 93.0735 27.2541C93.3216 27.7504 93.9006 27.9985 94.3968 27.9158ZM72.8115 27.006C72.4806 26.7579 72.0671 26.5925 71.6536 26.5098C71.6536 26.7579 71.4882 26.9233 71.3228 27.0887C71.6536 27.585 72.1498 27.9985 72.7288 28.3293C72.8115 28.3293 72.8942 28.2466 72.9769 28.1639C72.8942 27.7504 72.6461 27.5023 72.8115 27.006ZM61.0677 31.2239C60.985 31.3066 60.8196 31.3893 60.6542 31.472C60.4888 31.7201 60.3234 32.0509 60.158 32.3817C60.8196 32.6298 61.5639 32.7952 62.3083 32.7952C62.1429 32.299 61.9775 31.8028 61.812 31.3066C61.4812 31.472 61.2331 31.7201 61.0677 31.2239ZM55.8575 45.6141C55.2786 45.8622 54.6996 46.193 53.9553 46.5238C54.038 46.6065 54.038 46.7719 53.9553 46.8546C53.9553 47.1854 53.9553 47.5162 54.1207 47.6816C55.2786 47.1854 55.2786 46.5238 55.8575 45.6141ZM32.6181 25.6828C32.4527 25.6001 32.2873 25.6828 32.1219 25.7655C32.1219 25.9309 32.2873 25.9309 32.4527 25.9309C32.4527 25.8482 32.37 25.8482 32.37 25.7655C32.4527 25.7655 32.5354 25.6828 32.6181 25.6828ZM26.9944 44.8697C26.829 44.8697 26.6636 44.8697 26.6636 45.1179C26.829 45.0352 26.9117 44.9524 26.9944 44.8697ZM30.6333 81.4242C30.9641 81.8377 31.4603 81.8377 31.8738 82.0858C31.9565 81.9204 31.9565 81.8377 32.0392 81.6723H31.9565C31.8738 81.6723 31.7911 81.3415 31.7911 81.3415C31.543 81.2588 31.543 81.5896 31.2949 81.5896C31.0468 81.5896 30.7987 81.0934 30.716 81.2588C30.6333 81.3415 30.6333 81.3415 30.6333 81.4242ZM32.5354 81.4242C32.37 81.5069 32.2873 81.5896 32.1219 81.6723C32.2046 81.6723 32.37 81.6723 32.37 81.6723C32.4527 81.5896 32.4527 81.5069 32.5354 81.4242ZM36.7532 90.7696C36.8359 90.6868 36.8359 90.5214 36.8359 90.4387C36.8359 90.6042 36.7532 90.6868 36.7532 90.7696ZM45.6024 91.3485C45.9332 91.5966 46.264 91.8447 46.1813 92.1755C46.4294 92.3409 46.7602 92.3409 47.1737 92.5063C46.9256 91.762 46.4294 91.2658 45.6024 91.3485ZM51.7224 86.9652C51.7224 87.0479 51.7224 87.1307 51.8051 87.2134H51.8878C51.8878 87.1307 51.8051 87.0479 51.7224 86.9652ZM63.9623 86.8825V87.3788H64.2104V86.8825H63.9623ZM70.3304 108.881C70.2477 108.964 70.165 109.129 70.0823 109.212L70.5785 109.047L70.4958 108.799L70.3304 108.881ZM72.5634 111.114C72.3152 111.197 72.0671 111.28 71.9017 111.362C72.6461 111.528 73.3904 111.693 74.1347 111.941C74.1347 111.859 74.052 111.693 74.052 111.611C73.8866 111.28 73.3077 111.032 72.9769 111.445C72.8115 111.362 72.7288 111.197 72.5634 111.114ZM105.231 92.9198C105.81 92.5063 106.306 92.0101 106.471 91.5139C105.975 91.3485 105.479 91.1831 104.983 90.935C104.652 89.6117 104.156 89.2809 103.908 88.5366C103.411 88.5366 103.908 89.0328 103.411 89.1155C103.825 89.6944 103.329 89.9425 103.329 90.356C103.411 90.4387 103.494 90.5214 103.577 90.6041C104.321 91.6793 104.238 92.9198 105.231 92.9198ZM108.043 88.6193C108.125 88.7847 107.96 89.1982 108.291 89.1155C108.373 88.8674 108.291 88.6193 108.043 88.6193ZM108.043 79.7701C108.125 79.7701 108.208 79.8528 108.208 79.7701C108.291 79.7701 108.373 79.7701 108.373 79.6874C108.291 79.4393 108.125 79.3566 107.96 79.3566C107.877 79.522 108.043 79.522 108.043 79.7701ZM125.245 81.0934C125.576 80.7626 125.989 80.4318 126.485 80.2664C125.741 80.3491 124.914 80.4318 124.17 80.5145C124.418 80.928 124.831 81.0934 125.245 81.0934ZM127.478 47.4335L127.312 47.5162V47.5989C127.312 47.5162 127.478 47.5162 127.478 47.4335ZM119.869 48.9222C119.786 48.4259 119.042 48.5914 119.373 49.0876L119.869 48.9222ZM117.14 50.08C117.305 50.3281 117.471 50.4935 117.719 50.6589C118.463 50.08 118.298 49.1703 118.877 48.5087C118.711 48.5087 118.546 48.426 118.463 48.3432C118.298 48.426 118.132 48.5914 117.967 48.7568C116.396 48.6741 115.899 49.0049 114.99 48.9222C114.99 49.0049 114.99 49.0049 114.99 49.0876C115.072 49.1703 115.072 49.1703 115.155 49.253C115.32 49.3357 115.486 49.3357 115.403 49.5838C116.313 49.4184 116.23 50.1627 117.14 50.08ZM113.253 29.4044C113.418 29.239 113.584 29.1563 113.749 28.9909C113.501 28.9909 113.336 29.0736 113.17 29.0736C113.17 29.1563 113.17 29.3217 113.253 29.4044ZM108.787 24.3596C108.87 24.2769 108.87 24.1942 108.952 24.0288C108.787 24.0288 108.704 23.9461 108.539 23.9461C108.539 24.1115 108.622 24.2769 108.787 24.3596ZM107.712 23.6979C107.546 23.6979 107.381 23.6979 107.216 23.6152V23.6979C107.298 23.6979 107.546 23.6979 107.712 23.6979ZM106.885 34.0357C106.719 33.7049 106.389 33.4568 106.058 33.3741C105.81 33.6222 105.644 33.953 105.644 34.2838C105.975 34.4493 106.306 34.6974 106.637 34.8628C106.554 34.6147 106.719 34.3665 106.885 34.0357ZM103.742 31.472C103.494 31.1412 103.411 30.8103 103.081 30.6449C102.998 31.1412 102.75 31.6374 102.419 32.0509C102.832 31.8028 103.246 31.6374 103.742 31.472ZM100.351 21.7958C100.269 21.7958 100.186 21.7958 100.103 21.7958C100.103 21.9612 100.021 22.1266 99.9378 22.292C100.682 22.2093 100.517 22.8709 101.013 23.0363C101.013 22.6228 101.096 22.292 101.096 22.0439C100.93 22.1266 100.765 22.2093 100.682 22.0439C100.517 21.6304 101.013 21.6304 100.682 21.2169C99.8551 21.0515 100.682 21.7131 100.351 21.7958ZM98.8627 19.9763L98.6146 20.059V20.1417H98.8627V19.9763ZM86.7882 28.6601C86.7055 28.5774 86.6227 28.4947 86.4573 28.4947V28.5774C86.54 28.5774 86.7055 28.6601 86.7882 28.6601ZM80.999 29.1563C81.1644 29.1563 81.3298 29.0736 81.4952 29.0736C81.7433 28.8255 81.9914 28.7428 82.3222 28.7428C82.2395 28.1639 81.9087 27.6677 81.2471 27.5023C81.2471 27.5023 81.1644 27.5023 81.0817 27.5023C80.6682 27.9985 80.2547 28.4947 79.6758 28.9082C80.0066 28.9909 80.2547 29.239 80.6682 28.8255C80.7509 28.9909 80.9163 29.0736 80.999 29.1563ZM61.0677 26.4271C61.0677 26.4271 61.0677 26.4271 61.1504 26.5098V26.4271H61.0677ZM54.7823 21.9612L54.6169 22.0439C54.6169 22.1266 54.6169 22.2093 54.6169 22.292L54.865 22.2093L54.7823 21.9612ZM31.8738 26.0963C31.7911 26.2617 31.7084 26.3444 31.6257 26.5098V26.5925C31.7911 26.5098 31.8738 26.5098 32.0392 26.5098C32.0392 26.4271 32.1219 26.4271 32.2046 26.3444C32.2046 26.2617 32.2046 26.179 32.2046 26.0963C32.1219 26.0963 31.9565 26.0963 31.8738 26.0963ZM25.3403 54.0497C24.9268 54.2978 24.6787 54.6286 24.5133 55.2075C24.7614 54.9594 25.0922 54.794 25.3403 54.5459C25.3403 54.4632 25.3403 54.4632 25.3403 54.3805C25.8365 53.8843 26.3327 53.2227 26.5808 52.5611L26.3327 52.313C26.3327 52.3957 26.25 52.4784 26.25 52.5611C25.7538 52.6438 25.8365 53.14 25.423 53.2227V54.0497H25.3403ZM22.2803 73.0713V73.3194H22.5284V73.0713H22.2803ZM32.9489 88.6193C32.9489 88.7847 32.7835 89.1982 33.197 89.1155C33.3624 88.8674 33.2797 88.6193 32.9489 88.6193ZM49.1586 88.0404H48.9932L49.0759 88.2885H49.2413C49.2413 88.2058 49.1586 88.1231 49.1586 88.0404ZM49.2413 81.1761C49.324 81.3415 49.4067 81.4242 49.5721 81.5896C49.9856 81.1761 50.3991 80.8453 50.978 80.4318C50.8953 80.1837 50.8126 79.9355 50.6472 79.6874C50.151 80.0183 49.6548 80.5145 49.2413 81.1761ZM60.985 109.626C61.3158 109.791 61.5639 109.956 61.7293 110.205C61.8948 110.039 61.9775 109.874 61.9775 109.626C61.812 109.46 61.7293 109.295 61.7293 109.129C61.2331 109.378 60.7369 108.799 60.9023 108.468C60.8196 108.385 60.7369 108.468 60.5715 108.468C60.5715 108.881 60.7369 109.295 60.985 109.626ZM64.5412 101.273C64.6239 101.273 64.7066 101.273 64.7893 101.19H64.5412V101.273ZM81.4125 102.265C81.4125 102.348 81.3298 102.431 81.3298 102.596C81.4952 102.596 81.5779 102.679 81.6606 102.761C81.4952 102.596 81.6606 102.513 81.5779 102.265C81.4952 102.265 81.4952 102.265 81.4125 102.265ZM87.8633 105.656L87.6152 105.739L87.6979 105.987L87.946 105.904L87.8633 105.656ZM102.502 103.092C102.832 103.175 103.081 103.423 103.246 103.671C103.411 103.671 103.659 103.588 103.825 103.506C103.99 103.506 103.99 103.423 103.908 103.258C103.659 103.092 103.246 103.092 102.915 103.258C102.832 103.175 102.667 103.009 102.502 102.927C102.584 103.009 102.502 103.01 102.502 103.092ZM107.795 82.7474C108.208 82.582 108.622 82.3339 109.035 82.0858C108.952 81.755 108.787 81.5069 108.456 81.4242C108.456 81.5069 108.539 81.755 108.456 81.8377C108.291 82.0858 108.043 82.1685 107.877 82.3339C107.795 82.4993 107.795 82.582 107.795 82.7474ZM131.944 64.6356C131.944 64.5529 131.944 64.5529 131.944 64.6356ZM127.56 44.4562V44.2081H127.23V44.4562H127.56ZM117.305 30.5622C117.057 30.9758 117.884 30.9758 117.884 30.7276C117.636 30.6449 117.636 30.4795 117.305 30.5622ZM104.652 19.3147C104.735 18.9839 104.652 18.7358 104.404 18.8185C104.404 19.0666 104.073 18.9839 104.156 19.3147C104.238 19.3147 104.321 19.3147 104.404 19.3974C104.486 19.3974 104.569 19.3147 104.652 19.3147ZM95.0584 19.4801C95.2238 19.4801 95.3065 19.3974 95.4719 19.232C95.2238 19.232 94.9757 19.1493 95.0584 19.4801ZM83.3147 20.2244C83.232 20.1417 83.232 20.1417 83.3147 20.2244ZM64.872 25.352C64.7066 25.352 64.4585 25.2693 64.2931 25.1866C64.1277 25.5174 63.9623 25.7655 63.7969 26.0136C64.2104 25.8482 64.5412 25.6001 64.872 25.352ZM62.3083 17.2472C62.4737 17.1645 62.5564 16.9991 62.6391 16.9164C62.3083 16.6682 61.8948 16.5855 61.3985 16.6682C61.5639 16.9991 61.8947 17.1645 62.3083 17.2472ZM53.5418 18.0742C53.211 18.2396 53.1283 18.1569 53.1283 17.9915C53.0456 18.0742 52.9629 18.1569 52.8802 18.2396L52.9629 18.3223C53.211 18.5704 53.4591 18.5704 53.7072 18.405L53.5418 18.0742ZM31.9565 31.5547C31.2122 31.6374 30.3852 31.5547 29.7235 31.3893C30.2198 31.8855 29.7235 32.8779 29.8062 33.5395C30.0543 33.5395 30.2198 33.5395 30.4679 33.5395C30.9641 32.8779 31.7911 32.3817 31.9565 31.5547ZM22.1149 53.8016C22.2803 53.967 22.363 54.1324 22.363 54.2151C22.4457 53.967 22.4457 53.7189 22.363 53.5535C22.7765 53.14 23.5209 53.0573 23.4382 52.1476C23.8517 52.0649 23.9344 51.734 24.0998 51.4032C23.769 51.4032 23.3555 51.4032 22.9419 51.4859C22.9419 52.313 22.9419 53.14 22.1149 53.8016ZM26.6636 82.3339C26.6636 82.6647 26.7463 82.9955 26.9117 83.3263C26.9944 83.409 27.1598 83.4917 27.2425 83.4917C27.0771 82.9955 27.3252 82.9128 27.4906 82.7474C27.1598 82.7474 27.0771 82.2512 26.6636 82.3339ZM29.2273 84.4015C29.2273 84.4842 29.1446 84.6496 29.0619 84.7323C29.1446 84.815 29.31 84.815 29.3927 84.8977C29.3927 84.815 29.4754 84.7323 29.5581 84.7323C29.6408 84.7323 29.6408 84.6496 29.6408 84.5669C29.5581 84.4842 29.5581 84.4015 29.2273 84.4015ZM28.7311 88.0404C28.8965 88.3712 28.9792 88.6193 29.1446 88.9501C29.3927 88.702 29.8889 88.6193 30.137 88.2058C29.7235 88.5366 29.0619 88.4539 28.7311 88.0404ZM32.5354 90.1079C32.5354 90.1906 32.6181 90.1906 32.7008 90.1906C32.6181 90.1079 32.6181 90.1079 32.5354 90.1079ZM33.5278 93.416C33.5278 93.3333 33.5278 93.2506 33.5278 93.1679C33.4451 93.0852 33.2797 93.0852 33.197 93.0025C33.3624 93.1679 33.4451 93.2506 33.5278 93.416ZM44.6927 95.7317C45.3543 96.1452 45.8505 96.7241 45.9332 97.4684C46.3467 97.2203 46.9256 96.9722 47.0083 96.476C46.3467 96.3933 45.6851 95.9798 45.5197 95.4009C45.2716 95.4009 45.1062 95.3182 44.9408 95.3182C44.8581 95.4836 44.7754 95.649 44.6927 95.7317ZM49.8202 91.6793C49.9029 91.8447 50.0683 92.0101 50.2337 91.9274C50.151 91.762 50.0683 91.5139 49.8202 91.6793ZM49.6548 90.7696C50.0683 90.6868 50.4818 90.935 50.7299 91.4312C50.7299 91.3485 50.7299 91.3485 50.7299 91.2658C50.2337 90.7696 49.9856 90.0252 50.151 89.3636C50.0683 89.1982 49.8202 89.2809 49.6548 89.1982C49.5721 89.1982 49.4067 89.1982 49.2413 89.1982C49.2413 88.7847 48.6624 88.702 48.4143 88.9501C48.5797 89.1982 48.6624 89.3636 48.8278 89.6117C49.0759 89.9425 49.7375 90.1906 49.6548 90.7696ZM57.1807 92.1755C56.1883 91.5966 56.0229 93.1679 56.1056 93.5814C56.7672 93.3333 57.098 92.7544 57.1807 92.1755ZM60.7369 94.0776C60.8196 94.1603 60.985 94.243 61.1504 94.4912C61.3158 94.4085 61.4812 94.4085 61.6466 94.3258C61.7293 94.4912 61.8947 94.5739 62.0602 94.7393C62.1429 94.5739 62.4737 94.4912 62.6391 94.4085C62.6391 94.2431 62.6391 94.1603 62.6391 94.0776C62.1429 94.0776 61.9775 93.4987 61.4812 93.1679C61.3158 93.4987 61.1504 93.6641 60.6542 93.3333V94.0776H60.7369ZM58.504 108.302C58.3385 108.302 58.0904 108.385 58.0077 108.551C58.1731 108.633 58.2558 108.716 58.3385 108.799C58.504 108.716 58.5867 108.468 58.504 108.302ZM99.607 107.889C99.7724 107.889 99.8551 107.806 99.5243 107.724C99.5243 107.806 99.607 107.806 99.607 107.889ZM106.885 105.739V105.987H107.133V105.904C107.05 105.821 107.05 105.821 106.968 105.739H106.885C106.885 105.656 106.885 105.656 106.885 105.739ZM122.185 92.4236L122.267 92.6717L122.516 92.589L122.433 92.3409L122.185 92.4236ZM131.282 86.3863H131.447C131.447 86.3036 131.53 86.2209 131.53 86.1382H131.282V86.3863ZM132.44 64.1394C132.771 63.974 133.267 63.8086 133.184 63.4778C133.019 63.7259 132.688 63.8913 132.44 64.1394ZM113.253 20.638C113.005 20.3899 112.591 20.2244 112.012 20.059C111.599 20.059 111.02 20.2244 110.689 20.4726C110.855 20.4726 110.855 20.5553 110.855 20.7207C110.689 20.7207 110.441 20.8034 110.276 20.8861C110.358 20.9688 110.358 20.9688 110.358 21.0515C111.103 21.2169 111.847 21.465 112.509 21.7958C112.509 21.2996 113.088 21.0515 113.253 20.638ZM110.358 19.232C110.276 19.232 110.11 19.232 109.945 19.232C109.945 19.3974 110.11 19.4801 110.358 19.4801V19.232ZM104.404 18.4877C104.652 18.4877 104.817 18.3223 104.817 18.0742C104.735 18.1569 104.569 18.1569 104.404 18.1569C104.404 18.2396 104.404 18.405 104.404 18.4877ZM98.0357 17.1645C98.0357 16.9991 98.0357 16.8337 97.953 16.6682C97.7876 16.8337 97.7876 16.9991 97.953 17.1645H98.0357ZM82.9011 9.47314L83.1493 9.39044C83.1493 9.30774 83.0666 9.22504 83.0666 9.14233L82.8184 9.22504C82.8184 9.30774 82.9011 9.39044 82.9011 9.47314ZM66.7742 11.458C66.7742 11.458 66.7742 11.458 66.6915 11.5407C66.7742 11.5407 66.7742 11.5407 66.8569 11.5407C66.8569 11.5407 66.8569 11.458 66.7742 11.458ZM67.2704 13.7737H66.9396V14.0218H67.2704V13.7737ZM60.0753 13.6083C60.4061 13.8564 60.4888 13.1947 60.2407 13.1947C60.2407 13.2775 60.158 13.3602 60.0753 13.3602V13.6083ZM48.497 24.6077C48.4143 24.4423 48.2489 24.3596 48.0008 24.2769C47.6699 24.6904 47.4218 25.1039 47.0083 25.5174C47.0083 25.6001 47.091 25.7655 47.091 25.7655C47.5045 25.8482 48.0835 25.5174 48.5797 25.5174C48.6624 25.5174 48.6624 25.5174 48.6624 25.5174C49.324 25.2693 49.9856 24.8558 50.3991 24.3596C49.9856 24.3596 49.6548 24.2769 49.2413 24.1115C48.9105 24.2769 48.7451 24.4423 48.497 24.6077ZM41.0538 24.7731C41.2192 24.6904 41.4673 24.6077 41.4673 24.4423C41.3019 24.525 41.1365 24.6077 41.0538 24.7731ZM26.3327 28.5774C26.4154 28.5774 26.4981 28.5774 26.5808 28.4947L26.3327 28.5774C26.4154 28.5774 26.4154 28.5774 26.3327 28.5774ZM34.603 97.7993C34.4376 98.2955 34.3549 98.709 34.2722 99.2052C34.9338 99.2879 35.43 99.7014 36.0089 99.8668C35.9262 98.8744 35.2646 98.3782 34.603 97.7993ZM35.43 97.0549C35.5954 97.1376 36.5878 97.0549 36.5878 96.7241C36.3397 96.5587 35.43 96.7241 35.43 97.0549ZM35.3473 95.1528C35.7608 95.4009 36.1743 95.5663 36.5878 95.7317C36.3397 95.2355 35.9262 94.9047 35.43 94.5739C35.43 94.7393 35.3473 94.9874 35.3473 95.1528ZM37.9938 99.4533C37.7457 99.7014 37.4149 99.9495 37.4976 100.446C38.1592 100.694 38.1592 99.9495 37.9938 99.4533ZM38.8208 99.4533C38.9035 99.536 38.9035 99.536 38.9862 99.536C38.9862 99.536 38.9035 99.4533 38.8208 99.4533ZM41.2192 96.3933C41.2192 96.5587 41.3846 96.8068 41.4673 96.8895C41.55 96.6414 41.55 96.3933 41.3846 96.2279C41.3019 96.3106 41.3019 96.3106 41.2192 96.3933ZM42.7905 97.7993C42.9559 97.5511 43.1213 97.5511 43.204 97.6338C43.1213 97.303 43.1213 96.9722 43.204 96.6414C42.7905 96.7241 42.9559 96.3106 42.5424 96.3933C42.2943 96.6414 42.2116 96.9722 42.1289 97.303C42.377 97.3857 42.6251 97.5511 42.7905 97.7993ZM49.8202 101.438V101.686H50.0683V101.521L49.9856 101.438H49.8202ZM54.6169 94.4085C54.7823 94.4912 54.9477 94.4912 55.0305 94.5739C55.0305 94.4085 54.9477 94.3258 54.6169 94.4085ZM57.3461 113.513C57.3461 113.595 57.4288 113.595 57.4288 113.595L57.3461 113.513ZM60.985 119.467C60.985 119.467 60.9023 119.385 60.8196 119.302C60.9023 119.385 60.985 119.385 60.985 119.467ZM61.2331 119.963L61.4812 119.881L61.3985 119.633L61.1504 119.715C61.1504 119.798 61.2331 119.881 61.2331 119.963ZM64.1277 116.986C64.1277 117.069 64.1277 117.152 64.2104 117.152C64.2931 117.152 64.2931 117.069 64.3758 117.069C64.2931 116.986 64.2104 116.986 64.1277 116.986ZM94.2314 109.874C94.3141 109.791 94.4795 109.626 94.5622 109.46C94.4795 109.129 94.3968 108.799 94.5622 108.633C93.9006 108.22 93.0735 107.889 92.4119 107.475C91.9984 107.806 91.5849 107.972 91.0887 108.054C90.8406 108.633 90.5925 109.212 90.2617 109.708C90.4271 109.874 90.5098 110.122 90.5098 110.37C91.6676 110.784 93.0735 109.957 94.2314 109.874ZM106.141 107.062C106.306 107.062 106.471 106.979 106.554 106.897C106.637 106.566 106.637 106.318 106.554 105.987C106.389 106.069 106.141 105.987 106.141 106.152C106.637 106.483 105.644 106.566 105.562 106.814C105.562 106.979 106.141 106.814 106.141 107.062ZM109.366 98.3782C109.449 98.3782 109.449 98.3782 109.366 98.3782ZM111.185 99.7014C111.103 99.7841 111.103 99.8668 111.02 100.032C111.268 100.032 111.599 99.536 111.268 99.6187C111.268 99.6187 111.268 99.6187 111.185 99.7014ZM135.169 80.4318C135.252 80.5145 135.334 80.5145 135.334 80.5145C135.334 80.4318 135.252 80.4318 135.169 80.4318ZM120.944 29.5698C121.275 29.1563 121.523 28.7428 121.606 28.2466C121.027 28.5774 120.365 28.8255 119.704 28.9082C120.035 29.239 120.531 29.4871 120.944 29.5698ZM112.012 16.751C112.012 16.751 112.095 16.6682 112.178 16.751C111.93 16.5855 111.847 16.2547 111.351 16.3374C111.599 16.5028 111.764 16.5855 112.012 16.751ZM100.599 12.5331C100.517 12.5331 100.517 12.5331 100.517 12.6158C100.517 12.6985 100.599 12.7812 100.682 12.7812C100.599 12.6985 100.599 12.6158 100.599 12.5331ZM83.232 9.55585C83.3147 9.55585 83.3974 9.47314 83.5628 9.39044C83.4801 9.39044 83.3147 9.39044 83.232 9.47314V9.55585ZM79.0968 8.64612C78.8487 8.31531 78.5179 8.0672 77.939 8.0672C78.2698 8.72882 78.6833 9.30774 79.3449 9.72125C79.2622 9.39044 79.1795 8.97693 79.0968 8.64612ZM75.4579 9.05963C75.9542 8.97693 75.7887 8.39801 75.3752 8.56342C75.4579 8.81152 75.1271 8.89423 75.4579 9.05963ZM74.5482 9.05963L74.7963 8.97693L74.7136 8.72882L74.4655 8.81152L74.5482 9.05963ZM41.3846 17.2472C41.4673 17.578 41.7154 17.578 42.0462 17.4126C41.8808 17.1645 41.55 16.9164 41.3846 17.2472ZM26.9117 26.2617C26.829 26.2617 26.7463 26.2617 26.6636 26.179V26.2617H26.9117ZM8.22093 55.2902C8.22093 55.6211 8.13822 55.8692 8.05552 56.2C8.13822 56.4481 8.22093 56.7789 8.30363 57.1097C8.63444 57.027 8.46903 56.7789 8.88255 56.7789L8.55174 55.7865L9.13065 55.6211C9.04795 55.3729 8.96525 55.2075 8.88255 54.9594C8.63444 55.1248 8.46903 55.2075 8.22093 55.2902ZM14.1755 87.5442C14.4236 88.1231 14.8371 88.702 15.416 89.0328C15.5814 88.702 15.7468 88.3712 15.8295 87.9577C15.416 87.7096 15.0025 87.3788 14.589 87.0479C14.4236 87.2133 14.2582 87.3788 14.1755 87.5442ZM18.3106 92.9198C18.8068 93.0025 18.9722 93.416 19.3857 93.9122C19.5511 93.9122 19.6339 93.9122 19.7993 93.9122C19.7166 93.4987 19.3857 93.6641 19.3857 93.2506C19.6339 93.2506 19.6339 93.0852 19.5511 92.9198C19.4684 92.8371 19.3857 92.7544 19.3857 92.6717C18.9722 92.6717 18.5587 92.589 18.1452 92.4236C18.2279 92.589 18.3106 92.7544 18.3106 92.9198ZM19.5511 94.3258C19.5511 94.4085 19.6339 94.4912 19.7166 94.4912H19.7993L19.7166 94.2431L19.5511 94.3258ZM21.2052 87.6269C21.2879 88.1231 21.3706 88.6193 21.6187 89.0328C21.8668 88.702 21.9495 88.2885 21.8668 87.9577C21.7014 87.7923 21.4533 87.6269 21.2052 87.6269ZM48.497 102.017C48.6624 102.1 48.7451 102.1 48.8278 102.182C48.8278 102.017 48.7451 101.934 48.6624 101.852C48.5797 101.934 48.5797 101.934 48.497 102.017ZM52.6321 102.679C52.384 102.844 52.2186 103.01 52.0532 103.092C52.384 103.258 52.7148 103.34 53.211 103.423C52.9629 103.175 52.7975 102.927 52.6321 102.679ZM55.2786 106.318C55.0305 106.318 54.7823 106.318 54.865 106.566C55.0305 106.566 55.1959 106.483 55.2786 106.318ZM54.1207 114.092H54.2034C54.2034 114.009 54.2034 113.844 54.1207 113.844C54.1207 113.844 54.1207 113.926 54.038 113.926C54.1207 114.009 54.1207 114.009 54.1207 114.092ZM62.391 120.542C62.8045 120.542 63.7142 120.791 63.4661 119.963C62.8872 120.46 62.8045 119.881 62.0602 119.963C61.9774 120.294 62.391 120.129 62.391 120.542ZM66.8569 122.362C66.9396 122.362 67.0223 122.445 67.105 122.527C67.105 122.279 67.1877 122.031 66.8569 122.114V122.362ZM85.2995 118.227C85.4649 118.227 85.5476 118.144 85.7957 118.061C85.6303 117.896 85.5476 117.731 85.6303 117.482C85.3822 117.482 85.1341 117.482 84.886 117.565C85.1341 117.648 85.3822 117.813 85.2995 118.227ZM94.066 122.114C94.066 122.031 94.066 121.948 94.1487 121.7C93.7352 121.618 93.7352 121.948 93.3216 121.866C93.4043 121.452 92.9908 121.618 92.7427 121.618C92.5773 122.114 92.3292 122.445 91.9984 122.775C92.4946 123.023 92.8254 122.61 92.9908 122.196C93.2389 122.196 93.6525 122.196 94.066 122.114ZM104.652 116.655V117.069H104.9C104.9 116.986 105.065 116.903 105.065 116.821C104.9 116.738 104.9 116.655 104.652 116.655ZM112.178 104.002C112.674 103.671 113.17 103.258 113.584 102.844C113.336 102.844 113.17 102.761 112.922 102.679C112.591 103.092 112.343 103.506 112.178 104.002ZM122.433 97.7993C121.937 97.882 122.019 98.2128 122.019 98.4609C122.185 98.4609 122.433 98.2955 122.598 98.1301L122.433 97.7993ZM128.553 108.716C128.636 109.295 127.809 109.047 127.891 109.626H129.049C128.966 109.378 129.132 108.799 128.553 108.716ZM130.041 100.032C130.124 99.9495 130.041 99.8668 130.041 99.7841V100.032ZM140.627 80.7626C140.462 80.7626 140.379 80.5972 140.214 80.7626L140.297 81.0107C140.545 81.0934 140.627 81.0107 140.627 80.7626ZM142.281 41.3963C142.199 41.479 141.951 41.479 141.951 41.6444C142.033 41.6444 142.116 41.6444 142.116 41.7271C142.281 41.6444 142.447 41.5617 142.281 41.3963ZM143.274 51.0724C143.274 51.1551 143.274 51.3205 143.274 51.4032C143.357 51.4032 143.439 51.4032 143.439 51.4032C143.357 51.2378 143.357 51.1551 143.274 51.0724ZM145.59 51.734L145.672 51.8994C145.672 51.8167 145.755 51.734 145.838 51.6513L145.59 51.734ZM145.424 51.1551L145.176 51.2378C145.176 51.3205 145.259 51.4032 145.259 51.4859L145.507 51.4032L145.424 51.1551ZM145.011 71.8307H145.176C145.259 71.6653 145.341 71.3345 144.928 71.4172C145.011 71.4999 144.928 71.748 145.011 71.8307ZM145.92 62.4026C145.92 62.4026 145.92 62.4026 145.92 62.3199H145.755C145.838 62.3199 145.838 62.4026 145.92 62.4026ZM145.755 60.2524V60.0043H145.424V60.2524H145.755ZM144.763 78.5296C144.68 79.1085 144.597 79.6047 144.514 80.101C144.514 80.1837 144.514 80.2664 144.514 80.3491C144.763 80.2664 145.093 80.1837 145.176 80.5145C146.251 80.101 145.011 79.3566 145.59 78.7777C145.259 78.7777 145.093 78.5296 144.763 78.5296ZM145.259 59.5908C146.086 59.5081 146.913 58.9291 147.244 58.0194C146.913 57.6886 146.665 57.3578 146.417 56.9443C144.928 57.854 144.763 59.3427 143.853 60.5832C144.101 60.5832 144.349 60.5832 144.597 60.6659C144.928 60.087 144.763 59.9216 145.259 59.5908ZM145.011 50.7416C145.011 50.4108 144.845 49.9973 144.597 49.7492C144.266 49.5011 144.266 49.0049 143.77 48.9222L143.687 49.0049C143.77 49.7492 144.266 50.4935 145.011 50.7416ZM143.191 56.5308C143.026 56.5308 142.943 56.5308 142.86 56.5308C142.943 56.6962 142.943 56.7789 143.026 56.9443C143.108 56.7789 143.108 56.6962 143.191 56.5308ZM135.169 43.0503C134.177 42.8022 133.68 45.4487 133.019 46.1103C133.184 46.3584 133.432 46.6065 133.68 46.7719C134.094 46.3584 134.673 46.0276 135.169 45.6968C135.169 45.5314 135.169 45.366 135.086 45.2006C135.5 45.0352 135.831 44.5389 135.748 44.0427C135.748 43.8773 135.086 43.0503 135.169 43.0503ZM133.267 42.0579C133.432 41.8925 133.68 41.8098 133.598 41.3963C133.101 41.3963 133.101 41.7271 133.019 42.0579C133.184 42.0579 133.35 42.5541 133.432 42.2233C133.35 42.1406 133.267 42.1406 133.267 42.0579ZM131.365 37.013C131.447 36.9303 131.447 36.8476 131.365 36.8476C131.365 36.8476 131.365 36.9303 131.365 37.013ZM112.012 9.47314C112.012 9.55584 112.012 9.63855 112.012 9.80395L112.095 9.88665C112.095 9.80395 112.095 9.80395 112.178 9.80395C112.26 9.63855 112.343 9.47314 112.012 9.47314ZM110.276 9.05963V8.89423H110.193L110.276 9.05963ZM109.862 9.72125C109.862 9.72125 109.862 9.80395 109.945 9.88665C110.028 9.80395 110.028 9.80395 110.028 9.72125C109.945 9.72125 109.945 9.72125 109.862 9.72125ZM110.358 6.49586C110.276 6.41316 110.11 6.33045 110.028 6.24775C110.028 6.24775 109.945 6.33045 109.862 6.33045C109.862 6.41316 109.945 6.57856 109.945 6.66126C110.11 6.66126 110.276 6.57856 110.358 6.49586ZM73.4731 2.77425L73.1423 2.85695V2.93966C73.1423 3.02236 73.225 3.02236 73.225 3.02236C73.3904 3.02236 73.4731 2.93966 73.6385 2.93966V2.85695C73.5558 2.85695 73.4731 2.85696 73.4731 2.77425ZM58.1731 9.55585C58.0904 9.55585 58.0904 9.55585 58.0904 9.55585C58.0904 9.63855 58.0904 9.63855 58.0904 9.72125C58.0904 9.63855 58.1731 9.63855 58.1731 9.55585ZM53.7072 11.1272C53.0456 11.2099 52.3013 11.3753 51.7224 11.5407C51.4743 11.6234 51.2261 11.8715 51.2261 12.2023C52.2186 12.5331 53.2937 12.6985 54.3688 12.7812C54.6996 12.4504 55.0305 12.2023 55.5267 12.1196C55.444 11.9542 55.2786 11.7888 55.3613 11.5407L55.444 11.458C54.6996 11.458 54.2034 11.5407 53.7072 11.1272ZM48.497 15.345C48.4143 15.4277 48.4143 15.345 48.3316 15.345C48.3316 15.345 48.2489 15.4277 48.2489 15.5104C48.3316 15.5104 48.497 15.4277 48.497 15.345ZM44.5273 14.3526C44.6927 14.3526 44.7754 14.2699 44.8581 14.1872C44.7754 14.1872 44.61 14.2699 44.5273 14.3526ZM38.9862 13.0293C39.9786 12.285 40.723 11.2926 41.2192 10.1348C41.0538 10.3829 40.8884 10.5483 40.6402 10.631C39.8959 11.0445 40.0613 11.0445 39.6478 11.458C39.2343 11.9542 38.3246 12.3677 38.49 12.8639C38.7381 13.0293 38.8208 13.0293 38.9862 13.0293ZM28.8138 13.2775C28.9792 13.112 29.1446 13.0293 29.2273 12.8639C28.8965 12.8639 28.8138 13.112 28.7311 13.3602L28.8138 13.2775ZM22.2803 19.8936C22.9419 19.9763 22.1149 20.638 22.2803 19.8936ZM10.2058 37.0957C10.2058 36.9303 10.3712 36.6822 10.1231 36.7649V37.2611L10.2058 37.0957ZM25.423 97.2203C26.7463 96.8895 26.6636 95.9798 26.7463 95.0701C26.6636 95.0701 26.5808 94.9874 26.5808 94.9874L25.9192 95.1528C25.5884 94.5739 24.7614 94.822 24.4306 94.4085C24.2652 94.6566 24.1825 94.9047 24.1825 95.1528C24.7614 95.649 25.1749 96.3933 25.423 97.2203ZM29.7235 101.604C29.8062 102.265 30.3852 102.679 31.1295 103.092C31.1295 102.761 31.2122 102.348 31.2122 102.017C30.6333 102.017 30.137 101.852 29.7235 101.604ZM38.3246 105.16C38.0765 105.573 38.4073 105.821 38.2419 106.4C39.9786 106.483 41.4673 107.475 43.0386 107.641C42.0462 107.145 40.8884 106.897 40.3921 106.069C40.2267 106.152 39.9786 106.152 39.7305 106.069C39.5651 105.491 38.9035 105.408 38.3246 105.16ZM50.2337 104.664C50.151 104.912 50.0683 105.242 49.9856 105.491C50.3164 105.656 50.5645 105.739 50.978 105.904C50.978 105.821 51.0607 105.739 51.2261 105.739C52.3013 106.483 53.4591 106.979 54.6996 107.227C54.6996 106.814 54.6169 106.4 54.4515 105.987C53.6245 105.656 52.7148 105.408 51.8878 105.242C52.2186 105.16 52.0532 104.912 52.4667 104.912C52.9629 105.077 53.5418 104.994 53.9553 104.746C53.8726 104.664 53.8726 104.498 53.7899 104.415C53.0456 104.581 51.8051 104.25 51.557 105.16C51.1434 104.994 51.6397 104.829 51.4743 104.498C51.0607 104.498 51.2262 104.829 51.0607 104.912C50.6472 104.829 50.4818 104.746 50.2337 104.664ZM50.5645 108.716C50.4818 109.047 50.5645 109.295 50.7299 109.626C50.8126 109.543 50.8126 109.543 50.8953 109.543C51.0607 110.37 52.0532 109.874 52.5494 110.205C52.7148 110.039 52.7148 109.791 52.7148 109.626C51.8051 109.543 51.557 108.799 50.5645 108.716ZM63.7969 120.542C64.1277 121.121 64.7893 121.287 65.2855 121.618C65.3682 121.535 65.451 121.535 65.5337 121.535C65.5337 121.452 65.6164 121.369 65.6164 121.287C65.3682 121.204 65.2028 121.121 64.9547 121.039C64.7893 120.46 64.3758 120.542 63.7969 120.542ZM94.5622 122.031C94.5622 122.031 94.6449 122.031 94.7276 122.031H94.5622ZM95.8027 118.144C95.72 118.309 95.72 118.558 95.72 118.806C97.126 118.723 97.953 118.392 99.1108 118.971C99.0281 118.806 99.2762 118.806 99.4416 118.723L99.2762 118.227C98.2011 118.558 97.953 117.4 97.2914 117.069C97.2087 117.069 97.126 117.152 97.0432 117.152C96.6297 117.4 96.6297 117.979 95.8854 118.061L95.8027 118.144ZM105.562 115.828C105.975 115.911 106.389 115.911 106.885 115.663C106.719 115.415 106.554 115.249 106.389 115.001C106.223 115.332 105.975 115.663 105.562 115.828ZM110.11 113.182C109.945 113.43 109.614 113.678 109.862 114.009C110.028 114.009 110.11 114.009 110.276 114.009C109.862 113.265 110.937 113.678 110.855 112.934C110.606 113.099 110.358 113.099 110.11 113.182ZM111.847 110.866C111.93 110.784 112.012 110.618 111.93 110.535C111.764 110.535 111.682 110.618 111.599 110.701C111.682 110.701 111.764 110.784 111.847 110.866ZM139.056 36.1033C139.139 35.7725 139.056 35.6898 138.725 35.6898V36.1033H139.056ZM137.319 34.3666C137.485 34.1184 137.65 33.953 137.733 33.7876C137.402 33.2087 136.988 32.6298 136.244 32.5471C136.575 33.0433 136.41 33.2087 136.492 33.7049C136.906 33.4568 136.823 34.0357 137.071 34.0357C137.237 34.1184 137.237 34.2838 137.319 34.3666ZM136.244 24.6904C136.161 24.6904 136.079 24.6904 135.913 24.525C135.996 24.6904 135.996 24.7731 136.079 24.8558C136.161 24.8558 136.161 24.7731 136.244 24.6904ZM132.274 19.5628C132.192 19.6455 132.109 19.5628 132.026 19.5628C132.109 19.5628 132.192 19.5628 132.274 19.5628C132.274 19.6455 132.274 19.6455 132.274 19.5628ZM121.275 7.9018C121.275 8.0672 121.44 8.14991 121.44 8.31531L121.689 8.23261L121.523 7.9018C121.44 7.9018 121.358 7.9018 121.275 7.9018ZM122.185 8.72882L122.433 8.64612L122.35 8.39801L122.102 8.48072L122.185 8.72882ZM121.44 6.74397C121.771 6.49586 121.854 6.82667 122.185 6.66126C122.185 6.24775 121.358 6.33045 121.44 6.74397ZM121.44 5.75154C121.358 5.66883 121.358 5.66883 121.44 5.75154C120.779 5.42073 119.952 5.25532 119.373 5.25532C119.538 5.66883 119.373 5.91694 119.456 6.33045C119.952 6.49586 120.696 5.99964 120.944 5.75154C121.275 5.75154 121.44 6.33045 121.937 6.24775C121.689 6.08235 121.606 5.91694 121.44 5.75154ZM119.621 11.7061C119.456 10.7137 118.298 11.458 117.884 10.7964C117.719 11.1272 117.305 11.2099 117.305 11.7061C117.967 11.7888 118.463 12.1196 119.207 12.2023C119.29 11.9542 119.29 11.7061 119.621 11.7061ZM112.26 3.35317C112.26 3.43587 112.012 3.60128 112.26 3.76668C112.26 3.60128 112.509 3.43587 112.26 3.35317ZM110.358 2.44344V2.02993H109.945C109.945 2.36074 110.028 2.44344 110.358 2.44344ZM108.87 2.02993C109.283 2.19534 109.283 1.45101 108.87 1.61642V2.02993ZM105.562 -0.864651C105.562 -1.03006 105.644 -1.11276 105.562 -1.19546L105.148 -1.11276L105.231 -0.864651C105.396 -0.947354 105.479 -0.864651 105.562 -0.864651ZM101.344 -1.27816C102.171 -1.19546 103.081 -1.11276 103.742 -1.03006C103.494 -1.11276 103.329 -1.19546 103.163 -1.36086C102.005 -0.864651 101.84 -1.93978 100.93 -1.85708C100.93 -1.77438 100.93 -1.77438 100.93 -1.77438C101.013 -1.77438 101.013 -1.69167 101.096 -1.60897C101.178 -1.52627 101.344 -1.52627 101.344 -1.27816ZM96.0508 3.84938L96.2989 3.76668L96.2162 3.51857L95.9681 3.60128L96.0508 3.84938ZM88.6903 -2.18789C88.6903 -2.35329 89.0211 -2.27059 88.9384 -2.6014H88.5249C88.6076 -2.436 88.5249 -2.18789 88.6903 -2.18789ZM73.8866 -2.6841C74.052 -2.5187 74.3828 -2.5187 74.4655 -2.84951C74.3001 -3.01491 73.8866 -3.01491 73.8866 -2.6841ZM74.1347 -2.27059C73.8866 -2.35329 73.6385 -2.18789 73.5558 -1.93978C73.7212 -2.02248 73.9693 -2.10519 74.1347 -2.18789V-2.27059ZM63.3007 0.293182C63.3834 0.375885 63.5488 0.375884 63.6315 0.375884C63.5488 0.375884 63.4661 0.375885 63.4661 0.293182C63.3834 0.293182 63.3834 0.293182 63.3007 0.293182ZM42.7905 12.4504C42.8732 12.3677 42.8732 12.285 42.9559 12.285H42.7905V12.4504ZM35.7608 8.1499C35.6781 8.23261 35.5954 8.23261 35.5127 8.23261V8.39801C35.5954 8.31531 35.6781 8.23261 35.7608 8.1499ZM24.1825 16.0066C23.9344 16.5855 23.6036 16.9991 23.1074 17.3299C23.3555 17.3299 23.6863 17.3299 23.9344 17.1645C24.5133 17.9915 24.9268 16.8337 25.8365 16.9991C26.4154 16.172 27.3252 15.5931 27.7387 14.7661C27.8214 14.6007 27.5733 14.2699 27.9868 14.1872C28.0695 14.2699 28.1522 14.3526 28.1522 14.1872C27.9041 14.2699 28.0695 13.9391 28.3176 13.691C27.4906 13.6083 27.5733 14.2699 26.5808 14.1872C26.0846 15.0142 25.1749 15.5931 24.1825 16.0066ZM17.9798 23.2844C17.8144 23.119 17.4009 23.2017 17.4009 23.5325C17.7317 23.6152 17.9798 23.5325 17.9798 23.2844ZM17.1528 23.8634C17.0701 24.0288 16.9874 24.1115 16.9874 24.3596H17.4009C17.4009 24.1115 17.5663 23.6979 17.1528 23.8634ZM19.2203 25.7655C18.0625 25.6001 17.649 27.1714 16.5739 27.4196C16.5739 27.7504 16.4085 27.9985 16.1604 28.2466C16.3258 28.2466 16.4085 28.2466 16.5739 28.2466C16.5739 28.2466 16.5739 28.1639 16.5739 28.0812C17.7317 28.0812 17.2355 26.8406 18.7241 27.1714C18.8895 26.9233 18.9722 26.7579 19.0549 26.5925C19.0549 26.3444 19.0549 26.0136 19.2203 25.7655ZM14.4236 30.7276C14.1755 30.4795 13.8447 30.3968 13.4312 30.3968V30.8931C13.0177 31.3066 11.8598 31.472 11.3636 32.0509C11.2809 32.2163 11.3636 32.6298 11.1155 32.9606C10.8674 33.3741 10.3712 33.7049 10.1231 34.1184C10.2058 34.2011 10.2885 34.2011 10.3712 34.2838C10.2885 34.2838 10.2058 34.2838 10.1231 34.2838C10.1231 34.4493 10.1231 34.6147 10.2058 34.7801C9.04795 35.2763 10.2885 36.186 10.3712 36.9303C11.1155 36.186 11.9425 35.359 12.5214 34.4493C13.0177 34.3665 12.8523 33.8703 13.5139 33.7876C13.6793 33.6222 13.3485 33.2914 13.5966 33.2087C14.6717 32.9606 14.3409 31.5547 15.416 31.8855C15.3333 31.3893 15.2506 31.1412 15.9122 30.8931C15.9122 30.8103 15.9122 30.8103 15.9122 30.7276L15.8295 30.4795C15.3333 30.4795 14.8371 30.3141 14.4236 30.7276ZM7.89012 79.8528C7.2285 80.0182 7.80742 80.5972 8.05552 80.7626C8.05552 80.6799 8.05552 80.5145 8.05552 80.4318C8.05552 80.2664 7.97282 80.0182 7.89012 79.8528ZM7.89012 81.5069C7.97282 81.5896 8.05552 81.5896 8.05552 81.5896C7.97282 81.5069 7.97282 81.3415 7.89012 81.2588C7.89012 81.3415 7.89012 81.4242 7.89012 81.5069ZM8.88255 83.1609C8.96525 83.4917 8.63444 83.6572 8.79984 83.988C8.88255 83.988 9.04795 84.0707 9.13065 84.1534C9.95768 83.9053 9.29606 83.3263 8.88255 83.1609ZM10.0404 86.469H9.79227C10.0404 86.8825 10.2058 87.2134 10.4539 87.5442C10.4539 87.3788 10.4539 87.2134 10.5366 87.1307C10.1231 87.1307 10.0404 86.8825 9.87497 86.6344C9.95768 86.6344 9.95768 86.5517 10.0404 86.469ZM11.8598 89.4463C11.8598 89.6944 11.529 89.3636 11.2809 88.8674C11.3636 89.2809 11.3636 89.6117 11.3636 90.0252C11.7771 90.2733 11.7771 90.0252 12.4387 90.0252V89.9425C12.2733 89.8598 12.0252 89.8598 11.9425 89.7771C11.9425 89.7771 11.8598 89.7771 11.7771 89.6944C11.7771 89.6117 11.8598 89.529 11.8598 89.4463ZM35.1819 116.076C35.1819 116.407 35.2646 116.573 35.43 116.573C35.5127 116.407 35.6781 116.325 35.5954 116.076H35.1819ZM35.5954 115.828C35.5954 115.746 35.5127 115.746 35.43 115.663C35.5127 115.746 35.5127 115.828 35.5954 115.828ZM38.2419 118.971C38.0765 118.64 37.7457 118.392 37.4149 118.309C37.4976 118.558 37.3322 118.806 37.5803 119.136C37.7457 118.971 37.9938 118.888 38.2419 118.971ZM58.6694 126.249C58.6694 126.414 58.5867 126.58 58.5867 126.662C59.1656 126.58 59.6618 126.993 60.0753 126.662C60.0753 126.828 60.158 126.993 60.2407 127.076C60.6542 127.076 61.0677 127.076 61.5639 126.993C60.6542 126.497 59.4964 126.58 58.6694 126.249ZM62.7218 126.332C62.391 126.58 62.0602 126.745 61.6466 126.91C61.9774 126.828 62.4737 126.58 62.7218 126.332ZM121.358 115.746C121.275 115.746 121.275 115.746 121.358 115.746ZM133.598 99.4533C133.68 99.4533 133.846 99.4533 134.011 99.3706C134.011 99.3706 134.011 99.3706 134.011 99.2879C133.929 99.2879 133.763 99.3706 133.598 99.4533ZM137.071 92.2582C136.906 92.3409 136.74 92.5063 136.658 92.7544C136.823 92.589 136.988 92.4236 137.071 92.2582ZM140.462 88.8674C140.131 89.4463 139.718 89.9425 139.139 90.4387L139.966 90.5214V90.4387C140.214 90.0252 141.206 89.1982 140.462 88.8674ZM146.913 83.6572C147.078 84.1534 146.168 83.7399 146.913 83.6572ZM147.244 75.7177C147.161 75.9658 147.409 75.9658 147.574 75.8831C147.657 75.8831 147.657 75.8004 147.657 75.8004C147.574 75.7177 147.574 75.7177 147.492 75.635L147.244 75.7177ZM152.288 68.688C152.288 68.6053 152.206 68.6053 152.123 68.6053C152.123 68.688 152.206 68.688 152.288 68.688ZM152.95 74.5599C152.95 74.3118 153.115 74.0637 153.364 73.8156C153.281 73.7329 153.281 73.7329 153.281 73.6502C153.198 73.5675 153.033 73.5675 152.95 73.5675C152.867 73.7329 152.785 73.981 152.702 74.2291C152.619 74.3945 152.702 74.5599 152.95 74.5599ZM153.198 61.0794C153.281 61.2448 153.281 61.4102 153.364 61.5756C153.446 61.5756 153.612 61.5756 153.694 61.5756C153.694 61.3275 153.529 61.3275 153.529 61.0794H153.198ZM110.855 2.02993C110.689 2.44344 111.351 2.52615 111.599 2.19534C111.433 2.11263 111.351 2.02993 111.185 1.94723C111.185 2.02993 110.937 2.02993 110.855 2.02993ZM86.9536 -4.75166C86.8709 -4.75166 86.7055 -4.75166 86.7055 -4.75166H86.9536ZM79.3449 -4.42085C79.0968 -4.58626 78.8487 -4.66896 78.6006 -4.58626C78.2698 -4.25545 77.8563 -4.09004 77.3601 -4.09004C77.4428 -4.00734 77.6082 -3.92464 77.6082 -3.75923C77.939 -4.25545 79.2622 -3.75923 79.3449 -4.42085ZM67.7666 -1.52627C67.2704 -1.27816 66.6915 -1.11276 66.1953 -0.947353C66.8569 -0.864651 67.6839 -0.699246 68.3455 -0.368437C68.5109 -0.451139 68.5936 -0.616544 68.759 -0.699246C68.6763 -1.27816 68.1801 -1.36086 67.7666 -1.52627ZM57.4288 1.78182C57.4288 1.69912 57.3461 1.53372 57.1807 1.45101C56.8499 1.53372 56.6018 1.69912 56.3537 1.94723C56.6018 1.86453 57.098 1.78182 57.4288 1.78182ZM19.882 19.232V19.6455H20.1301C20.1301 19.5628 20.2955 19.4801 20.2955 19.3974C20.1301 19.3147 20.1301 19.232 19.882 19.232ZM9.29606 27.7504C9.21336 27.5023 9.21336 27.2541 8.88255 27.1714C8.63444 27.4196 8.46903 27.7504 8.38633 28.0812C8.63444 28.1639 9.04795 27.9158 9.29606 27.7504ZM6.89769 77.7853C6.89769 77.2891 6.73229 76.7929 6.56688 76.2966C6.56688 76.462 6.48418 76.6274 6.40148 76.7102C6.64958 77.041 6.81499 77.3718 6.89769 77.7853ZM3.50689 37.84C3.50689 37.7573 3.50689 37.5919 3.42419 37.5092C3.42419 37.6746 3.42419 37.7573 3.34149 37.84C3.42419 37.84 3.42419 37.84 3.50689 37.84ZM7.06309 78.6123C7.06309 78.8604 7.06309 79.0258 7.1458 79.2739C7.2285 79.2739 7.2285 79.3566 7.3112 79.3566C7.47661 79.1085 7.2285 78.8604 7.06309 78.6123ZM21.4533 105.821C21.536 105.904 21.6187 105.987 21.7014 106.069C21.9495 105.987 22.1149 105.821 22.1149 105.739C21.9495 105.656 21.7014 105.739 21.4533 105.821ZM26.4981 110.287C27.4906 110.205 27.9868 111.032 28.483 111.941C28.8138 112.189 29.2273 112.438 29.6408 112.768C29.8889 112.768 29.9716 112.934 30.137 113.182C30.3025 113.347 30.4679 113.513 30.6333 113.761C31.0468 113.926 31.3776 113.761 31.4603 114.174C31.543 114.34 31.6257 114.588 31.7084 114.836C31.8738 114.505 32.2046 115.084 32.5354 115.001C31.1295 112.768 30.2198 110.701 28.5657 108.964C28.5657 108.468 28.0695 108.468 28.1522 107.972C28.0695 107.806 27.5733 107.972 27.5733 107.724C27.5733 106.731 26.0846 106.566 26.5808 105.821L26.4981 105.739C26.0846 105.656 25.8365 105.656 25.7538 104.994H25.3403C25.2576 105.491 24.9268 105.821 25.1749 106.318C24.596 106.566 24.5133 107.227 24.3479 107.889C24.5133 107.806 24.5133 107.558 24.8441 107.558C25.1749 108.881 26.25 108.964 26.4981 110.287ZM47.4218 119.219L47.5045 119.302C47.5045 119.219 47.5045 119.219 47.5045 119.219H47.4218ZM103.163 124.347C102.667 124.347 102.667 124.595 102.832 124.926C102.998 124.926 103.163 124.926 103.329 124.843L103.163 124.347ZM104.073 124.181H104.238C104.569 124.181 104.983 124.016 104.9 123.685C104.486 123.685 104.156 123.933 104.073 124.181ZM111.268 121.783C111.433 121.783 111.599 121.7 111.682 121.618V121.535C111.516 121.535 111.516 121.369 111.433 121.204C111.02 121.287 111.268 121.535 111.268 121.783ZM133.598 11.2099C133.68 10.9618 133.515 10.7137 133.267 10.631C133.35 10.8791 133.432 11.0445 133.598 11.2099ZM108.125 -4.42085C107.96 -4.42085 107.795 -4.33815 107.712 -4.17274C107.795 -4.17274 107.795 -4.09004 107.877 -4.09004C107.96 -4.17274 108.125 -4.25545 108.125 -4.42085ZM79.0141 -8.63867L78.766 -8.55597L78.8487 -8.30786L79.0968 -8.39056L79.0141 -8.63867ZM44.1137 -1.36086C44.031 -1.77438 43.2867 -1.60897 43.3694 -1.27816C43.5348 -1.19546 43.7829 -1.27816 44.1137 -1.36086ZM23.1901 8.89423L22.9419 8.97693L23.0246 9.22504L23.2728 9.14233L23.1901 8.89423ZM22.2803 10.1348C22.0322 10.2175 21.536 10.2175 21.8668 10.5483C22.0322 10.5483 22.363 10.4656 22.2803 10.1348ZM11.6117 22.9536C11.1155 23.0363 11.1982 23.3671 10.8674 23.2017C10.8674 23.5325 10.7847 23.8634 10.702 24.1942C10.9501 24.0288 11.1982 23.7806 10.9501 23.4498C12.0252 23.3671 11.7771 22.292 12.6869 22.0439C12.4387 21.8785 12.356 21.7131 12.356 21.5477C11.7771 21.7958 11.529 22.3747 11.6117 22.9536ZM9.70957 25.352C9.62687 25.352 9.62687 25.4347 9.62687 25.4347C9.62687 25.5174 9.62687 25.6828 9.62687 25.7655C9.70957 25.6001 9.70957 25.5174 9.70957 25.352ZM2.76257 38.3363C2.67987 38.419 2.51446 38.419 2.34906 38.5017C2.43176 38.9979 2.34906 39.1633 2.67987 39.4941C2.76257 39.4114 2.84527 39.4114 2.92798 39.3287C3.17608 39.0806 3.25879 38.5844 3.01068 38.3363C2.67987 38.3363 3.09338 38.9152 2.59717 38.7498C2.67987 38.5844 2.67987 38.5017 2.76257 38.3363ZM2.01825 40.8173C1.93555 40.9827 1.85285 41.1481 1.93555 41.3963C1.93555 41.2308 1.93555 40.9827 2.01825 40.8173ZM0.198799 45.8622C0.0333944 45.9449 -0.214713 45.9449 -0.13201 46.1103C-0.049308 46.1103 0.0333944 46.1103 0.0333944 46.193C0.198799 46.1103 0.364204 46.0276 0.198799 45.8622ZM-0.049308 71.5826C-0.049308 71.6653 0.0333944 71.8307 0.198799 71.9134C0.116097 71.748 0.0333944 71.5826 -0.049308 71.5826ZM3.755 80.2664C3.755 80.3491 3.755 80.4318 3.755 80.4318H3.8377C3.755 80.3491 3.755 80.3491 3.755 80.2664ZM4.08581 83.5744C4.00311 83.1609 4.25121 83.0782 4.66473 83.0782C4.58202 82.9128 4.58202 82.8301 4.49932 82.6647C4.33392 82.6647 4.25121 82.6647 4.08581 82.6647C3.9204 82.9128 3.50689 83.4917 4.08581 83.5744ZM4.99554 92.4236H4.91283V92.1755H4.66473V92.4236H4.99554ZM4.74743 83.3263C4.66473 83.8226 5.07824 84.2361 5.24364 84.815C5.32634 84.815 5.32634 84.815 5.40905 84.815C5.40905 84.5669 5.40905 84.2361 5.32634 83.988C5.07824 83.8226 4.91283 83.5744 4.74743 83.3263ZM5.07824 85.0631V85.4766H5.49175C5.49175 85.3939 5.49175 85.3112 5.49175 85.2285C5.40905 85.0631 5.24364 85.0631 5.07824 85.0631ZM5.98796 93.8295C6.07067 93.4987 5.98796 93.3333 5.73986 93.3333C5.65715 93.5814 5.49175 93.9949 5.98796 93.8295ZM5.98796 87.7096C6.56688 88.1231 6.81499 88.8674 7.3112 89.3636C7.3112 89.1982 7.3939 89.0328 7.47661 88.8674C7.47661 88.7847 7.47661 88.6193 7.3939 88.4539C7.3112 88.4539 7.3112 88.2885 7.3112 88.2058C7.06309 88.2058 7.06309 88.3712 6.81499 88.4539C6.48418 88.1231 6.40148 87.7096 6.31877 87.2961C6.15337 87.4615 6.07067 87.5442 5.98796 87.7096ZM9.21336 93.416C9.21336 93.3333 9.21336 93.1679 9.37876 93.0852C9.29606 93.0852 9.21336 93.0025 9.21336 93.0025C9.04795 92.4236 8.88255 92.3409 9.04795 91.8447C8.96525 91.762 8.88255 91.762 8.79984 91.6793C8.63444 91.6793 8.55174 91.6793 8.38633 91.762C8.38633 91.0177 7.80742 90.4387 7.55931 89.8598C7.1458 90.4387 7.97282 91.0177 7.72471 91.3485C7.06309 91.3485 7.80742 92.2582 7.97282 92.6717C8.71714 92.2582 8.55174 93.3333 9.21336 93.416ZM20.5436 110.618C21.2879 109.543 19.2203 108.964 18.9722 107.806C18.8068 107.641 18.3933 107.558 18.3106 107.31C18.3933 106.814 17.7317 106.979 17.8971 106.4C17.2355 106.235 16.6566 105.987 16.6566 105.242C16.5739 105.077 16.0777 105.242 16.0777 104.994C15.9122 104.167 14.8371 104.085 14.8371 103.092C13.762 102.761 13.5139 101.769 12.6869 101.273C12.7696 102.017 13.0177 102.679 13.3485 103.34C15.0852 103.837 13.9274 106.152 15.9122 106.4C15.8295 106.814 16.2431 106.897 15.9122 107.145C16.9874 107.393 17.8971 108.137 17.9798 108.799C19.303 108.964 19.5511 110.122 20.5436 110.618ZM22.4457 111.941C22.363 112.438 22.5284 112.686 23.0246 112.686C22.9419 112.355 22.6938 112.107 22.4457 111.941ZM30.716 119.054C31.3776 119.385 32.2873 120.791 33.0316 120.129C32.7835 120.129 32.6181 120.046 32.4527 119.881C32.4527 119.798 32.5354 119.633 32.5354 119.55C32.0392 119.385 31.3776 119.385 31.2949 118.558C30.7987 118.888 30.716 118.888 30.3025 118.475C30.4679 118.227 30.3025 118.227 30.7987 118.227C30.4679 117.648 29.5581 118.061 29.0619 117.813C28.9792 117.482 28.8138 117.152 28.483 116.986C28.2349 117.069 27.9868 117.317 27.9868 117.648C28.9792 117.731 29.4754 118.144 29.4754 119.054C30.137 119.136 30.3025 119.219 30.716 119.054ZM37.0013 123.52C37.0013 123.437 37.0013 123.354 37.084 123.354C37.084 123.189 37.084 123.023 36.8359 123.106C36.9186 123.272 36.8359 123.52 37.0013 123.52ZM73.7212 131.955H73.8866C73.8866 131.873 73.8039 131.79 73.8039 131.707H73.7212H73.6385L73.7212 131.955ZM82.8184 131.542L83.0666 131.459C83.0666 131.376 82.9838 131.294 82.9838 131.211L82.7357 131.294L82.8184 131.542ZM134.921 111.114C135.334 111.362 135.334 110.535 134.921 110.701V111.114ZM136.988 108.468C136.988 108.551 137.071 108.633 137.237 108.633C137.402 108.633 137.567 108.551 137.567 108.385C137.485 108.385 137.402 108.385 137.319 108.302C137.237 108.385 137.071 108.385 136.988 108.468ZM150.304 92.1755C150.469 92.0928 150.552 92.0101 150.552 91.8447C150.469 91.9274 150.386 92.0101 150.304 92.1755Z" fill="white"/>
</svg>
