<svg width="117" height="18" viewBox="0 0 117 18" fill="none" xmlns="http://www.w3.org/2000/svg">
<path d="M115.441 6.77673C115.516 6.79846 115.596 6.79846 115.67 6.77673L116.429 6.57695L115.321 5.69992C114.942 5.40025 114.022 5.47716 113.901 5.33032C113.78 5.39676 113.646 5.4364 113.508 5.44656C113.37 5.45673 113.232 5.43719 113.102 5.38926C113.167 5.45618 113.166 5.76784 112.918 5.68893C113.103 5.07261 112.493 5.3483 112.355 4.86484C112.493 5.19248 111.622 4.83387 111.848 5.30335C111.648 5.22144 111.87 5.06561 111.731 4.8938C111.193 5.06462 110.645 4.57416 110.011 4.56616C109.998 4.61611 110.02 4.68903 110.011 4.76594C110.005 4.76594 109.999 4.76594 109.992 4.75695C109.805 4.05791 109.484 3.40161 109.048 2.82408C108.603 2.15541 108.26 1.42419 108.03 0.654469C108.097 0.972119 108.018 0.879222 107.937 0.763349C107.979 0.88022 107.885 0.963129 107.867 1.08699C107.795 0.820619 107.714 0.556577 107.623 0.294865C107.523 0.51762 107.286 -0.196595 107.24 0.0541295L107.334 0.15402C107.279 0.393632 107.279 0.642606 107.334 0.882218L107.108 0.423723L104.596 5.51212L102.905 5.75785C102.917 5.75662 102.927 5.75131 102.935 5.74287L102.912 5.64298C102.805 5.66496 102.743 5.74287 102.812 5.77583L102.512 5.81979C102.669 5.63499 102.458 5.06561 102.239 4.75596C102.245 4.83787 102.256 4.91278 102.065 5.05563C102.152 5.14653 102.556 5.22744 102.408 5.42122C102.149 5.55707 102.174 5.38826 102.027 5.30835C102.157 5.49914 101.827 5.65696 101.827 5.92267L100.167 6.16441C100.171 6.14955 100.171 6.13395 100.167 6.11909C100.163 6.10423 100.155 6.0906 100.145 6.0795L99.997 6.13744C99.8262 5.95464 100.245 5.81379 100.037 5.74687C100.223 5.57306 100.421 5.31434 100.727 5.38726L100.827 5.66795C100.814 5.64361 100.795 5.62264 100.773 5.60668C100.75 5.59072 100.724 5.58021 100.697 5.57595C100.669 5.5717 100.641 5.57382 100.615 5.58216C100.589 5.59049 100.564 5.60481 100.544 5.624C100.644 5.47816 101.044 5.94964 101.124 5.55308L100.891 5.38327C101.077 5.20746 101.291 4.86484 101.559 4.91878C101.401 4.65107 101.504 4.95973 101.274 4.65307C101.492 5.04464 100.613 4.73198 100.931 5.12954C100.687 4.76994 100.582 5.01267 100.29 4.719C100.311 4.81289 100.403 4.88781 100.18 4.87283C100.172 4.90448 100.16 4.93502 100.145 4.96373H100.129L100.143 4.97372C100.135 4.9917 100.135 4.9897 100.143 4.97372C100.198 5.00362 100.243 5.04826 100.274 5.10257C100.198 5.33632 99.8531 5.37927 99.7542 5.51013C99.6194 5.48316 99.7922 5.39325 99.7073 5.30136L99.5584 5.49614C99.5105 5.28837 99.1668 5.19647 99.4505 5.02666L99.1778 5.05662C99.0591 4.99034 98.9213 4.96638 98.7872 4.9887L96 5.60402L98.03 7.31814C98.0684 7.35192 98.1148 7.3753 98.1648 7.38606C98.2258 7.50993 98.5644 7.445 98.3646 7.48595L98.7642 7.69172L98.7293 7.73268C99.015 8.04833 99.6024 8.09029 99.6813 8.70461C99.8557 8.7609 100.005 8.87693 100.102 9.03225L100.002 9.19707C100.178 9.27898 100.268 9.7145 100.459 9.63159C100.259 10.126 101.021 10.3308 101.191 10.6195L101.368 10.4557C101.479 10.5677 101.609 10.6594 101.752 10.7264C101.597 11.09 102.045 11.5745 101.701 11.8591C101.727 11.8974 101.736 11.9441 101.728 11.9894C101.72 12.0346 101.695 12.075 101.657 12.1019C101.658 12.0924 101.655 12.083 101.65 12.0749C101.646 12.0882 101.642 12.1019 101.64 12.1159C101.597 12.1538 101.547 12.1918 101.504 12.2357C101.554 12.2103 101.599 12.1766 101.637 12.1358C101.628 12.2446 101.639 12.3542 101.667 12.4595L101.434 12.4695V12.4974C101.334 12.5973 101.524 12.6063 101.705 12.5754C101.731 12.6396 101.769 12.6988 101.815 12.7502C101.436 12.7801 101.886 13.0728 101.477 13.1317C101.652 13.2416 101.519 13.7311 101.908 13.8629C101.855 13.8629 101.824 13.8879 101.832 13.825C101.764 13.9458 101.697 14.0657 101.79 14.1996H101.49L101.828 14.5452C101.628 14.685 101.51 14.738 101.32 14.5312C101.589 14.9967 101.391 14.8838 101.668 15.2874L101.485 15.2384C101.472 15.3633 101.685 15.604 101.519 15.652C101.469 15.6807 101.426 15.7211 101.395 15.7698L100.843 16.569L102.395 16.492C102.843 16.4701 103.575 15.8567 104.272 15.8198C103.89 15.3942 104.683 15.8837 104.509 15.4901C104.609 15.59 104.731 15.606 104.68 15.7608C104.946 15.4762 105.266 15.6879 105.323 15.2494C105.423 15.3493 105.343 15.4552 105.412 15.5071C105.425 15.4682 105.462 15.3513 105.532 15.4072C105.603 15.4632 105.532 15.5301 105.51 15.607C105.833 15.4122 105.678 15.0376 105.526 14.689C105.779 14.7589 105.851 14.689 105.857 14.4083C105.974 14.4872 106.132 14.5502 105.945 14.699C106.07 14.6541 106.744 14.4862 106.61 14.2116C106.682 14.2605 106.783 14.1456 106.797 14.0987C106.941 14.0428 107.081 13.9794 107.218 13.9089C107.5 14.2585 107.447 13.8679 107.753 14.3494L107.834 14.1336C108.106 13.7231 108.114 14.6071 108.471 14.5841L108.435 14.4173C108.66 14.3474 108.534 15.2254 108.658 15.3573C108.671 15.4122 108.575 15.3913 108.515 15.3952C108.77 15.8557 108.704 15.1575 109.027 15.2494C109.006 15.4202 108.767 15.576 108.949 15.7049C108.986 15.8707 109.759 15.5391 109.882 15.9536C109.882 15.8128 109.882 15.6719 110.059 15.661C110.286 15.7309 110.4 16.3692 110.768 16.1214C110.778 16.1566 110.775 16.1941 110.76 16.2273C110.965 16.2203 111.352 16.3482 111.545 16.2104C111.472 16.4661 111.574 16.572 111.731 16.6229L113.45 17.1773L112.939 15.7459C112.827 15.4322 112.398 15.0766 112.877 14.9967L112.746 14.4623H112.822C112.824 14.341 112.787 14.2223 112.714 14.1249C112.642 14.0275 112.539 13.9568 112.423 13.9239C112.457 13.835 112.534 13.8829 112.573 13.8829C112.631 13.3535 112.592 13.3075 112.163 12.9449L112.388 12.861C112.233 12.7691 112.626 12.0679 112.271 11.6194C112.312 11.6174 112.352 11.6305 112.385 11.6564C112.049 11.1909 112.666 10.3758 112.114 10.19C112.24 10.0961 112.36 9.9902 112.458 10.1001C113.124 9.42082 113.957 8.95134 114.61 8.34401L114.295 8.1672L114.53 7.96742C114.645 7.96742 114.799 8.08529 114.63 8.23013C114.851 8.29007 114.781 7.85255 114.73 7.79361C115.139 7.59383 114.892 8.20216 114.993 8.11526L115.104 7.97042H115.046C115.052 7.77064 114.956 7.64977 115.158 7.47097C115.328 7.40304 115.37 7.56486 115.427 7.52791C115.443 7.54589 115.467 7.53889 115.506 7.46398L115.806 7.21225L115.506 7.12435C115.544 6.90259 115.788 6.87363 115.441 6.77673ZM102.198 11.1969L102.365 11.1489L102.24 10.8213C102.399 10.9292 102.628 11.113 102.862 11.3127L102.778 11.8042C102.533 11.6579 102.333 11.448 102.198 11.1969ZM102.069 9.49874C102.08 9.46246 102.097 9.42856 102.121 9.39885L102.359 9.63159L102.111 9.8953L102.392 9.66455L102.625 9.89131C102.494 10.034 102.348 10.1619 102.189 10.2729L102.146 10.139L102.117 10.193C102.068 9.96398 102.052 9.72925 102.069 9.49574V9.49874ZM110.007 4.78293C110.002 4.80692 109.992 4.82968 109.978 4.84991C109.964 4.87013 109.947 4.88742 109.926 4.9008L109.747 4.59413L110.007 4.78293ZM102.478 5.81879L102.128 5.86973C102.147 5.84311 102.171 5.82057 102.199 5.80343C102.227 5.78628 102.258 5.77487 102.291 5.76985C102.323 5.76483 102.356 5.76631 102.388 5.77419C102.42 5.78208 102.45 5.79622 102.477 5.81579L102.478 5.81879ZM102.056 5.86673V5.88072H102.032L102.056 5.86673ZM98.979 5.20746L98.973 5.21945C98.8092 5.15052 98.8671 5.17849 98.978 5.20546L98.979 5.20746ZM99.3666 7.53889C99.0549 7.37308 99.4425 7.25021 99.3606 7.25021C98.998 6.8097 98.5854 7.25021 98.3746 6.94455L97.3047 5.38327L98.8521 5.47417C98.9059 5.47882 98.9588 5.49127 99.009 5.51112C99.2537 5.73388 99.0909 6.01058 99.1638 6.18838C99.1028 6.22159 99.0331 6.23552 98.964 6.22834L98.7932 6.21036L98.9091 6.39815C98.994 6.535 98.984 6.70881 99.0849 6.79771L99.004 6.54998C99.1269 6.54998 99.3037 6.63289 99.3237 6.75575C99.3255 6.71605 99.3173 6.67653 99.2997 6.64088L100.23 7.54688C99.9492 7.64351 99.6439 7.63998 99.3656 7.5369L99.3666 7.53889ZM101.127 8.7146C101.18 8.66505 101.218 8.60228 101.239 8.5328L101.439 8.72459C101.334 8.74571 101.226 8.7416 101.124 8.7126L101.127 8.7146ZM102.292 14.6451L102.253 14.8748L101.875 14.5752C102.011 14.6137 102.15 14.6364 102.291 14.6431L102.292 14.6451ZM105.519 14.4892C105.457 14.4663 105.442 14.3564 105.437 14.2155C105.426 14.2483 105.417 14.2817 105.41 14.3154C105.38 14.3085 105.353 14.295 105.33 14.2759C105.306 14.2569 105.287 14.2329 105.275 14.2056L105.434 14.1216V14.2215L105.473 14.1027L105.545 14.0647C105.619 14.1068 105.694 14.1445 105.772 14.1776L105.519 14.4892ZM112.724 14.744C112.68 14.7784 112.644 14.8211 112.616 14.8698L112.602 14.8319L112.724 14.744ZM111.725 10.8652L111.708 10.8343L111.828 10.4227C111.437 10.7124 111.62 10.1061 111.379 10.143C111.478 9.97421 111.911 9.9862 111.778 10.18L111.721 10.175C111.738 10.2118 111.766 10.2425 111.801 10.2632C111.835 10.2839 111.876 10.2936 111.916 10.2909L111.725 10.8652ZM115.315 7.44C115.368 7.29516 115.382 7.36608 115.401 7.44H115.315Z" fill="#FBED81"/>
<path d="M91.4415 6.77673C91.5162 6.79846 91.5956 6.79846 91.6703 6.77673L92.4285 6.57695L91.3206 5.69992C90.942 5.40025 90.0219 5.47716 89.901 5.33032C89.7798 5.39676 89.6457 5.4364 89.5078 5.44656C89.37 5.45673 89.2315 5.43719 89.1018 5.38926C89.1668 5.45618 89.1658 5.76784 88.918 5.68893C89.1028 5.07261 88.4935 5.3483 88.3546 4.86484C88.4935 5.19248 87.6223 4.83387 87.8481 5.30335C87.6483 5.22144 87.8701 5.06561 87.7312 4.8938C87.1928 5.06462 86.6453 4.57416 86.0109 4.56616C85.998 4.61611 86.0199 4.68903 86.0109 4.76594C86.005 4.76594 85.999 4.76594 85.992 4.75695C85.8046 4.05791 85.4841 3.40161 85.0479 2.82408C84.6028 2.15541 84.2597 1.42419 84.0299 0.654469C84.0969 0.972119 84.0179 0.879222 83.937 0.763349C83.979 0.88022 83.8851 0.963129 83.8671 1.08699C83.7952 0.820619 83.7139 0.556577 83.6233 0.294865C83.5234 0.51762 83.2857 -0.196595 83.2397 0.0541295L83.3336 0.15402C83.2786 0.393632 83.2786 0.642606 83.3336 0.882218L83.1079 0.423723L80.5964 5.51212L78.9051 5.75785C78.9165 5.75662 78.9272 5.75131 78.935 5.74287L78.9121 5.64298C78.8052 5.66496 78.7432 5.74287 78.8122 5.77583L78.5125 5.81979C78.6693 5.63499 78.4575 5.06561 78.2387 4.75596C78.2447 4.83787 78.2557 4.91278 78.0649 5.05563C78.1518 5.14653 78.5564 5.22744 78.4076 5.42122C78.1488 5.55707 78.1738 5.38826 78.027 5.30835C78.1568 5.49914 77.8272 5.65696 77.8272 5.92267L76.1668 6.16441C76.1707 6.14955 76.1707 6.13395 76.1669 6.11909C76.163 6.10423 76.1555 6.0906 76.1448 6.0795L75.997 6.13744C75.8262 5.95464 76.2447 5.81379 76.037 5.74687C76.2228 5.57306 76.4206 5.31434 76.7273 5.38726L76.8272 5.66795C76.814 5.64361 76.7953 5.62264 76.7727 5.60668C76.7501 5.59072 76.7241 5.58021 76.6967 5.57595C76.6693 5.5717 76.6413 5.57382 76.6149 5.58216C76.5885 5.59049 76.5644 5.60481 76.5444 5.624C76.6443 5.47816 77.0439 5.94964 77.1239 5.55308L76.8911 5.38327C77.0769 5.20746 77.2907 4.86484 77.5594 4.91878C77.4006 4.65107 77.5045 4.95973 77.2737 4.65307C77.4925 5.04464 76.6134 4.73198 76.9311 5.12954C76.6873 4.76994 76.5824 5.01267 76.2897 4.719C76.3107 4.81289 76.4026 4.88781 76.1798 4.87283C76.172 4.90448 76.1603 4.93502 76.1448 4.96373H76.1289L76.1428 4.97372C76.1349 4.9917 76.1349 4.9897 76.1428 4.97372C76.1976 5.00362 76.243 5.04826 76.2737 5.10257C76.1978 5.33632 75.8531 5.37927 75.7542 5.51013C75.6194 5.48316 75.7922 5.39325 75.7073 5.30136L75.5584 5.49614C75.5105 5.28837 75.1668 5.19647 75.4505 5.02666L75.1778 5.05662C75.0591 4.99034 74.9213 4.96638 74.7872 4.9887L72 5.60402L74.03 7.31814C74.0684 7.35192 74.1148 7.3753 74.1648 7.38606C74.2258 7.50993 74.5644 7.445 74.3646 7.48595L74.7642 7.69172L74.7293 7.73268C75.015 8.04833 75.6024 8.09029 75.6813 8.70461C75.8557 8.7609 76.0046 8.87693 76.1019 9.03225L76.002 9.19707C76.1778 9.27898 76.2677 9.7145 76.4585 9.63159C76.2587 10.126 77.021 10.3308 77.1908 10.6195L77.3676 10.4557C77.479 10.5677 77.6092 10.6594 77.7522 10.7264C77.5974 11.09 78.0449 11.5745 77.7013 11.8591C77.7268 11.8974 77.7364 11.9441 77.7282 11.9894C77.7201 12.0346 77.6946 12.075 77.6573 12.1019C77.6578 12.0924 77.6554 12.083 77.6503 12.0749C77.6456 12.0882 77.6423 12.1019 77.6403 12.1159C77.5974 12.1538 77.5474 12.1918 77.5045 12.2357C77.5542 12.2103 77.5992 12.1766 77.6373 12.1358C77.6284 12.2446 77.6385 12.3542 77.6673 12.4595L77.4336 12.4695V12.4974C77.3337 12.5973 77.5245 12.6063 77.7053 12.5754C77.7314 12.6396 77.7686 12.6988 77.8152 12.7502C77.4355 12.7801 77.8861 13.0728 77.4765 13.1317C77.6523 13.2416 77.5195 13.7311 77.9081 13.8629C77.8551 13.8629 77.8242 13.8879 77.8322 13.825C77.7642 13.9458 77.6973 14.0657 77.7902 14.1996H77.4905L77.8282 14.5452C77.6284 14.685 77.5105 14.738 77.3197 14.5312C77.5894 14.9967 77.3906 14.8838 77.6683 15.2874L77.4855 15.2384C77.4715 15.3633 77.6853 15.604 77.5195 15.652C77.469 15.6807 77.4262 15.7211 77.3946 15.7698L76.8431 16.569L78.3946 16.492C78.8431 16.4701 79.5754 15.8567 80.2717 15.8198C79.8901 15.3942 80.6833 15.8837 80.5095 15.4901C80.6094 15.59 80.7312 15.606 80.6803 15.7608C80.946 15.4762 81.2657 15.6879 81.3226 15.2494C81.4225 15.3493 81.3426 15.4552 81.4116 15.5071C81.4245 15.4682 81.4615 15.3513 81.5324 15.4072C81.6034 15.4632 81.5324 15.5301 81.5105 15.607C81.8331 15.4122 81.6783 15.0376 81.5264 14.689C81.7792 14.7589 81.8511 14.689 81.8571 14.4083C81.974 14.4872 82.1318 14.5502 81.945 14.699C82.0699 14.6541 82.7442 14.4862 82.6104 14.2116C82.6823 14.2605 82.7832 14.1456 82.7972 14.0987C82.9406 14.0428 83.081 13.9794 83.2177 13.9089C83.5005 14.2585 83.4465 13.8679 83.7532 14.3494L83.8341 14.1336C84.1059 13.7231 84.1138 14.6071 84.4715 14.5841L84.4345 14.4173C84.6603 14.3474 84.5344 15.2254 84.6583 15.3573C84.6713 15.4122 84.5754 15.3913 84.5154 15.3952C84.7702 15.8557 84.7043 15.1575 85.0269 15.2494C85.006 15.4202 84.7672 15.576 84.949 15.7049C84.986 15.8707 85.7592 15.5391 85.8821 15.9536C85.8821 15.8128 85.8821 15.6719 86.0589 15.661C86.2857 15.7309 86.3996 16.3692 86.7682 16.1214C86.7781 16.1566 86.7753 16.1941 86.7602 16.2273C86.965 16.2203 87.3516 16.3482 87.5454 16.2104C87.4725 16.4661 87.5744 16.572 87.7312 16.6229L89.4505 17.1773L88.939 15.7459C88.8271 15.4322 88.3976 15.0766 88.8771 14.9967L88.7462 14.4623H88.8221C88.8245 14.341 88.7865 14.2223 88.7142 14.1249C88.6419 14.0275 88.5393 13.9568 88.4225 13.9239C88.4575 13.835 88.5344 13.8829 88.5734 13.8829C88.6313 13.3535 88.5924 13.3075 88.1628 12.9449L88.3876 12.861C88.2327 12.7691 88.6263 12.0679 88.2707 11.6194C88.3119 11.6174 88.3524 11.6305 88.3846 11.6564C88.0489 11.1909 88.6663 10.3758 88.1138 10.19C88.2397 10.0961 88.3596 9.9902 88.4585 10.1001C89.1238 9.42082 89.957 8.95134 90.6103 8.34401L90.2946 8.1672L90.5304 7.96742C90.6453 7.96742 90.7991 8.08529 90.6303 8.23013C90.8511 8.29007 90.7812 7.85255 90.7302 7.79361C91.1388 7.59383 90.8921 8.20216 90.9929 8.11526L91.1038 7.97042H91.0459C91.0519 7.77064 90.956 7.64977 91.1578 7.47097C91.3276 7.40304 91.3696 7.56486 91.4265 7.52791C91.4435 7.54589 91.4675 7.53889 91.5064 7.46398L91.8061 7.21225L91.5064 7.12435C91.5444 6.90259 91.7882 6.87363 91.4415 6.77673ZM78.1978 11.1969L78.3646 11.1489L78.2397 10.8213C78.3986 10.9292 78.6284 11.113 78.8621 11.3127L78.7782 11.8042C78.5334 11.6579 78.3328 11.448 78.1978 11.1969ZM78.0689 9.49874C78.0798 9.46246 78.0974 9.42856 78.1209 9.39885L78.3586 9.63159L78.1109 9.8953L78.3916 9.66455L78.6254 9.89131C78.4941 10.034 78.3477 10.1619 78.1888 10.2729L78.1458 10.139L78.1169 10.193C78.0681 9.96398 78.052 9.72925 78.0689 9.49574V9.49874ZM86.007 4.78293C86.0019 4.80692 85.9921 4.82968 85.9782 4.84991C85.9643 4.87013 85.9466 4.88742 85.926 4.9008L85.7472 4.59413L86.007 4.78293ZM78.4775 5.81879L78.1279 5.86973C78.1471 5.84311 78.1714 5.82057 78.1994 5.80343C78.2273 5.78628 78.2585 5.77487 78.2909 5.76985C78.3233 5.76483 78.3564 5.76631 78.3883 5.77419C78.4202 5.78208 78.4502 5.79622 78.4765 5.81579L78.4775 5.81879ZM78.0559 5.86673V5.88072H78.0319L78.0559 5.86673ZM74.979 5.20746L74.973 5.21945C74.8092 5.15052 74.8671 5.17849 74.978 5.20546L74.979 5.20746ZM75.3666 7.53889C75.0549 7.37308 75.4425 7.25021 75.3606 7.25021C74.998 6.8097 74.5854 7.25021 74.3746 6.94455L73.3047 5.38327L74.8521 5.47417C74.9059 5.47882 74.9588 5.49127 75.009 5.51112C75.2537 5.73388 75.0909 6.01058 75.1638 6.18838C75.1028 6.22159 75.0331 6.23552 74.964 6.22834L74.7932 6.21036L74.9091 6.39815C74.994 6.535 74.984 6.70881 75.0849 6.79771L75.004 6.54998C75.1269 6.54998 75.3037 6.63289 75.3237 6.75575C75.3255 6.71605 75.3173 6.67653 75.2997 6.64088L76.2298 7.54688C75.9492 7.64351 75.6439 7.63998 75.3656 7.5369L75.3666 7.53889ZM77.1269 8.7146C77.1797 8.66505 77.2183 8.60228 77.2387 8.5328L77.4385 8.72459C77.3342 8.74571 77.2263 8.7416 77.1239 8.7126L77.1269 8.7146ZM78.2917 14.6451L78.2527 14.8748L77.8751 14.5752C78.0106 14.6137 78.15 14.6364 78.2907 14.6431L78.2917 14.6451ZM81.5195 14.4892C81.4565 14.4663 81.4415 14.3564 81.4365 14.2155C81.4257 14.2483 81.4166 14.2817 81.4096 14.3154C81.3803 14.3085 81.3529 14.295 81.3295 14.2759C81.3062 14.2569 81.2874 14.2329 81.2747 14.2056L81.4335 14.1216V14.2215L81.4735 14.1027L81.5454 14.0647C81.6187 14.1068 81.6944 14.1445 81.7722 14.1776L81.5195 14.4892ZM88.7242 14.744C88.6803 14.7784 88.6436 14.8211 88.6163 14.8698L88.6023 14.8319L88.7242 14.744ZM87.7252 10.8652L87.7082 10.8343L87.8281 10.4227C87.4365 10.7124 87.6203 10.1061 87.3786 10.143C87.4785 9.97421 87.911 9.9862 87.7782 10.18L87.7212 10.175C87.7381 10.2118 87.7658 10.2425 87.8006 10.2632C87.8354 10.2839 87.8756 10.2936 87.916 10.2909L87.7252 10.8652ZM91.3146 7.44C91.3676 7.29516 91.3816 7.36608 91.4005 7.44H91.3146Z" fill="#FBED81"/>
<path d="M67.4415 6.77673C67.5162 6.79846 67.5956 6.79846 67.6703 6.77673L68.4285 6.57695L67.3206 5.69992C66.942 5.40025 66.0219 5.47716 65.901 5.33032C65.7798 5.39676 65.6457 5.4364 65.5078 5.44656C65.37 5.45673 65.2315 5.43719 65.1018 5.38926C65.1668 5.45618 65.1658 5.76784 64.918 5.68893C65.1028 5.07261 64.4935 5.3483 64.3546 4.86484C64.4935 5.19248 63.6223 4.83387 63.8481 5.30335C63.6483 5.22144 63.8701 5.06561 63.7312 4.8938C63.1928 5.06462 62.6453 4.57416 62.0109 4.56616C61.998 4.61611 62.0199 4.68903 62.0109 4.76594C62.005 4.76594 61.999 4.76594 61.992 4.75695C61.8046 4.05791 61.4841 3.40161 61.0479 2.82408C60.6028 2.15541 60.2597 1.42419 60.0299 0.654469C60.0969 0.972119 60.0179 0.879222 59.937 0.763349C59.979 0.88022 59.8851 0.963129 59.8671 1.08699C59.7952 0.820619 59.7139 0.556577 59.6233 0.294865C59.5234 0.51762 59.2857 -0.196595 59.2397 0.0541295L59.3336 0.15402C59.2786 0.393632 59.2786 0.642606 59.3336 0.882218L59.1079 0.423723L56.5964 5.51212L54.9051 5.75785C54.9165 5.75662 54.9272 5.75131 54.935 5.74287L54.9121 5.64298C54.8052 5.66496 54.7432 5.74287 54.8122 5.77583L54.5125 5.81979C54.6693 5.63499 54.4575 5.06561 54.2387 4.75596C54.2447 4.83787 54.2557 4.91278 54.0649 5.05563C54.1518 5.14653 54.5564 5.22744 54.4076 5.42122C54.1488 5.55707 54.1738 5.38826 54.027 5.30835C54.1568 5.49914 53.8272 5.65696 53.8272 5.92267L52.1668 6.16441C52.1707 6.14955 52.1707 6.13395 52.1669 6.11909C52.163 6.10423 52.1555 6.0906 52.1448 6.0795L51.997 6.13744C51.8262 5.95464 52.2447 5.81379 52.037 5.74687C52.2228 5.57306 52.4206 5.31434 52.7273 5.38726L52.8272 5.66795C52.814 5.64361 52.7953 5.62264 52.7727 5.60668C52.7501 5.59072 52.7241 5.58021 52.6967 5.57595C52.6693 5.5717 52.6413 5.57382 52.6149 5.58216C52.5885 5.59049 52.5644 5.60481 52.5444 5.624C52.6443 5.47816 53.0439 5.94964 53.1239 5.55308L52.8911 5.38327C53.0769 5.20746 53.2907 4.86484 53.5594 4.91878C53.4006 4.65107 53.5045 4.95973 53.2737 4.65307C53.4925 5.04464 52.6134 4.73198 52.9311 5.12954C52.6873 4.76994 52.5824 5.01267 52.2897 4.719C52.3107 4.81289 52.4026 4.88781 52.1798 4.87283C52.172 4.90448 52.1603 4.93502 52.1448 4.96373H52.1289L52.1428 4.97372C52.1349 4.9917 52.1349 4.9897 52.1428 4.97372C52.1976 5.00362 52.243 5.04826 52.2737 5.10257C52.1978 5.33632 51.8531 5.37927 51.7542 5.51013C51.6194 5.48316 51.7922 5.39325 51.7073 5.30136L51.5584 5.49614C51.5105 5.28837 51.1668 5.19647 51.4505 5.02666L51.1778 5.05662C51.0591 4.99034 50.9213 4.96638 50.7872 4.9887L48 5.60402L50.03 7.31814C50.0684 7.35192 50.1148 7.3753 50.1648 7.38606C50.2258 7.50993 50.5644 7.445 50.3646 7.48595L50.7642 7.69172L50.7293 7.73268C51.015 8.04833 51.6024 8.09029 51.6813 8.70461C51.8557 8.7609 52.0046 8.87693 52.1019 9.03225L52.002 9.19707C52.1778 9.27898 52.2677 9.7145 52.4585 9.63159C52.2587 10.126 53.021 10.3308 53.1908 10.6195L53.3676 10.4557C53.479 10.5677 53.6092 10.6594 53.7522 10.7264C53.5974 11.09 54.0449 11.5745 53.7013 11.8591C53.7268 11.8974 53.7364 11.9441 53.7282 11.9894C53.7201 12.0346 53.6946 12.075 53.6573 12.1019C53.6578 12.0924 53.6554 12.083 53.6503 12.0749C53.6456 12.0882 53.6423 12.1019 53.6403 12.1159C53.5974 12.1538 53.5474 12.1918 53.5045 12.2357C53.5542 12.2103 53.5992 12.1766 53.6373 12.1358C53.6284 12.2446 53.6385 12.3542 53.6673 12.4595L53.4336 12.4695V12.4974C53.3337 12.5973 53.5245 12.6063 53.7053 12.5754C53.7314 12.6396 53.7686 12.6988 53.8152 12.7502C53.4355 12.7801 53.8861 13.0728 53.4765 13.1317C53.6523 13.2416 53.5195 13.7311 53.9081 13.8629C53.8551 13.8629 53.8242 13.8879 53.8322 13.825C53.7642 13.9458 53.6973 14.0657 53.7902 14.1996H53.4905L53.8282 14.5452C53.6284 14.685 53.5105 14.738 53.3197 14.5312C53.5894 14.9967 53.3906 14.8838 53.6683 15.2874L53.4855 15.2384C53.4715 15.3633 53.6853 15.604 53.5195 15.652C53.469 15.6807 53.4262 15.7211 53.3946 15.7698L52.8431 16.569L54.3946 16.492C54.8431 16.4701 55.5754 15.8567 56.2717 15.8198C55.8901 15.3942 56.6833 15.8837 56.5095 15.4901C56.6094 15.59 56.7312 15.606 56.6803 15.7608C56.946 15.4762 57.2657 15.6879 57.3226 15.2494C57.4225 15.3493 57.3426 15.4552 57.4116 15.5071C57.4245 15.4682 57.4615 15.3513 57.5324 15.4072C57.6034 15.4632 57.5324 15.5301 57.5105 15.607C57.8331 15.4122 57.6783 15.0376 57.5264 14.689C57.7792 14.7589 57.8511 14.689 57.8571 14.4083C57.974 14.4872 58.1318 14.5502 57.945 14.699C58.0699 14.6541 58.7442 14.4862 58.6104 14.2116C58.6823 14.2605 58.7832 14.1456 58.7972 14.0987C58.9406 14.0428 59.081 13.9794 59.2177 13.9089C59.5005 14.2585 59.4465 13.8679 59.7532 14.3494L59.8341 14.1336C60.1059 13.7231 60.1138 14.6071 60.4715 14.5841L60.4345 14.4173C60.6603 14.3474 60.5344 15.2254 60.6583 15.3573C60.6713 15.4122 60.5754 15.3913 60.5154 15.3952C60.7702 15.8557 60.7043 15.1575 61.0269 15.2494C61.006 15.4202 60.7672 15.576 60.949 15.7049C60.986 15.8707 61.7592 15.5391 61.8821 15.9536C61.8821 15.8128 61.8821 15.6719 62.0589 15.661C62.2857 15.7309 62.3996 16.3692 62.7682 16.1214C62.7781 16.1566 62.7753 16.1941 62.7602 16.2273C62.965 16.2203 63.3516 16.3482 63.5454 16.2104C63.4725 16.4661 63.5744 16.572 63.7312 16.6229L65.4505 17.1773L64.939 15.7459C64.8271 15.4322 64.3976 15.0766 64.8771 14.9967L64.7462 14.4623H64.8221C64.8245 14.341 64.7865 14.2223 64.7142 14.1249C64.6419 14.0275 64.5393 13.9568 64.4225 13.9239C64.4575 13.835 64.5344 13.8829 64.5734 13.8829C64.6313 13.3535 64.5924 13.3075 64.1628 12.9449L64.3876 12.861C64.2327 12.7691 64.6263 12.0679 64.2707 11.6194C64.3119 11.6174 64.3524 11.6305 64.3846 11.6564C64.0489 11.1909 64.6663 10.3758 64.1138 10.19C64.2397 10.0961 64.3596 9.9902 64.4585 10.1001C65.1238 9.42082 65.957 8.95134 66.6103 8.34401L66.2946 8.1672L66.5304 7.96742C66.6453 7.96742 66.7991 8.08529 66.6303 8.23013C66.8511 8.29007 66.7812 7.85255 66.7302 7.79361C67.1388 7.59383 66.8921 8.20216 66.9929 8.11526L67.1038 7.97042H67.0459C67.0519 7.77064 66.956 7.64977 67.1578 7.47097C67.3276 7.40304 67.3696 7.56486 67.4265 7.52791C67.4435 7.54589 67.4675 7.53889 67.5064 7.46398L67.8061 7.21225L67.5064 7.12435C67.5444 6.90259 67.7882 6.87363 67.4415 6.77673ZM54.1978 11.1969L54.3646 11.1489L54.2397 10.8213C54.3986 10.9292 54.6284 11.113 54.8621 11.3127L54.7782 11.8042C54.5334 11.6579 54.3328 11.448 54.1978 11.1969ZM54.0689 9.49874C54.0798 9.46246 54.0974 9.42856 54.1209 9.39885L54.3586 9.63159L54.1109 9.8953L54.3916 9.66455L54.6254 9.89131C54.4941 10.034 54.3477 10.1619 54.1888 10.2729L54.1458 10.139L54.1169 10.193C54.0681 9.96398 54.052 9.72925 54.0689 9.49574V9.49874ZM62.007 4.78293C62.0019 4.80692 61.9921 4.82968 61.9782 4.84991C61.9643 4.87013 61.9466 4.88742 61.926 4.9008L61.7472 4.59413L62.007 4.78293ZM54.4775 5.81879L54.1279 5.86973C54.1471 5.84311 54.1714 5.82057 54.1994 5.80343C54.2273 5.78628 54.2585 5.77487 54.2909 5.76985C54.3233 5.76483 54.3564 5.76631 54.3883 5.77419C54.4202 5.78208 54.4502 5.79622 54.4765 5.81579L54.4775 5.81879ZM54.0559 5.86673V5.88072H54.0319L54.0559 5.86673ZM50.979 5.20746L50.973 5.21945C50.8092 5.15052 50.8671 5.17849 50.978 5.20546L50.979 5.20746ZM51.3666 7.53889C51.0549 7.37308 51.4425 7.25021 51.3606 7.25021C50.998 6.8097 50.5854 7.25021 50.3746 6.94455L49.3047 5.38327L50.8521 5.47417C50.9059 5.47882 50.9588 5.49127 51.009 5.51112C51.2537 5.73388 51.0909 6.01058 51.1638 6.18838C51.1028 6.22159 51.0331 6.23552 50.964 6.22834L50.7932 6.21036L50.9091 6.39815C50.994 6.535 50.984 6.70881 51.0849 6.79771L51.004 6.54998C51.1269 6.54998 51.3037 6.63289 51.3237 6.75575C51.3255 6.71605 51.3173 6.67653 51.2997 6.64088L52.2298 7.54688C51.9492 7.64351 51.6439 7.63998 51.3656 7.5369L51.3666 7.53889ZM53.1269 8.7146C53.1797 8.66505 53.2183 8.60228 53.2387 8.5328L53.4385 8.72459C53.3342 8.74571 53.2263 8.7416 53.1239 8.7126L53.1269 8.7146ZM54.2917 14.6451L54.2527 14.8748L53.8751 14.5752C54.0106 14.6137 54.15 14.6364 54.2907 14.6431L54.2917 14.6451ZM57.5195 14.4892C57.4565 14.4663 57.4415 14.3564 57.4365 14.2155C57.4257 14.2483 57.4166 14.2817 57.4096 14.3154C57.3803 14.3085 57.3529 14.295 57.3295 14.2759C57.3062 14.2569 57.2874 14.2329 57.2747 14.2056L57.4335 14.1216V14.2215L57.4735 14.1027L57.5454 14.0647C57.6187 14.1068 57.6944 14.1445 57.7722 14.1776L57.5195 14.4892ZM64.7242 14.744C64.6803 14.7784 64.6436 14.8211 64.6163 14.8698L64.6023 14.8319L64.7242 14.744ZM63.7252 10.8652L63.7082 10.8343L63.8281 10.4227C63.4365 10.7124 63.6203 10.1061 63.3786 10.143C63.4785 9.97421 63.911 9.9862 63.7782 10.18L63.7212 10.175C63.7381 10.2118 63.7658 10.2425 63.8006 10.2632C63.8354 10.2839 63.8756 10.2936 63.916 10.2909L63.7252 10.8652ZM67.3146 7.44C67.3676 7.29516 67.3816 7.36608 67.4005 7.44H67.3146Z" fill="#FBED81"/>
<path d="M43.4415 6.77673C43.5162 6.79846 43.5956 6.79846 43.6703 6.77673L44.4285 6.57695L43.3206 5.69992C42.942 5.40025 42.0219 5.47716 41.901 5.33032C41.7798 5.39676 41.6457 5.4364 41.5078 5.44656C41.37 5.45673 41.2315 5.43719 41.1018 5.38926C41.1668 5.45618 41.1658 5.76784 40.918 5.68893C41.1028 5.07261 40.4935 5.3483 40.3546 4.86484C40.4935 5.19248 39.6223 4.83387 39.8481 5.30335C39.6483 5.22144 39.8701 5.06561 39.7312 4.8938C39.1928 5.06462 38.6453 4.57416 38.0109 4.56616C37.998 4.61611 38.0199 4.68903 38.0109 4.76594C38.005 4.76594 37.999 4.76594 37.992 4.75695C37.8046 4.05791 37.4841 3.40161 37.0479 2.82408C36.6028 2.15541 36.2597 1.42419 36.0299 0.654469C36.0969 0.972119 36.0179 0.879222 35.937 0.763349C35.979 0.88022 35.8851 0.963129 35.8671 1.08699C35.7952 0.820619 35.7139 0.556577 35.6233 0.294865C35.5234 0.51762 35.2857 -0.196595 35.2397 0.0541295L35.3336 0.15402C35.2786 0.393632 35.2786 0.642606 35.3336 0.882218L35.1079 0.423723L32.5964 5.51212L30.9051 5.75785C30.9165 5.75662 30.9272 5.75131 30.935 5.74287L30.9121 5.64298C30.8052 5.66496 30.7432 5.74287 30.8122 5.77583L30.5125 5.81979C30.6693 5.63499 30.4575 5.06561 30.2387 4.75596C30.2447 4.83787 30.2557 4.91278 30.0649 5.05563C30.1518 5.14653 30.5564 5.22744 30.4076 5.42122C30.1488 5.55707 30.1738 5.38826 30.027 5.30835C30.1568 5.49914 29.8272 5.65696 29.8272 5.92267L28.1668 6.16441C28.1707 6.14955 28.1707 6.13395 28.1669 6.11909C28.163 6.10423 28.1555 6.0906 28.1448 6.0795L27.997 6.13744C27.8262 5.95464 28.2447 5.81379 28.037 5.74687C28.2228 5.57306 28.4206 5.31434 28.7273 5.38726L28.8272 5.66795C28.814 5.64361 28.7953 5.62264 28.7727 5.60668C28.7501 5.59072 28.7241 5.58021 28.6967 5.57595C28.6693 5.5717 28.6413 5.57382 28.6149 5.58216C28.5885 5.59049 28.5644 5.60481 28.5444 5.624C28.6443 5.47816 29.0439 5.94964 29.1239 5.55308L28.8911 5.38327C29.0769 5.20746 29.2907 4.86484 29.5594 4.91878C29.4006 4.65107 29.5045 4.95973 29.2737 4.65307C29.4925 5.04464 28.6134 4.73198 28.9311 5.12954C28.6873 4.76994 28.5824 5.01267 28.2897 4.719C28.3107 4.81289 28.4026 4.88781 28.1798 4.87283C28.172 4.90448 28.1603 4.93502 28.1448 4.96373H28.1289L28.1428 4.97372C28.1349 4.9917 28.1349 4.9897 28.1428 4.97372C28.1976 5.00362 28.243 5.04826 28.2737 5.10257C28.1978 5.33632 27.8531 5.37927 27.7542 5.51013C27.6194 5.48316 27.7922 5.39325 27.7073 5.30136L27.5584 5.49614C27.5105 5.28837 27.1668 5.19647 27.4505 5.02666L27.1778 5.05662C27.0591 4.99034 26.9213 4.96638 26.7872 4.9887L24 5.60402L26.03 7.31814C26.0684 7.35192 26.1148 7.3753 26.1648 7.38606C26.2258 7.50993 26.5644 7.445 26.3646 7.48595L26.7642 7.69172L26.7293 7.73268C27.015 8.04833 27.6024 8.09029 27.6813 8.70461C27.8557 8.7609 28.0046 8.87693 28.1019 9.03225L28.002 9.19707C28.1778 9.27898 28.2677 9.7145 28.4585 9.63159C28.2587 10.126 29.021 10.3308 29.1908 10.6195L29.3676 10.4557C29.479 10.5677 29.6092 10.6594 29.7522 10.7264C29.5974 11.09 30.0449 11.5745 29.7013 11.8591C29.7268 11.8974 29.7364 11.9441 29.7282 11.9894C29.7201 12.0346 29.6946 12.075 29.6573 12.1019C29.6578 12.0924 29.6554 12.083 29.6503 12.0749C29.6456 12.0882 29.6423 12.1019 29.6403 12.1159C29.5974 12.1538 29.5474 12.1918 29.5045 12.2357C29.5542 12.2103 29.5992 12.1766 29.6373 12.1358C29.6284 12.2446 29.6385 12.3542 29.6673 12.4595L29.4336 12.4695V12.4974C29.3337 12.5973 29.5245 12.6063 29.7053 12.5754C29.7314 12.6396 29.7686 12.6988 29.8152 12.7502C29.4355 12.7801 29.8861 13.0728 29.4765 13.1317C29.6523 13.2416 29.5195 13.7311 29.9081 13.8629C29.8551 13.8629 29.8242 13.8879 29.8322 13.825C29.7642 13.9458 29.6973 14.0657 29.7902 14.1996H29.4905L29.8282 14.5452C29.6284 14.685 29.5105 14.738 29.3197 14.5312C29.5894 14.9967 29.3906 14.8838 29.6683 15.2874L29.4855 15.2384C29.4715 15.3633 29.6853 15.604 29.5195 15.652C29.469 15.6807 29.4262 15.7211 29.3946 15.7698L28.8431 16.569L30.3946 16.492C30.8431 16.4701 31.5754 15.8567 32.2717 15.8198C31.8901 15.3942 32.6833 15.8837 32.5095 15.4901C32.6094 15.59 32.7312 15.606 32.6803 15.7608C32.946 15.4762 33.2657 15.6879 33.3226 15.2494C33.4225 15.3493 33.3426 15.4552 33.4116 15.5071C33.4245 15.4682 33.4615 15.3513 33.5324 15.4072C33.6034 15.4632 33.5324 15.5301 33.5105 15.607C33.8331 15.4122 33.6783 15.0376 33.5264 14.689C33.7792 14.7589 33.8511 14.689 33.8571 14.4083C33.974 14.4872 34.1318 14.5502 33.945 14.699C34.0699 14.6541 34.7442 14.4862 34.6104 14.2116C34.6823 14.2605 34.7832 14.1456 34.7972 14.0987C34.9406 14.0428 35.081 13.9794 35.2177 13.9089C35.5005 14.2585 35.4465 13.8679 35.7532 14.3494L35.8341 14.1336C36.1059 13.7231 36.1138 14.6071 36.4715 14.5841L36.4345 14.4173C36.6603 14.3474 36.5344 15.2254 36.6583 15.3573C36.6713 15.4122 36.5754 15.3913 36.5154 15.3952C36.7702 15.8557 36.7043 15.1575 37.0269 15.2494C37.006 15.4202 36.7672 15.576 36.949 15.7049C36.986 15.8707 37.7592 15.5391 37.8821 15.9536C37.8821 15.8128 37.8821 15.6719 38.0589 15.661C38.2857 15.7309 38.3996 16.3692 38.7682 16.1214C38.7781 16.1566 38.7753 16.1941 38.7602 16.2273C38.965 16.2203 39.3516 16.3482 39.5454 16.2104C39.4725 16.4661 39.5744 16.572 39.7312 16.6229L41.4505 17.1773L40.939 15.7459C40.8271 15.4322 40.3976 15.0766 40.8771 14.9967L40.7462 14.4623H40.8221C40.8245 14.341 40.7865 14.2223 40.7142 14.1249C40.6419 14.0275 40.5393 13.9568 40.4225 13.9239C40.4575 13.835 40.5344 13.8829 40.5734 13.8829C40.6313 13.3535 40.5924 13.3075 40.1628 12.9449L40.3876 12.861C40.2327 12.7691 40.6263 12.0679 40.2707 11.6194C40.3119 11.6174 40.3524 11.6305 40.3846 11.6564C40.0489 11.1909 40.6663 10.3758 40.1138 10.19C40.2397 10.0961 40.3596 9.9902 40.4585 10.1001C41.1238 9.42082 41.957 8.95134 42.6103 8.34401L42.2946 8.1672L42.5304 7.96742C42.6453 7.96742 42.7991 8.08529 42.6303 8.23013C42.8511 8.29007 42.7812 7.85255 42.7302 7.79361C43.1388 7.59383 42.8921 8.20216 42.9929 8.11526L43.1038 7.97042H43.0459C43.0519 7.77064 42.956 7.64977 43.1578 7.47097C43.3276 7.40304 43.3696 7.56486 43.4265 7.52791C43.4435 7.54589 43.4675 7.53889 43.5064 7.46398L43.8061 7.21225L43.5064 7.12435C43.5444 6.90259 43.7882 6.87363 43.4415 6.77673ZM30.1978 11.1969L30.3646 11.1489L30.2397 10.8213C30.3986 10.9292 30.6284 11.113 30.8621 11.3127L30.7782 11.8042C30.5334 11.6579 30.3328 11.448 30.1978 11.1969ZM30.0689 9.49874C30.0798 9.46246 30.0974 9.42856 30.1209 9.39885L30.3586 9.63159L30.1109 9.8953L30.3916 9.66455L30.6254 9.89131C30.4941 10.034 30.3477 10.1619 30.1888 10.2729L30.1458 10.139L30.1169 10.193C30.0681 9.96398 30.052 9.72925 30.0689 9.49574V9.49874ZM38.007 4.78293C38.0019 4.80692 37.9921 4.82968 37.9782 4.84991C37.9643 4.87013 37.9466 4.88742 37.926 4.9008L37.7472 4.59413L38.007 4.78293ZM30.4775 5.81879L30.1279 5.86973C30.1471 5.84311 30.1714 5.82057 30.1994 5.80343C30.2273 5.78628 30.2585 5.77487 30.2909 5.76985C30.3233 5.76483 30.3564 5.76631 30.3883 5.77419C30.4202 5.78208 30.4502 5.79622 30.4765 5.81579L30.4775 5.81879ZM30.0559 5.86673V5.88072H30.0319L30.0559 5.86673ZM26.979 5.20746L26.973 5.21945C26.8092 5.15052 26.8671 5.17849 26.978 5.20546L26.979 5.20746ZM27.3666 7.53889C27.0549 7.37308 27.4425 7.25021 27.3606 7.25021C26.998 6.8097 26.5854 7.25021 26.3746 6.94455L25.3047 5.38327L26.8521 5.47417C26.9059 5.47882 26.9588 5.49127 27.009 5.51112C27.2537 5.73388 27.0909 6.01058 27.1638 6.18838C27.1028 6.22159 27.0331 6.23552 26.964 6.22834L26.7932 6.21036L26.9091 6.39815C26.994 6.535 26.984 6.70881 27.0849 6.79771L27.004 6.54998C27.1269 6.54998 27.3037 6.63289 27.3237 6.75575C27.3255 6.71605 27.3173 6.67653 27.2997 6.64088L28.2298 7.54688C27.9492 7.64351 27.6439 7.63998 27.3656 7.5369L27.3666 7.53889ZM29.1269 8.7146C29.1797 8.66505 29.2183 8.60228 29.2387 8.5328L29.4385 8.72459C29.3342 8.74571 29.2263 8.7416 29.1239 8.7126L29.1269 8.7146ZM30.2917 14.6451L30.2527 14.8748L29.8751 14.5752C30.0106 14.6137 30.15 14.6364 30.2907 14.6431L30.2917 14.6451ZM33.5195 14.4892C33.4565 14.4663 33.4415 14.3564 33.4365 14.2155C33.4257 14.2483 33.4166 14.2817 33.4096 14.3154C33.3803 14.3085 33.3529 14.295 33.3295 14.2759C33.3062 14.2569 33.2874 14.2329 33.2747 14.2056L33.4335 14.1216V14.2215L33.4735 14.1027L33.5454 14.0647C33.6187 14.1068 33.6944 14.1445 33.7722 14.1776L33.5195 14.4892ZM40.7242 14.744C40.6803 14.7784 40.6436 14.8211 40.6163 14.8698L40.6023 14.8319L40.7242 14.744ZM39.7252 10.8652L39.7082 10.8343L39.8281 10.4227C39.4365 10.7124 39.6203 10.1061 39.3786 10.143C39.4785 9.97421 39.911 9.9862 39.7782 10.18L39.7212 10.175C39.7381 10.2118 39.7658 10.2425 39.8006 10.2632C39.8354 10.2839 39.8756 10.2936 39.916 10.2909L39.7252 10.8652ZM43.3146 7.44C43.3676 7.29516 43.3816 7.36608 43.4005 7.44H43.3146Z" fill="#FBED81"/>
<path d="M19.4415 6.77673C19.5162 6.79846 19.5956 6.79846 19.6703 6.77673L20.4285 6.57695L19.3206 5.69992C18.942 5.40025 18.0219 5.47716 17.901 5.33032C17.7798 5.39676 17.6457 5.4364 17.5078 5.44656C17.37 5.45673 17.2315 5.43719 17.1018 5.38926C17.1668 5.45618 17.1658 5.76784 16.918 5.68893C17.1028 5.07261 16.4935 5.3483 16.3546 4.86484C16.4935 5.19248 15.6223 4.83387 15.8481 5.30335C15.6483 5.22144 15.8701 5.06561 15.7312 4.8938C15.1928 5.06462 14.6453 4.57416 14.0109 4.56616C13.998 4.61611 14.0199 4.68903 14.0109 4.76594C14.005 4.76594 13.999 4.76594 13.992 4.75695C13.8046 4.05791 13.4841 3.40161 13.0479 2.82408C12.6028 2.15541 12.2597 1.42419 12.0299 0.654469C12.0969 0.972119 12.0179 0.879222 11.937 0.763349C11.979 0.88022 11.8851 0.963129 11.8671 1.08699C11.7952 0.820619 11.7139 0.556577 11.6233 0.294865C11.5234 0.51762 11.2857 -0.196595 11.2397 0.0541295L11.3336 0.15402C11.2786 0.393632 11.2786 0.642606 11.3336 0.882218L11.1079 0.423723L8.59638 5.51212L6.90507 5.75785C6.91654 5.75662 6.92718 5.75131 6.93504 5.74287L6.91207 5.64298C6.80517 5.66496 6.74324 5.74287 6.81217 5.77583L6.51247 5.81979C6.66931 5.63499 6.45752 5.06561 6.23874 4.75596C6.24474 4.83787 6.25573 4.91278 6.06492 5.05563C6.15183 5.14653 6.55642 5.22744 6.40757 5.42122C6.14883 5.55707 6.17381 5.38826 6.02695 5.30835C6.15682 5.49914 5.82716 5.65696 5.82716 5.92267L4.16682 6.16441C4.17071 6.14955 4.17074 6.13395 4.16689 6.11909C4.16304 6.10423 4.15545 6.0906 4.14484 6.0795L3.99699 6.13744C3.82616 5.95464 4.24474 5.81379 4.03695 5.74687C4.22276 5.57306 4.42057 5.31434 4.72726 5.38726L4.82716 5.66795C4.81396 5.64361 4.79532 5.62264 4.77269 5.60668C4.75006 5.59072 4.72405 5.58021 4.69669 5.57595C4.66932 5.5717 4.64135 5.57382 4.61494 5.58216C4.58853 5.59049 4.56441 5.60481 4.54444 5.624C4.64434 5.47816 5.04394 5.94964 5.12386 5.55308L4.89109 5.38327C5.07691 5.20746 5.29069 4.86484 5.55942 4.91878C5.40058 4.65107 5.50448 4.95973 5.27371 4.65307C5.49249 5.04464 4.61337 4.73198 4.93105 5.12954C4.6873 4.76994 4.5824 5.01267 4.2897 4.719C4.31068 4.81289 4.40258 4.88781 4.17981 4.87283C4.17203 4.90448 4.16028 4.93502 4.14484 4.96373H4.12886L4.14284 4.97372C4.13485 4.9917 4.13485 4.9897 4.14284 4.97372C4.19763 5.00362 4.24296 5.04826 4.27371 5.10257C4.19779 5.33632 3.85314 5.37927 3.75423 5.51013C3.61937 5.48316 3.7922 5.39325 3.70728 5.30136L3.55843 5.49614C3.51048 5.28837 3.16682 5.19647 3.45054 5.02666L3.17781 5.05662C3.05909 4.99034 2.92134 4.96638 2.7872 4.9887L0 5.60402L2.02996 7.31814C2.06838 7.35192 2.11481 7.3753 2.16483 7.38606C2.22577 7.50993 2.56443 7.445 2.36463 7.48595L2.76423 7.69172L2.72926 7.73268C3.01498 8.04833 3.60239 8.09029 3.68131 8.70461C3.85571 8.7609 4.00465 8.87693 4.10189 9.03225L4.00199 9.19707C4.17781 9.27898 4.26772 9.7145 4.45853 9.63159C4.25873 10.126 5.02096 10.3308 5.19079 10.6195L5.36762 10.4557C5.47899 10.5677 5.60917 10.6594 5.75223 10.7264C5.59739 11.09 6.04494 11.5745 5.70128 11.8591C5.72678 11.8974 5.73644 11.9441 5.72825 11.9894C5.72005 12.0346 5.69463 12.075 5.65733 12.1019C5.65784 12.0924 5.6554 12.083 5.65033 12.0749C5.64563 12.0882 5.64228 12.1019 5.64034 12.1159C5.59739 12.1538 5.54744 12.1918 5.50448 12.2357C5.5542 12.2103 5.59916 12.1766 5.63735 12.1358C5.6284 12.2446 5.63855 12.3542 5.66732 12.4595L5.43355 12.4695V12.4974C5.33365 12.5973 5.52446 12.6063 5.70528 12.5754C5.73137 12.6396 5.76857 12.6988 5.81517 12.7502C5.43555 12.7801 5.8861 13.0728 5.47651 13.1317C5.65233 13.2416 5.51946 13.7311 5.90807 13.8629C5.85513 13.8629 5.82416 13.8879 5.83215 13.825C5.76422 13.9458 5.69729 14.0657 5.79019 14.1996H5.49049L5.82815 14.5452C5.62835 14.685 5.51047 14.738 5.31966 14.5312C5.58939 14.9967 5.39059 14.8838 5.66831 15.2874L5.4855 15.2384C5.47151 15.3633 5.6853 15.604 5.51946 15.652C5.46902 15.6807 5.42621 15.7211 5.39459 15.7698L4.84314 16.569L6.39459 16.492C6.84314 16.4701 7.5754 15.8567 8.2717 15.8198C7.89009 15.3942 8.68329 15.8837 8.50947 15.4901C8.60937 15.59 8.73124 15.606 8.68029 15.7608C8.94603 15.4762 9.26571 15.6879 9.32265 15.2494C9.42255 15.3493 9.34263 15.4552 9.41156 15.5071C9.42455 15.4682 9.46151 15.3513 9.53244 15.4072C9.60337 15.4632 9.53244 15.5301 9.51046 15.607C9.83314 15.4122 9.67829 15.0376 9.52645 14.689C9.77919 14.7589 9.85112 14.689 9.85711 14.4083C9.974 14.4872 10.1318 14.5502 9.94502 14.699C10.0699 14.6541 10.7442 14.4862 10.6104 14.2116C10.6823 14.2605 10.7832 14.1456 10.7972 14.0987C10.9406 14.0428 11.081 13.9794 11.2177 13.9089C11.5005 14.2585 11.4465 13.8679 11.7532 14.3494L11.8341 14.1336C12.1059 13.7231 12.1138 14.6071 12.4715 14.5841L12.4345 14.4173C12.6603 14.3474 12.5344 15.2254 12.6583 15.3573C12.6713 15.4122 12.5754 15.3913 12.5154 15.3952C12.7702 15.8557 12.7043 15.1575 13.0269 15.2494C13.006 15.4202 12.7672 15.576 12.949 15.7049C12.986 15.8707 13.7592 15.5391 13.8821 15.9536C13.8821 15.8128 13.8821 15.6719 14.0589 15.661C14.2857 15.7309 14.3996 16.3692 14.7682 16.1214C14.7781 16.1566 14.7753 16.1941 14.7602 16.2273C14.965 16.2203 15.3516 16.3482 15.5454 16.2104C15.4725 16.4661 15.5744 16.572 15.7312 16.6229L17.4505 17.1773L16.939 15.7459C16.8271 15.4322 16.3976 15.0766 16.8771 14.9967L16.7462 14.4623H16.8221C16.8245 14.341 16.7865 14.2223 16.7142 14.1249C16.6419 14.0275 16.5393 13.9568 16.4225 13.9239C16.4575 13.835 16.5344 13.8829 16.5734 13.8829C16.6313 13.3535 16.5924 13.3075 16.1628 12.9449L16.3876 12.861C16.2327 12.7691 16.6263 12.0679 16.2707 11.6194C16.3119 11.6174 16.3524 11.6305 16.3846 11.6564C16.0489 11.1909 16.6663 10.3758 16.1138 10.19C16.2397 10.0961 16.3596 9.9902 16.4585 10.1001C17.1238 9.42082 17.957 8.95134 18.6103 8.34401L18.2946 8.1672L18.5304 7.96742C18.6453 7.96742 18.7991 8.08529 18.6303 8.23013C18.8511 8.29007 18.7812 7.85255 18.7302 7.79361C19.1388 7.59383 18.8921 8.20216 18.9929 8.11526L19.1038 7.97042H19.0459C19.0519 7.77064 18.956 7.64977 19.1578 7.47097C19.3276 7.40304 19.3696 7.56486 19.4265 7.52791C19.4435 7.54589 19.4675 7.53889 19.5064 7.46398L19.8061 7.21225L19.5064 7.12435C19.5444 6.90259 19.7882 6.87363 19.4415 6.77673ZM6.19778 11.1969L6.36462 11.1489L6.23974 10.8213C6.39858 10.9292 6.62835 11.113 6.86212 11.3127L6.7782 11.8042C6.53341 11.6579 6.33283 11.448 6.19778 11.1969ZM6.06891 9.49874C6.07976 9.46246 6.09739 9.42856 6.12086 9.39885L6.35862 9.63159L6.11087 9.8953L6.39159 9.66455L6.62535 9.89131C6.49412 10.034 6.34773 10.1619 6.18879 10.2729L6.14584 10.139L6.11686 10.193C6.06812 9.96398 6.05197 9.72925 6.06891 9.49574V9.49874ZM14.007 4.78293C14.0019 4.80692 13.9921 4.82968 13.9782 4.84991C13.9643 4.87013 13.9466 4.88742 13.926 4.9008L13.7472 4.59413L14.007 4.78293ZM6.4775 5.81879L6.12785 5.86973C6.14706 5.84311 6.17136 5.82057 6.19935 5.80343C6.22734 5.78628 6.25846 5.77487 6.2909 5.76985C6.32334 5.76483 6.35645 5.76631 6.38831 5.77419C6.42017 5.78208 6.45015 5.79622 6.4765 5.81579L6.4775 5.81879ZM6.05593 5.86673V5.88072H6.03195L6.05593 5.86673ZM2.97901 5.20746L2.97302 5.21945C2.80918 5.15052 2.86712 5.17849 2.97801 5.20546L2.97901 5.20746ZM3.36662 7.53889C3.05494 7.37308 3.44255 7.25021 3.36063 7.25021C2.99799 6.8097 2.58541 7.25021 2.37462 6.94455L1.30469 5.38327L2.85214 5.47417C2.90593 5.47882 2.95877 5.49127 3.00898 5.51112C3.25374 5.73388 3.0909 6.01058 3.16383 6.18838C3.1028 6.22159 3.03314 6.23552 2.96403 6.22834L2.7932 6.21036L2.90908 6.39815C2.994 6.535 2.98401 6.70881 3.08491 6.79771L3.00399 6.54998C3.12686 6.54998 3.30369 6.63289 3.32367 6.75575C3.32553 6.71605 3.31728 6.67653 3.29969 6.64088L4.22976 7.54688C3.94922 7.64351 3.64386 7.63998 3.36562 7.5369L3.36662 7.53889ZM5.12686 8.7146C5.17968 8.66505 5.21831 8.60228 5.23875 8.5328L5.43855 8.72459C5.33419 8.74571 5.2263 8.7416 5.12386 8.7126L5.12686 8.7146ZM6.29169 14.6451L6.25273 14.8748L5.87511 14.5752C6.01057 14.6137 6.15002 14.6364 6.29069 14.6431L6.29169 14.6451ZM9.51945 14.4892C9.45652 14.4663 9.44153 14.3564 9.43654 14.2155C9.42565 14.2483 9.41665 14.2817 9.40956 14.3154C9.38025 14.3085 9.3529 14.295 9.32954 14.2759C9.30619 14.2569 9.28744 14.2329 9.2747 14.2056L9.43354 14.1216V14.2215L9.4735 14.1027L9.54543 14.0647C9.61869 14.1068 9.69441 14.1445 9.7722 14.1776L9.51945 14.4892ZM16.7242 14.744C16.6803 14.7784 16.6436 14.8211 16.6163 14.8698L16.6023 14.8319L16.7242 14.744ZM15.7252 10.8652L15.7082 10.8343L15.8281 10.4227C15.4365 10.7124 15.6203 10.1061 15.3786 10.143C15.4785 9.97421 15.911 9.9862 15.7782 10.18L15.7212 10.175C15.7381 10.2118 15.7658 10.2425 15.8006 10.2632C15.8354 10.2839 15.8756 10.2936 15.916 10.2909L15.7252 10.8652ZM19.3146 7.44C19.3676 7.29516 19.3816 7.36608 19.4005 7.44H19.3146Z" fill="#FBED81"/>
</svg>
